<svg width="22" height="21" viewBox="0 0 22 21" fill="none" xmlns="http://www.w3.org/2000/svg">
<path d="M6.22266 5.33691L1.98633 17H0.254883L5.13281 4.20312H6.24902L6.22266 5.33691ZM9.77344 17L5.52832 5.33691L5.50195 4.20312H6.61816L11.5137 17H9.77344ZM9.55371 12.2627V13.6514H2.36426V12.2627H9.55371ZM18.5889 15.374V10.4785C18.5889 10.1035 18.5127 9.77832 18.3604 9.50293C18.2139 9.22168 17.9912 9.00488 17.6924 8.85254C17.3936 8.7002 17.0244 8.62402 16.585 8.62402C16.1748 8.62402 15.8145 8.69434 15.5039 8.83496C15.1992 8.97559 14.959 9.16016 14.7832 9.38867C14.6133 9.61719 14.5283 9.86328 14.5283 10.127H12.9023C12.9023 9.78711 12.9902 9.4502 13.166 9.11621C13.3418 8.78223 13.5938 8.48047 13.9219 8.21094C14.2559 7.93555 14.6543 7.71875 15.1172 7.56055C15.5859 7.39648 16.1074 7.31445 16.6816 7.31445C17.373 7.31445 17.9824 7.43164 18.5098 7.66602C19.043 7.90039 19.459 8.25488 19.7578 8.72949C20.0625 9.19824 20.2148 9.78711 20.2148 10.4961V14.9258C20.2148 15.2422 20.2412 15.5791 20.2939 15.9365C20.3525 16.2939 20.4375 16.6016 20.5488 16.8594V17H18.8525C18.7705 16.8125 18.7061 16.5635 18.6592 16.2529C18.6123 15.9365 18.5889 15.6436 18.5889 15.374ZM18.8701 11.2344L18.8877 12.377H17.2441C16.7812 12.377 16.3682 12.415 16.0049 12.4912C15.6416 12.5615 15.3369 12.6699 15.0908 12.8164C14.8447 12.9629 14.6572 13.1475 14.5283 13.3701C14.3994 13.5869 14.335 13.8418 14.335 14.1348C14.335 14.4336 14.4023 14.7061 14.5371 14.9521C14.6719 15.1982 14.874 15.3945 15.1436 15.541C15.4189 15.6816 15.7559 15.752 16.1543 15.752C16.6523 15.752 17.0918 15.6465 17.4727 15.4355C17.8535 15.2246 18.1553 14.9668 18.3779 14.6621C18.6064 14.3574 18.7295 14.0615 18.7471 13.7744L19.4414 14.5566C19.4004 14.8027 19.2891 15.0752 19.1074 15.374C18.9258 15.6729 18.6826 15.96 18.3779 16.2354C18.0791 16.5049 17.7217 16.7305 17.3057 16.9121C16.8955 17.0879 16.4326 17.1758 15.917 17.1758C15.2725 17.1758 14.707 17.0498 14.2207 16.7979C13.7402 16.5459 13.3652 16.209 13.0957 15.7871C12.832 15.3594 12.7002 14.8818 12.7002 14.3545C12.7002 13.8447 12.7998 13.3965 12.999 13.0098C13.1982 12.6172 13.4854 12.292 13.8604 12.0342C14.2354 11.7705 14.6865 11.5713 15.2139 11.4365C15.7412 11.3018 16.3301 11.2344 16.9805 11.2344H18.8701Z" fill="#596368"/>
<line x1="4.37114e-08" y1="20.5" x2="22" y2="20.5" stroke="#596368"/>
</svg>
