<svg width="13" height="18" viewBox="0 0 13 18" fill="none" xmlns="http://www.w3.org/2000/svg">
<path d="M6.44994 9.58104H1.86415L1.83929 7.66484H6.00255C6.69021 7.66484 7.29088 7.54945 7.80456 7.31868C8.31823 7.08791 8.71592 6.75824 8.99761 6.32967C9.28759 5.89286 9.43258 5.37363 9.43258 4.77198C9.43258 4.11264 9.30416 3.57692 9.04732 3.16484C8.79877 2.74451 8.41351 2.43956 7.89155 2.25C7.37787 2.0522 6.72335 1.9533 5.92798 1.9533H2.39853V18H0V0H5.92798C6.85591 0 7.68442 0.0947802 8.41351 0.284341C9.1426 0.465659 9.75984 0.754121 10.2652 1.14973C10.7789 1.53709 11.1683 2.03159 11.4334 2.63324C11.6986 3.23489 11.8311 3.95604 11.8311 4.7967C11.8311 5.53846 11.6406 6.21017 11.2594 6.81181C10.8783 7.40522 10.3481 7.89148 9.6687 8.2706C8.99761 8.64972 8.21053 8.89286 7.30745 9L6.44994 9.58104ZM6.3381 18H0.919645L2.27426 16.0591H6.3381C7.10032 16.0591 7.74656 15.9272 8.27681 15.6635C8.81534 15.3997 9.22545 15.0288 9.50714 14.5508C9.78884 14.0646 9.92968 13.4918 9.92968 12.8324C9.92968 12.1648 9.80955 11.5879 9.56928 11.1016C9.32901 10.6154 8.95204 10.2404 8.43837 9.97665C7.92469 9.71291 7.26188 9.58104 6.44994 9.58104H3.03234L3.0572 7.66484H7.72999L8.23952 8.35714C9.10946 8.43132 9.84683 8.67857 10.4516 9.0989C11.0565 9.51099 11.5163 10.0385 11.8311 10.6813C12.1542 11.3242 12.3158 12.033 12.3158 12.8077C12.3158 13.9286 12.0672 14.8764 11.5701 15.6511C11.0813 16.4176 10.3895 17.0027 9.49472 17.4066C8.59993 17.8022 7.54772 18 6.3381 18Z" fill="#596368"/>
</svg>
