<svg width="481" height="243" viewBox="0 0 481 243" fill="none" xmlns="http://www.w3.org/2000/svg">
<path d="M106.86 240.869C107.11 241.298 107.472 241.651 107.907 241.89C108.341 242.129 108.833 242.246 109.329 242.227C109.825 242.209 110.306 242.056 110.722 241.785C111.138 241.514 111.473 241.136 111.69 240.689L118.36 226.819C120.79 221.359 120.7 218.309 120.7 218.309C120.75 209.899 112 204.51 102.98 208.55C101.196 209.319 99.6718 210.586 98.59 212.2C95.59 216.82 96.54 222.32 98.73 226.83L106.86 240.869ZM112.41 225.55C105.85 229.32 99.26 222.259 102.88 215.339C103.356 214.427 104.08 213.667 104.97 213.149C111.53 209.379 118.12 216.44 114.5 223.36C114.021 224.27 113.297 225.029 112.41 225.55Z" fill="#06334D"/>
<path d="M398.2 33.7195C398.448 34.1511 398.809 34.5067 399.244 34.7481C399.679 34.9894 400.172 35.1071 400.669 35.0886C401.167 35.07 401.649 34.9159 402.066 34.6429C402.482 34.3699 402.815 33.9883 403.03 33.5395L409.7 19.6295C412.13 14.1695 412.04 11.1195 412.04 11.1195C412.09 2.71946 403.34 -2.67054 394.32 1.36946C392.536 2.13394 391.012 3.39808 389.93 5.00946C386.93 9.62946 387.93 15.1295 390.08 19.6395L398.2 33.7195ZM403.75 18.3995C397.19 22.1695 390.6 15.1095 394.22 8.18946C394.696 7.27674 395.421 6.51745 396.31 5.99946C402.87 2.22946 409.46 9.29946 405.84 16.2095C405.364 17.1222 404.64 17.8815 403.75 18.3995Z" fill="#06334D"/>
<path d="M10.1499 51.7195C10.3976 52.1511 10.7586 52.5067 11.1938 52.7481C11.629 52.9894 12.1219 53.1071 12.6192 53.0886C13.1165 53.07 13.5993 52.9159 14.0153 52.6429C14.4314 52.3699 14.765 51.9883 14.9799 51.5395L21.6499 37.6295C24.0799 32.1695 23.9898 29.1195 23.9898 29.1195C24.0398 20.7195 15.2899 15.3295 6.26986 19.3695C4.48605 20.1339 2.96144 21.3981 1.87984 23.0095C-1.12016 27.6295 -0.120135 33.1295 2.02986 37.6395L10.1499 51.7195ZM15.6998 36.3995C9.13985 40.1695 2.54982 33.1095 6.16982 26.1895C6.6457 25.2767 7.37035 24.5174 8.25984 23.9995C14.8198 20.2295 21.4099 27.2995 17.7899 34.2095C17.314 35.1222 16.5893 35.8815 15.6998 36.3995Z" fill="#06334D"/>
<path d="M466.75 212.839C466.999 213.271 467.36 213.626 467.796 213.866C468.232 214.107 468.725 214.223 469.222 214.204C469.72 214.184 470.202 214.029 470.618 213.755C471.033 213.481 471.366 213.099 471.58 212.649L478.25 198.779C480.68 193.319 480.59 190.269 480.59 190.269C480.59 181.869 471.89 176.479 462.87 180.519C461.089 181.288 459.565 182.551 458.48 184.159C455.48 188.789 456.42 194.279 458.62 198.799L466.75 212.839ZM472.3 197.519C465.74 201.289 459.15 194.219 462.77 187.309C463.243 186.394 463.968 185.634 464.86 185.119C471.42 181.349 478.01 188.409 474.38 195.329C473.908 196.242 473.187 197.001 472.3 197.519Z" fill="#06334D"/>
<path d="M106.51 196.279C106.65 196.279 106.61 196.99 106.42 197.8C106.23 198.61 105.96 199.24 105.83 199.2C105.7 199.16 105.73 198.489 105.92 197.679C106.11 196.869 106.37 196.249 106.51 196.279Z" fill="#06334D"/>
<path d="M108.32 184.409C108.433 186.436 108.189 188.467 107.6 190.409C107.463 189.411 107.497 188.397 107.7 187.409C107.73 186.381 107.94 185.365 108.32 184.409Z" fill="#06334D"/>
<path d="M108.63 172.399C108.897 173.376 108.992 174.391 108.91 175.399C108.994 176.406 108.91 177.42 108.66 178.399C108.394 177.423 108.302 176.408 108.39 175.399C108.304 174.393 108.385 173.379 108.63 172.399Z" fill="#06334D"/>
<path d="M107.5 160.439C107.873 161.381 108.086 162.378 108.13 163.389C108.344 164.375 108.381 165.391 108.24 166.389C107.87 165.447 107.657 164.451 107.61 163.439C107.403 162.453 107.365 161.438 107.5 160.439Z" fill="#06334D"/>
<path d="M104.94 148.699C105.757 150.544 106.248 152.517 106.39 154.529C105.57 152.686 105.079 150.713 104.94 148.699Z" fill="#06334D"/>
<path d="M101 137.349C101.587 138.176 102.03 139.096 102.31 140.069C102.746 140.983 103.026 141.963 103.14 142.969C102.548 142.145 102.101 141.225 101.82 140.249C101.377 139.339 101.099 138.357 101 137.349Z" fill="#06334D"/>
<path d="M95.7 126.569C96.3883 127.316 96.943 128.175 97.34 129.109C97.8829 129.962 98.2816 130.898 98.52 131.879C97.2788 130.287 96.3245 128.49 95.7 126.569Z" fill="#06334D"/>
<path d="M89.09 116.549C89.9041 117.17 90.5844 117.949 91.09 118.839C91.7362 119.621 92.2435 120.507 92.59 121.459C91.824 120.797 91.172 120.013 90.66 119.139C90.0154 118.356 89.4866 117.483 89.09 116.549Z" fill="#06334D"/>
<path d="M81.38 107.34C81.49 107.24 82.46 108.17 83.56 109.42C84.2907 110.122 84.896 110.944 85.35 111.85C84.5132 111.282 83.7765 110.579 83.17 109.77C82.4445 109.063 81.8398 108.242 81.38 107.34Z" fill="#06334D"/>
<path d="M72.86 98.8695C73.7433 99.3598 74.5377 99.9954 75.21 100.749C76.0002 101.384 76.6765 102.148 77.21 103.01C76.3224 102.526 75.5269 101.889 74.86 101.13C74.068 100.497 73.3914 99.7325 72.86 98.8695Z" fill="#06334D"/>
<path d="M63.66 91.1394C65.4203 92.1249 67.0023 93.3994 68.34 94.9094C67.4175 94.4952 66.5721 93.9271 65.84 93.2294C64.9985 92.6634 64.261 91.9564 63.66 91.1394Z" fill="#06334D"/>
<path d="M53.85 84.2095C55.7025 85.0244 57.3955 86.1621 58.85 87.5695C57.8958 87.2332 57.0063 86.736 56.22 86.0995C55.3259 85.6123 54.5239 84.9727 53.85 84.2095Z" fill="#06334D"/>
<path d="M43.45 78.1895C44.4314 78.4348 45.3645 78.8439 46.21 79.3995C47.1361 79.8083 47.9851 80.3732 48.72 81.0695C47.7374 80.8273 46.8038 80.418 45.96 79.8595C45.0328 79.4526 44.1834 78.8875 43.45 78.1895Z" fill="#06334D"/>
<path d="M32.46 73.3195C33.4649 73.444 34.4399 73.7454 35.34 74.2095C36.3017 74.5262 37.2016 75.0066 38 75.6295C36.9967 75.4968 36.0231 75.1959 35.1199 74.7395C34.1631 74.4114 33.265 73.932 32.46 73.3195Z" fill="#06334D"/>
<path d="M20.9399 69.9495C21.9603 69.9329 22.9757 70.0954 23.9399 70.4295C24.9385 70.6036 25.9015 70.9414 26.7899 71.4295C25.7694 71.4478 24.7538 71.2853 23.7899 70.9495C22.7897 70.7818 21.8257 70.4435 20.9399 69.9495Z" fill="#06334D"/>
<path d="M12 68.7394C12 68.5994 12.69 68.5394 13.52 68.6094C14.35 68.6794 15.01 68.8494 14.99 68.9994C14.97 69.1494 14.29 69.1994 13.47 69.1294C12.65 69.0594 12 68.8794 12 68.7394Z" fill="#06334D"/>
<path d="M14.0001 66.4794C14.1101 66.5794 13.7501 67.1594 13.2101 67.7794C12.6701 68.3994 12.1401 68.7794 12.0301 68.7794C11.9201 68.7794 12.2801 68.0994 12.8201 67.4794C13.3601 66.8594 13.8801 66.3794 14.0001 66.4794Z" fill="#06334D"/>
<path d="M22.43 58.1394C21.2363 59.7373 19.7666 61.1089 18.09 62.1894C17.98 62.0794 18.88 61.0894 20.09 59.9694C20.7647 59.2355 21.5552 58.6173 22.43 58.1394Z" fill="#06334D"/>
<path d="M31.77 50.8295C30.4029 52.2808 28.7875 53.4763 27 54.3595C27.6202 53.5671 28.375 52.89 29.23 52.3595C29.9849 51.7107 30.8436 51.1935 31.77 50.8295Z" fill="#06334D"/>
<path d="M41.84 44.5594C40.3228 45.8472 38.5939 46.8622 36.73 47.5594C37.4272 46.8432 38.2467 46.2574 39.15 45.8295C39.9694 45.2589 40.8787 44.8296 41.84 44.5594Z" fill="#06334D"/>
<path d="M52.46 39.2994C51.6991 39.9455 50.8287 40.4502 49.89 40.7894C49.0204 41.2799 48.0735 41.6181 47.09 41.7894C47.8564 41.146 48.7296 40.6417 49.67 40.2994C50.5371 39.8115 51.4803 39.4734 52.46 39.2994Z" fill="#06334D"/>
<path d="M63.52 34.9995C62.7012 35.5776 61.7874 36.0075 60.82 36.2695C59.9141 36.6878 58.9435 36.9482 57.95 37.0395C58.7632 36.4606 59.6746 36.0337 60.64 35.7795C61.5484 35.3571 62.5225 35.0933 63.52 34.9995Z" fill="#06334D"/>
<path d="M74.8899 31.6295C73.0928 32.4951 71.1559 33.0335 69.1699 33.2195C70.035 32.727 70.979 32.3887 71.9599 32.2195C72.896 31.858 73.8868 31.6585 74.8899 31.6295Z" fill="#06334D"/>
<path d="M86.48 29.0694C84.6232 29.7962 82.6535 30.1921 80.66 30.2394C81.5572 29.7951 82.5251 29.5108 83.52 29.3994C84.4808 29.1222 85.4818 29.0107 86.48 29.0694Z" fill="#06334D"/>
<path d="M98.21 27.3295C96.3095 27.9252 94.3198 28.1858 92.33 28.0995C93.2559 27.7202 94.2403 27.5037 95.24 27.4595C96.2148 27.243 97.22 27.199 98.21 27.3295Z" fill="#06334D"/>
<path d="M110 26.3495C109.05 26.6686 108.052 26.8241 107.05 26.8095C106.054 26.9623 105.038 26.9387 104.05 26.7395C104.997 26.4236 105.992 26.2714 106.99 26.2895C107.989 26.1302 109.008 26.1505 110 26.3495Z" fill="#06334D"/>
<path d="M121.9 26.0895C120.925 26.3605 119.909 26.4554 118.9 26.3695C117.894 26.4626 116.879 26.3814 115.9 26.1295C116.876 25.8618 117.891 25.767 118.9 25.8495C119.906 25.7572 120.921 25.8384 121.9 26.0895Z" fill="#06334D"/>
<path d="M133.76 26.5395C132.774 26.7511 131.759 26.7884 130.76 26.6495C129.76 26.6755 128.763 26.5335 127.81 26.2295C128.797 26.0238 129.812 25.99 130.81 26.1295C131.81 26.0948 132.808 26.2335 133.76 26.5395Z" fill="#06334D"/>
<path d="M145.57 27.6995C144.573 27.8466 143.558 27.8196 142.57 27.6195C141.569 27.5975 140.581 27.3978 139.65 27.0295C140.647 26.8818 141.662 26.9089 142.65 27.1095C143.651 27.1315 144.639 27.3313 145.57 27.6995Z" fill="#06334D"/>
<path d="M157.29 29.5495C156.283 29.6405 155.268 29.5559 154.29 29.2995C153.294 29.2101 152.32 28.9532 151.41 28.5395C152.417 28.4426 153.433 28.5272 154.41 28.7895C155.406 28.8788 156.38 29.1358 157.29 29.5495Z" fill="#06334D"/>
<path d="M168.87 32.1294C167.873 32.14 166.88 31.9915 165.93 31.6894C164.94 31.5411 163.982 31.2231 163.1 30.7494C164.101 30.7206 165.099 30.8661 166.05 31.1794C167.041 31.317 167.998 31.6392 168.87 32.1294Z" fill="#06334D"/>
<path d="M180.22 35.6294C179.221 35.5799 178.239 35.353 177.32 34.9594C176.345 34.7276 175.418 34.3283 174.58 33.7794C175.579 33.8373 176.56 34.0674 177.48 34.4594C178.453 34.6905 179.38 35.0862 180.22 35.6294Z" fill="#06334D"/>
<path d="M191.23 39.9994C190.241 39.8518 189.284 39.5373 188.4 39.0694C187.448 38.7603 186.558 38.2864 185.77 37.6694C187.71 38.1272 189.557 38.9154 191.23 39.9994Z" fill="#06334D"/>
<path d="M201.84 45.3094C200.865 45.0829 199.936 44.6941 199.09 44.1594C198.169 43.7691 197.323 43.2209 196.59 42.5394C197.564 42.7643 198.491 43.1569 199.33 43.6994C200.256 44.0825 201.106 44.6277 201.84 45.3094Z" fill="#06334D"/>
<path d="M212 51.4594C211.049 51.1546 210.157 50.6914 209.36 50.0894C208.475 49.6264 207.677 49.014 207 48.2794C207.951 48.5835 208.844 49.0468 209.64 49.6494C210.527 50.109 211.326 50.7218 212 51.4594Z" fill="#06334D"/>
<path d="M221.6 58.3895C220.671 58.0183 219.815 57.4869 219.07 56.8195C218.22 56.286 217.469 55.6093 216.85 54.8195C217.779 55.1906 218.635 55.722 219.38 56.3895C220.23 56.9228 220.981 57.5995 221.6 58.3895Z" fill="#06334D"/>
<path d="M230.66 66.0594C229.767 65.607 228.956 65.0088 228.26 64.2894C227.03 63.2094 226.11 62.2894 226.21 62.1394C227.104 62.5864 227.915 63.1815 228.61 63.8994C229.84 64.9894 230.76 65.9494 230.66 66.0594Z" fill="#06334D"/>
<path d="M239.1 74.3894C238.245 73.8757 237.484 73.2196 236.85 72.4494C236.088 71.7975 235.448 71.0153 234.96 70.1394C235.823 70.671 236.587 71.3476 237.22 72.1394C237.97 72.7772 238.606 73.5381 239.1 74.3894Z" fill="#06334D"/>
<path d="M246.88 83.3495C246.064 82.7723 245.353 82.0585 244.78 81.2395C244.076 80.5312 243.5 79.7054 243.08 78.7995C243.19 78.6995 244.13 79.6495 245.18 80.9095C245.882 81.6198 246.457 82.4451 246.88 83.3495Z" fill="#06334D"/>
<path d="M253.94 92.8895C253.171 92.2508 252.515 91.4868 252 90.6295C251.353 89.8655 250.843 88.9962 250.49 88.0594C251.261 88.7001 251.917 89.4678 252.43 90.3295C253.079 91.0883 253.59 91.9547 253.94 92.8895Z" fill="#06334D"/>
<path d="M260.24 102.95C258.931 101.446 257.898 99.7228 257.19 97.8595C257.911 98.5532 258.504 99.3691 258.94 100.27C259.53 101.078 259.971 101.985 260.24 102.95Z" fill="#06334D"/>
<path d="M265.72 113.469C264.538 111.868 263.647 110.07 263.09 108.159C264.272 109.761 265.163 111.558 265.72 113.469Z" fill="#06334D"/>
<path d="M270.32 124.399C269.724 123.596 269.27 122.697 268.98 121.739C268.537 120.845 268.25 119.881 268.13 118.889C268.727 119.692 269.181 120.592 269.47 121.549C269.912 122.445 270.199 123.408 270.32 124.399Z" fill="#06334D"/>
<path d="M274 135.68C273.473 134.827 273.097 133.89 272.89 132.91C272.527 131.98 272.321 130.997 272.28 130C272.808 130.848 273.184 131.782 273.39 132.76C273.759 133.691 273.965 134.678 274 135.68Z" fill="#06334D"/>
<path d="M276.11 144.409C275.97 144.409 275.72 143.809 275.54 142.999C275.36 142.189 275.33 141.519 275.47 141.479C275.61 141.439 275.87 142.079 276.05 142.889C276.23 143.699 276.26 144.379 276.11 144.409Z" fill="#06334D"/>
<path d="M281.92 133.739C282.05 133.739 282 134.449 281.8 135.249C281.6 136.049 281.32 136.679 281.18 136.639C281.04 136.599 281.09 135.929 281.3 135.129C281.51 134.329 281.78 133.699 281.92 133.739Z" fill="#06334D"/>
<path d="M285.21 121.759C285.182 122.806 284.979 123.84 284.61 124.819C284.403 125.842 284.031 126.825 283.51 127.729C283.738 125.649 284.313 123.621 285.21 121.729V121.759Z" fill="#06334D"/>
<path d="M289 109.949C288.918 110.984 288.665 111.998 288.25 112.949C288.005 113.975 287.582 114.95 287 115.829C287.336 113.772 288.012 111.785 289 109.949Z" fill="#06334D"/>
<path d="M293.55 98.3894C293.417 99.4359 293.102 100.451 292.62 101.389C292.301 102.387 291.821 103.326 291.2 104.169C291.333 103.123 291.648 102.108 292.13 101.169C292.454 100.174 292.933 99.2355 293.55 98.3894Z" fill="#06334D"/>
<path d="M299 87.2195C298.766 88.2373 298.367 89.2101 297.82 90.0995C297.426 91.0686 296.871 91.9645 296.18 92.7495C296.412 91.7311 296.811 90.7581 297.36 89.8695C297.752 88.8994 298.307 88.0032 299 87.2195Z" fill="#06334D"/>
<path d="M305.36 76.6295C305.031 77.6197 304.541 78.5489 303.91 79.3795C303.408 80.2927 302.763 81.1198 302 81.8295C302.319 80.8322 302.81 79.8982 303.45 79.0695C303.947 78.156 304.593 77.3315 305.36 76.6295Z" fill="#06334D"/>
<path d="M312.89 66.7395C312.45 67.6857 311.859 68.5537 311.14 69.3095C310.55 70.1747 309.82 70.9352 308.98 71.5595C309.418 70.6123 310.009 69.7439 310.73 68.9895C311.316 68.1212 312.046 67.3601 312.89 66.7395Z" fill="#E0E0E0"/>
<path d="M321.54 57.8495C320.99 58.7373 320.298 59.528 319.49 60.1895C318.802 60.984 317.988 61.6597 317.08 62.1895C318.317 60.5153 319.824 59.0587 321.54 57.8795V57.8495Z" fill="#06334D"/>
<path d="M331.21 50.0795C330.561 50.9002 329.776 51.6037 328.89 52.1595C328.111 52.8537 327.222 53.4145 326.26 53.8195C326.915 53.0046 327.699 52.302 328.58 51.7395C329.363 51.0498 330.251 50.4894 331.21 50.0795Z" fill="#06334D"/>
<path d="M341.79 43.6295C341.033 44.3471 340.165 44.938 339.22 45.3795C338.355 45.9694 337.399 46.4121 336.39 46.6895C337.144 45.9649 338.012 45.3702 338.96 44.9295C339.822 44.3371 340.779 43.8974 341.79 43.6295Z" fill="#06334D"/>
<path d="M353.05 38.4094C352.219 39.0422 351.29 39.5353 350.3 39.8694C349.379 40.3638 348.382 40.7017 347.35 40.8694C348.179 40.2302 349.108 39.7334 350.1 39.3994C351.018 38.9007 352.017 38.5656 353.05 38.4094Z" fill="#06334D"/>
<path d="M364.79 34.3795C363.895 34.9228 362.92 35.321 361.9 35.5595C360.942 35.9437 359.93 36.1732 358.9 36.2395C359.788 35.6821 360.766 35.2829 361.79 35.0595C362.745 34.6661 363.759 34.4362 364.79 34.3795Z" fill="#06334D"/>
<path d="M376.92 31.7894C375.97 32.2163 374.957 32.4864 373.92 32.5894C372.91 32.8546 371.862 32.9492 370.82 32.8694C372.781 32.1656 374.847 31.8004 376.93 31.7894H376.92Z" fill="#06334D"/>
<path d="M389.3 31.4295C388.273 31.5764 387.232 31.5965 386.2 31.4895C385.161 31.5418 384.119 31.4611 383.1 31.2495C385.152 30.8154 387.277 30.8771 389.3 31.4295Z" fill="#06334D"/>
<path d="M398.2 33.7195C398.14 33.8495 397.47 33.7195 396.71 33.4295C395.95 33.1395 395.36 32.7795 395.41 32.6395C395.46 32.4995 396.12 32.6395 396.9 32.9395C397.68 33.2395 398.26 33.6295 398.2 33.7195Z" fill="#06334D"/>
<path d="M284.45 147.399C284.45 147.539 283.9 147.869 283.12 148.139C282.34 148.409 281.66 148.519 281.61 148.379C281.56 148.239 282.16 147.919 282.95 147.649C283.74 147.379 284.4 147.269 284.45 147.399Z" fill="#06334D"/>
<path d="M296.13 143.929C295.24 144.444 294.27 144.805 293.26 144.999C292.299 145.356 291.285 145.545 290.26 145.559C291.15 145.052 292.115 144.69 293.12 144.489C294.084 144.134 295.102 143.944 296.13 143.929Z" fill="#06334D"/>
<path d="M308 141.26C307.078 141.708 306.088 142.002 305.07 142.13C304.097 142.415 303.083 142.536 302.07 142.49C303.985 141.738 306.014 141.322 308.07 141.26H308Z" fill="#06334D"/>
<path d="M320.06 139.409C319.103 139.796 318.09 140.022 317.06 140.079C316.06 140.308 315.028 140.359 314.01 140.229C314.965 139.84 315.98 139.613 317.01 139.559C318.01 139.332 319.042 139.282 320.06 139.409Z" fill="#06334D"/>
<path d="M332.2 138.349C330.212 138.831 328.156 138.976 326.12 138.779C327.086 138.453 328.1 138.29 329.12 138.299C330.142 138.148 331.183 138.165 332.2 138.349Z" fill="#06334D"/>
<path d="M344.38 138.099C343.401 138.351 342.388 138.442 341.38 138.369C340.373 138.459 339.358 138.374 338.38 138.119C339.359 137.867 340.372 137.776 341.38 137.849C342.387 137.76 343.402 137.845 344.38 138.099Z" fill="#06334D"/>
<path d="M356.56 138.63C355.552 138.831 354.517 138.858 353.5 138.71C352.483 138.73 351.469 138.581 350.5 138.27C351.488 138.072 352.503 138.045 353.5 138.19C354.537 138.163 355.572 138.312 356.56 138.63Z" fill="#06334D"/>
<path d="M368.68 139.959C367.661 140.096 366.625 140.056 365.62 139.839C364.592 139.793 363.578 139.577 362.62 139.199C364.665 139.104 366.712 139.361 368.67 139.959H368.68Z" fill="#06334D"/>
<path d="M380.69 142.079C379.663 142.139 378.633 142.031 377.64 141.759C376.62 141.646 375.626 141.362 374.7 140.919C375.711 140.865 376.724 140.973 377.7 141.239C378.737 141.346 379.749 141.63 380.69 142.079Z" fill="#06334D"/>
<path d="M392.52 144.979C391.499 144.967 390.486 144.791 389.52 144.459C388.51 144.292 387.536 143.954 386.64 143.459C388.678 143.633 390.671 144.157 392.53 145.009L392.52 144.979Z" fill="#06334D"/>
<path d="M404.14 148.629C403.105 148.568 402.09 148.324 401.14 147.909C400.142 147.666 399.192 147.257 398.33 146.699C399.365 146.761 400.38 147.005 401.33 147.419C402.328 147.663 403.278 148.072 404.14 148.629Z" fill="#06334D"/>
<path d="M415.48 153.099C414.464 152.963 413.48 152.652 412.57 152.179C411.59 151.871 410.67 151.398 409.85 150.779C410.864 150.923 411.848 151.234 412.76 151.699C413.739 152.009 414.659 152.482 415.48 153.099Z" fill="#06334D"/>
<path d="M426.49 158.319C425.486 158.112 424.525 157.734 423.65 157.199C422.684 156.83 421.788 156.3 421 155.629C422.007 155.839 422.97 156.218 423.85 156.749C424.815 157.114 425.709 157.645 426.49 158.319Z" fill="#06334D"/>
<path d="M437.11 164.299C436.124 164.014 435.191 163.568 434.35 162.979C433.428 162.535 432.587 161.94 431.86 161.219C432.848 161.496 433.781 161.939 434.62 162.529C435.543 162.977 436.384 163.575 437.11 164.299Z" fill="#06334D"/>
<path d="M447.29 170.999C446.328 170.643 445.429 170.133 444.63 169.489C443.736 168.986 442.934 168.333 442.26 167.559C444.112 168.411 445.803 169.574 447.26 170.999H447.29Z" fill="#06334D"/>
<path d="M457 178.369C455.197 177.408 453.573 176.143 452.2 174.629C453.14 175.045 454.005 175.612 454.76 176.309C455.616 176.866 456.373 177.563 457 178.369Z" fill="#06334D"/>
<path d="M132 217.429C132.14 217.429 132 218.149 131.79 218.929C131.58 219.709 131.22 220.319 131.08 220.279C130.94 220.239 131.08 219.569 131.29 218.769C131.5 217.969 131.85 217.379 132 217.429Z" fill="#06334D"/>
<path d="M136.41 206.49C136.261 207.473 135.943 208.424 135.47 209.3C135.156 210.243 134.671 211.121 134.04 211.89C134.512 209.966 135.314 208.139 136.41 206.49Z" fill="#06334D"/>
<path d="M142 196.129C141.314 197.996 140.298 199.723 139 201.229C139.265 200.271 139.691 199.365 140.26 198.549C140.695 197.648 141.284 196.829 142 196.129Z" fill="#06334D"/>
<path d="M148.78 186.439C147.903 188.217 146.718 189.825 145.28 191.189C145.642 190.263 146.164 189.407 146.82 188.659C147.342 187.813 148.005 187.062 148.78 186.439Z" fill="#06334D"/>
<path d="M156.54 177.549C155.467 179.216 154.113 180.684 152.54 181.889C153.001 181.006 153.614 180.211 154.35 179.539C154.96 178.755 155.701 178.082 156.54 177.549Z" fill="#06334D"/>
<path d="M165.22 169.549C164.662 170.374 163.965 171.095 163.16 171.679C162.469 172.394 161.66 172.986 160.77 173.429C160.67 173.319 161.59 172.369 162.82 171.289C163.513 170.575 164.325 169.986 165.22 169.549Z" fill="#06334D"/>
<path d="M174.72 162.559C174.077 163.318 173.305 163.958 172.44 164.449C171.675 165.084 170.805 165.582 169.87 165.919C170.515 165.159 171.286 164.516 172.15 164.019C172.914 163.385 173.784 162.891 174.72 162.559Z" fill="#06334D"/>
<path d="M185 156.679C184.272 157.36 183.434 157.911 182.52 158.309C181.69 158.855 180.769 159.248 179.8 159.469C180.528 158.792 181.367 158.244 182.28 157.849C183.116 157.312 184.035 156.917 185 156.679Z" fill="#06334D"/>
<path d="M195.79 152.039C194.1 153.074 192.242 153.805 190.3 154.199C191.102 153.613 191.998 153.166 192.95 152.879C193.84 152.434 194.801 152.15 195.79 152.039Z" fill="#06334D"/>
<path d="M207.09 148.629C205.297 149.465 203.371 149.979 201.4 150.149C203.193 149.314 205.119 148.799 207.09 148.629Z" fill="#06334D"/>
<path d="M218.71 146.629C217.795 147.02 216.822 147.257 215.83 147.329C214.848 147.563 213.833 147.623 212.83 147.509C213.743 147.112 214.717 146.876 215.71 146.809C216.691 146.57 217.707 146.509 218.71 146.629Z" fill="#06334D"/>
<path d="M230.48 145.769C229.528 146.06 228.534 146.189 227.54 146.149C226.54 146.285 225.523 146.237 224.54 146.009C225.491 145.717 226.486 145.589 227.48 145.629C228.48 145.493 229.497 145.541 230.48 145.769Z" fill="#06334D"/>
<path d="M242.27 146.239C241.281 146.433 240.266 146.453 239.27 146.299C238.274 146.319 237.282 146.163 236.34 145.839C237.329 145.646 238.344 145.626 239.34 145.779C240.336 145.76 241.328 145.916 242.27 146.239Z" fill="#06334D"/>
<path d="M253.94 147.999C251.959 148.015 249.992 147.676 248.13 146.999C249.122 146.919 250.119 147.011 251.08 147.269C252.069 147.343 253.037 147.59 253.94 147.999Z" fill="#06334D"/>
<path d="M265.34 151.05C264.346 151.023 263.365 150.823 262.44 150.46C261.464 150.252 260.531 149.88 259.68 149.359C260.674 149.394 261.654 149.597 262.58 149.96C263.557 150.156 264.492 150.525 265.34 151.05Z" fill="#06334D"/>
<path d="M273.65 154.199C273.59 154.329 272.93 154.199 272.16 153.869C271.39 153.539 270.82 153.189 270.88 153.049C270.94 152.909 271.59 153.049 272.36 153.379C273.13 153.709 273.71 154.069 273.65 154.199Z" fill="#06334D"/>
<path d="M272.92 166.63C273.169 167.061 273.53 167.416 273.966 167.656C274.402 167.897 274.895 168.013 275.392 167.994C275.89 167.974 276.372 167.819 276.788 167.545C277.203 167.271 277.536 166.889 277.75 166.44L284.42 152.57C286.85 147.11 286.76 144.06 286.76 144.06C286.81 135.66 278.06 130.27 269.04 134.31C267.256 135.074 265.732 136.339 264.65 137.95C261.65 142.58 262.59 148.07 264.79 152.59L272.92 166.63ZM278.47 151.31C271.91 155.07 265.32 148.01 268.94 141.1C269.415 140.184 270.14 139.421 271.03 138.9C277.59 135.14 284.18 142.2 280.55 149.12C280.077 150.028 279.355 150.784 278.47 151.3V151.31Z" fill="#06334D"/>
</svg>
