<svg width="120" height="120" viewBox="0 0 120 120" fill="none" xmlns="http://www.w3.org/2000/svg">
<rect width="120" height="120" rx="8" fill="#E6EEF2"/>
<path d="M105 55.8264H97.5197C92.837 47.8688 85.2677 42.022 76.3853 39.5013C67.503 36.9805 57.9908 37.9799 49.8262 42.2915C41.6617 46.6032 35.4728 53.8954 32.546 62.6524C29.6193 71.4094 30.18 80.9574 34.1114 89.3117C38.0428 97.666 45.0426 104.184 53.6557 107.51C62.2688 110.837 71.8325 110.716 80.3588 107.173C88.8852 103.63 95.7181 96.9378 99.4374 88.4869C103.157 80.0361 103.476 70.4769 100.329 61.7966L105 55.8264Z" fill="#FAFAFA"/>
<path d="M105 55.8264L100.35 61.8317V61.7755C101.688 65.4861 102.4 69.3929 102.457 73.3366C102.457 74.1303 102.401 74.9521 102.373 75.795C102.361 76.6626 102.291 77.5285 102.162 78.3867C102.029 79.2647 101.895 80.1708 101.755 81.0909C101.614 82.011 101.298 82.917 101.053 83.8582C100.989 84.097 100.926 84.3288 100.87 84.5606L100.617 85.263C100.448 85.7336 100.28 86.2042 100.104 86.6677C99.9287 87.1313 99.7742 87.63 99.5565 88.0725C99.3387 88.515 99.114 89.0067 98.8541 89.4772C96.78 93.7918 93.8689 97.6511 90.2901 100.831C86.7114 104.01 82.5363 106.447 78.0076 107.999L77.0734 108.343L76.1041 108.589L74.1515 109.095L73.6598 109.221L73.1541 109.298L72.1497 109.453L70.1128 109.762L68.0408 109.874L66.9943 109.93C66.646 109.959 66.296 109.959 65.9477 109.93L63.8406 109.825L62.773 109.776C62.4218 109.741 62.0706 109.671 61.7194 109.621L59.6123 109.298C59.2535 109.254 58.8989 109.181 58.5517 109.081L57.4981 108.807C56.7958 108.617 56.0934 108.47 55.391 108.238L53.326 107.479C52.9748 107.353 52.6237 107.233 52.2865 107.093L51.2821 106.608L49.2663 105.639C48.6201 105.267 47.9809 104.866 47.3348 104.48L46.3725 103.89C46.0546 103.686 45.7475 103.466 45.4524 103.23L43.6192 101.86C43.0222 101.39 42.4813 100.849 41.9054 100.336C40.7686 99.2926 39.6967 98.1808 38.6955 97.0067C38.1898 96.4167 37.7543 95.7706 37.2908 95.1525L36.5884 94.2113C36.3496 93.9022 36.174 93.551 35.9563 93.2209L34.7341 91.2051C34.3619 90.5027 34.0317 89.8004 33.6876 89.098L33.1748 88.0233C33.0133 87.6651 32.8939 87.2858 32.7534 86.9136C32.4795 86.1691 32.2126 85.4316 31.9387 84.6941C31.6647 83.9566 31.5453 83.1699 31.3416 82.4113L31.0537 81.2805C30.9624 80.9012 30.9272 80.5079 30.857 80.1216C30.7446 79.356 30.6252 78.5904 30.5058 77.8248C30.3864 77.0592 30.4145 76.2796 30.3653 75.514C30.2774 73.9856 30.2985 72.4529 30.4285 70.9275C30.4642 70.1706 30.5534 69.4172 30.6954 68.6729C30.8149 67.9283 30.9062 67.1768 31.0466 66.4393C31.1871 65.7018 31.4189 64.9924 31.6085 64.269L31.8825 63.1873C31.9948 62.8361 32.1353 62.4849 32.2547 62.1408C32.5146 61.4384 32.7675 60.736 33.0203 60.0687C33.2732 59.4015 33.6384 58.7413 33.9404 58.081L34.418 57.0977L34.6569 56.606L34.9378 56.1425L36.0546 54.3022C36.423 53.6908 36.8313 53.1042 37.2767 52.5463L38.548 50.8465L39.9528 49.2943C40.4026 48.7674 40.8859 48.2701 41.3997 47.8052C42.3832 46.8538 43.4272 45.9669 44.5252 45.1503L46.1407 43.9351C46.7096 43.5769 47.2856 43.2328 47.8475 42.8956C52.191 40.2789 57.042 38.6172 62.0776 38.0211C64.393 37.7607 66.7267 37.702 69.0522 37.8455C70.169 37.972 71.2788 38.0352 72.3534 38.2599C72.8872 38.3583 73.4281 38.4215 73.9478 38.5479L75.5001 38.9272C82.3942 40.7374 88.5958 44.5533 93.3194 49.8913C94.9059 51.7115 96.3169 53.6775 97.5336 55.7632L97.4774 55.7281L104.958 55.7913L97.4774 55.8545C96.2356 53.7906 94.8086 51.8441 93.214 50.0388C88.4935 44.7559 82.3155 40.9875 75.4579 39.2082L73.9197 38.8359C73.4 38.7165 72.8662 38.6533 72.3323 38.5549C71.2718 38.3372 70.169 38.274 69.0593 38.1546C66.752 38.0195 64.4373 38.0829 62.1409 38.3442C57.1502 38.9451 52.3447 40.6021 48.0442 43.2047C47.4823 43.5488 46.9133 43.9071 46.3584 44.2372L44.75 45.4453C43.6621 46.2557 42.6296 47.1379 41.6596 48.0862C41.1602 48.5473 40.691 49.04 40.2548 49.5612L38.85 51.0994L37.5928 52.7851C37.1497 53.3367 36.746 53.9187 36.3847 54.527L35.2749 56.3532L34.994 56.8097L34.7622 57.2944L34.2916 58.2707C33.9966 58.9239 33.6384 59.556 33.3785 60.2373C33.1186 60.9186 32.8798 61.607 32.627 62.2953C32.5076 62.6394 32.3671 62.9977 32.2618 63.3278L31.9878 64.3954C31.7982 65.0978 31.6156 65.8001 31.4329 66.5517C31.2503 67.3032 31.2012 68.0196 31.0818 68.7571C30.9455 69.495 30.8587 70.2412 30.8219 70.9907C30.6954 72.4999 30.6743 74.016 30.7587 75.5281C30.8149 76.2866 30.8078 77.0592 30.9062 77.8178C31.0045 78.5764 31.1379 79.3349 31.2503 80.1005C31.3206 80.4798 31.3557 80.8661 31.44 81.2384L31.735 82.3622C31.9316 83.1137 32.1072 83.8723 32.325 84.6168L33.1257 86.8153C33.2661 87.1805 33.3856 87.5598 33.5471 87.918L34.0528 88.9786C34.404 89.6809 34.7552 90.3833 35.0923 91.0857L36.3004 93.0804C36.5111 93.4106 36.6867 93.7828 36.9255 94.0638L37.6279 94.9909C38.0985 95.602 38.534 96.2482 39.0327 96.8311C40.0202 97.9952 41.0806 99.0954 42.2074 100.125C42.7763 100.631 43.3172 101.165 43.9072 101.635L45.7123 102.991C46.0213 103.209 46.3023 103.455 46.6254 103.651L47.5806 104.234C48.2197 104.613 48.8519 105.014 49.4911 105.379L51.4858 106.341L52.4832 106.819C52.8203 106.959 53.1856 107.079 53.5086 107.205L55.5596 107.957C56.262 108.189 56.9643 108.329 57.6667 108.526L58.7133 108.793C59.0556 108.893 59.4056 108.966 59.7598 109.01L61.8669 109.333C62.2181 109.383 62.5693 109.446 62.9135 109.481L63.967 109.537L66.0742 109.642C66.4201 109.671 66.7677 109.671 67.1137 109.642L68.1462 109.593L70.2041 109.481L72.22 109.179L73.2173 109.024L73.716 108.947L74.2077 108.821L76.1392 108.329L77.1015 108.083L78.0286 107.746C82.5079 106.204 86.6378 103.791 90.1806 100.646C93.7234 97.5007 96.6091 93.6859 98.6715 89.4211C98.9033 88.9575 99.128 88.4869 99.3739 88.0163C99.6197 87.5457 99.7321 87.0681 99.9147 86.6116C100.097 86.155 100.259 85.6704 100.434 85.2068C100.519 84.975 100.596 84.7432 100.68 84.5044C100.765 84.2656 100.807 84.0338 100.863 83.8021C101.102 82.8679 101.341 81.9548 101.565 81.0558C101.79 80.1567 101.846 79.2506 101.98 78.3727C102.11 77.5217 102.183 76.6628 102.197 75.802C102.197 74.9591 102.317 74.1444 102.296 73.3507C102.278 71.8513 102.166 70.3546 101.959 68.8695C101.627 66.477 101.055 64.1239 100.252 61.8457V61.8106L105 55.8264Z" fill="#263238"/>
<path d="M34.3198 73.9688L30.1618 85.1506L27.0221 59.865C26.8995 58.2512 27.2175 56.6344 27.9422 55.1872C28.2454 54.5417 28.6225 53.9335 29.066 53.3751C29.6286 52.6808 30.2831 52.0664 31.0116 51.5489C31.1651 51.4781 31.2927 51.3614 31.3769 51.2148C31.461 51.0683 31.4975 50.8992 31.4813 50.731C31.4651 50.5627 31.397 50.4037 31.2864 50.276C31.1758 50.1482 31.0283 50.0579 30.8641 50.0177C30.1618 49.9404 28.153 51.0081 26.6007 53.1363C25.0485 55.2645 24.8729 51.1626 24.7886 49.6736C24.7043 48.1845 24.2126 43.5769 23.735 43.2538C23.0326 42.7762 22.3794 43.4575 22.4988 44.9466C22.6182 46.4356 22.6674 50.9308 21.8807 50.9589C21.0941 50.987 20.764 43.3732 20.764 43.3732C20.764 43.3732 20.9536 41.7297 20.0616 41.7297C18.418 41.7297 19.3592 49.7859 19.4786 50.5445C19.5559 51.0783 18.699 51.1415 18.6498 50.5445C18.6006 49.9475 18.4883 42.9378 16.8096 42.9307C15.5313 42.9307 17.512 49.5541 16.7534 51.0432C15.9948 52.5322 15.7279 45.8737 14.4988 45.8737C14.0422 45.8737 13.7051 45.965 14.3864 49.7789C14.7516 51.8228 16.1002 54.7728 16.4935 58.7693L16.5989 59.8018C16.6761 64.7817 17.3012 83.5492 21.7894 94.9698C22.4214 96.5293 23.4667 97.8868 24.8129 98.8963C26.1591 99.9058 27.7551 100.529 29.4291 100.699C31.1032 100.869 32.7918 100.578 34.3132 99.8599C35.8347 99.1412 37.1313 98.0212 38.0635 96.6204C41.6464 91.2262 44.6126 85.4469 46.9064 79.3911L34.3198 73.9688Z" fill="#EB996E"/>
<path d="M18.966 56.7184C18.966 56.7535 19.2188 56.7184 19.6192 56.887C20.1525 57.0728 20.6013 57.4442 20.8834 57.9335L21.038 58.2145L21.1293 57.9054C21.2542 57.4667 21.459 57.0547 21.7333 56.6903C22.2634 55.9726 22.9978 55.4316 23.8405 55.1381C24.4866 54.9063 24.9291 54.9203 24.9221 54.8712C24.5436 54.7835 24.1475 54.8104 23.7843 54.9484C22.8696 55.1964 22.0668 55.7489 21.5086 56.5147C21.2161 56.904 20.9993 57.3448 20.8694 57.8141H21.1152C20.7911 57.2798 20.2682 56.8958 19.6613 56.7465C19.2258 56.6271 18.9589 56.6903 18.966 56.7184Z" fill="#E07646"/>
<path d="M58.9592 49.203H73.4351C73.4351 49.203 86.5204 53.8527 90.7698 57.1117C95.0192 60.3708 101.551 83.3455 101.551 83.3455L88.48 82.9592L87.4967 102.689C74.1164 112.22 58.0531 111.665 45.628 102.907L44.7079 87.8056H44.7992L29.944 83.0997C29.944 83.0997 38.3093 61.1223 40.8589 56.8729C43.0854 53.1644 56.0162 49.8492 58.9592 49.2381" fill="#06334D"/>
<path d="M74.3201 50.4321C74.3277 50.5162 74.3277 50.6009 74.3201 50.685C74.2923 50.9215 74.2501 51.156 74.1937 51.3874C73.992 52.2673 73.6455 53.1075 73.1682 53.8738C72.4621 55.0154 71.5003 55.9772 70.3587 56.6833C68.9409 57.5419 67.3055 57.9734 65.6486 57.926C63.9917 57.8787 62.3837 57.3545 61.0171 56.4164C59.9157 55.6414 59.0112 54.619 58.3762 53.4313C57.942 52.6388 57.6429 51.7795 57.4912 50.8887C57.4512 50.6561 57.4231 50.4217 57.4069 50.1863C57.3977 50.0999 57.3977 50.0128 57.4069 49.9264C57.4069 49.9264 57.4561 50.2776 57.5895 50.8957C57.7768 51.7626 58.0941 52.5961 58.5307 53.3681C59.1739 54.5145 60.0699 55.4994 61.1506 56.2478C62.4857 57.1466 64.0485 57.6481 65.6573 57.6941C67.2661 57.7401 68.855 57.3287 70.2393 56.5077C71.3681 55.8211 72.3282 54.8898 73.0488 53.7825C73.5255 53.0317 73.8899 52.2154 74.1305 51.3593C74.2499 50.7904 74.2921 50.4251 74.3201 50.4321Z" fill="#263238"/>
<path d="M44.8273 72.7747C44.8975 72.7747 44.9607 76.1461 44.9607 80.2972C44.9607 84.4482 44.9045 87.8126 44.8343 87.8126C44.7641 87.8126 44.7079 84.4482 44.7079 80.2972C44.7079 76.1461 44.75 72.7747 44.8273 72.7747Z" fill="#263238"/>
<path d="M88.3677 69.1013C88.4379 69.1013 88.4941 72.4657 88.5011 76.6167C88.5082 80.7678 88.4449 84.1322 88.3747 84.1322C88.3045 84.1322 88.2483 80.7678 88.2413 76.6167C88.2342 72.4657 88.2975 69.1013 88.3677 69.1013Z" fill="#263238"/>
<path d="M44.8274 72.7747C44.5956 72.3828 44.3982 71.9716 44.2374 71.5456C43.8933 70.773 43.4648 69.6913 43.0293 68.4832C42.5939 67.2751 42.1865 66.1864 41.8845 65.3998C41.6971 64.9854 41.5467 64.5553 41.4349 64.1144C41.6667 64.5064 41.8641 64.9176 42.0249 65.3436C42.3691 66.1162 42.7975 67.1979 43.233 68.406C43.6685 69.614 44.0759 70.7027 44.3779 71.4894C44.5602 71.9058 44.7105 72.3355 44.8274 72.7747Z" fill="#263238"/>
<path d="M44.8837 73.8634C44.0162 73.2163 43.1926 72.5123 42.4183 71.7563C41.5955 71.0606 40.8211 70.3097 40.1005 69.5087C40.97 70.1532 41.7937 70.8573 42.5658 71.6158C43.3906 72.3093 44.1651 73.0604 44.8837 73.8634Z" fill="#263238"/>
<path d="M89.2106 63.5455C89.1688 64.5426 89.0562 65.5355 88.8734 66.5166C88.7584 67.5066 88.5754 68.4876 88.3256 69.4525C88.3591 68.4551 88.4695 67.4618 88.6557 66.4814C88.7659 65.4901 88.9514 64.5087 89.2106 63.5455Z" fill="#263238"/>
<g opacity="0.3">
<path d="M44.6096 87.6722C42.9647 84.7074 41.9014 81.4556 41.477 78.0917C41.0578 74.7157 41.6571 71.2915 43.1978 68.2585L44.8835 73.5614L44.6096 87.6722Z" fill="black"/>
</g>
<path d="M86.1483 54.4497C86.1483 54.4497 86.0148 54.5832 85.7479 54.815L84.5609 55.8334L80.1851 59.556L65.6529 71.7774L65.5827 71.8406L65.5125 71.7774L65.2737 71.5807L50.6361 59.1557L46.2112 55.3698L45.0171 54.3303C44.7432 54.0915 44.6097 53.9581 44.6097 53.9581C44.6097 53.9581 44.7643 54.0704 45.0452 54.3022C45.3262 54.534 45.7476 54.8852 46.2674 55.3066L50.7345 59.0362L65.4141 71.4121L65.6529 71.6158H65.5125L80.0868 59.4436L84.5118 55.7772L85.7198 54.7869L86.1483 54.4497Z" fill="#FAFAFA"/>
<path d="M89.2107 56.1565C89.2107 56.1565 89.0561 56.304 88.7471 56.5709L87.3985 57.7299L82.3976 61.9441L65.8215 75.9003L65.7513 75.9635L65.681 75.9003L65.4492 75.7037L48.7748 61.5648L43.7458 57.2593C43.1699 56.7676 42.7133 56.3743 42.3832 56.0793C42.0531 55.7843 41.9126 55.6578 41.9126 55.6578C41.9126 55.6578 42.0882 55.7843 42.4113 56.0512L43.816 57.196L48.9013 61.4454L65.6108 75.5351L65.8426 75.7388H65.7021L82.3133 61.8598L87.3564 57.6456L88.7611 56.5147C89.0351 56.283 89.2107 56.1565 89.2107 56.1565Z" fill="#FAFAFA"/>
<path d="M89.2105 85.9724C89.2105 85.9724 89.063 86.1129 88.775 86.3657L87.5037 87.4544L82.8048 91.4439L67.2261 104.564L67.1558 104.621L67.0856 104.564L66.8608 104.375L51.1768 91.0295L46.4357 86.9768L45.1434 85.9092C44.8554 85.6563 44.7079 85.5088 44.7079 85.5088C44.7079 85.5088 44.8694 85.6282 45.1715 85.8741L46.4779 86.9557L51.2611 90.9522L66.9873 104.213L67.212 104.403H67.0716L82.6784 91.3245L87.4194 87.3912L88.7188 86.3306C89.0419 86.0918 89.2105 85.9724 89.2105 85.9724Z" fill="#FAFAFA"/>
<path d="M89.597 89.7231C89.597 89.7231 89.4494 89.8636 89.1615 90.1164L87.8902 91.2051L83.1913 95.1946L67.5985 108.315L67.5283 108.371L67.458 108.315L67.2333 108.125L51.5492 94.8153L46.8082 90.7626L45.5298 89.6528C45.2419 89.4 45.0944 89.2525 45.0944 89.2525C45.0944 89.2525 45.2559 89.3719 45.5579 89.6177L46.8643 90.6994L51.6475 94.6959L67.3738 107.957L67.5985 108.146H67.458L83.0929 95.0752L87.834 91.1419L89.1334 90.0813C89.4284 89.8425 89.597 89.7231 89.597 89.7231Z" fill="#FAFAFA"/>
<path d="M69.5301 61.4594H59.8934C58.5823 61.4594 57.5194 62.5223 57.5194 63.8335V82.3833C57.5194 83.6944 58.5823 84.7573 59.8934 84.7573H69.5301C70.8412 84.7573 71.9041 83.6944 71.9041 82.3833V63.8335C71.9041 62.5223 70.8412 61.4594 69.5301 61.4594Z" fill="#455A64"/>
<path d="M100.505 83.3174C100.631 84.083 102.717 96.1147 102.331 98.5168C101.945 100.919 101.32 104.087 98.5381 105.232C95.7567 106.376 91.697 104.852 89.4072 100.926C87.1175 96.9997 77.2491 83.198 77.2491 83.198L69.9022 82.313V70.0284L83.9498 78.9767L89.7022 84.1532L89.6109 83.0013L100.505 83.3174Z" fill="#EB996E"/>
<path d="M83.381 78.6606C83.4301 78.6115 86.4855 81.2524 90.2081 84.5606C93.9307 87.8688 96.9087 90.594 96.8596 90.6502C96.8104 90.7064 93.7621 88.0585 90.0395 84.7503C86.3169 81.4421 83.3107 78.7168 83.381 78.6606Z" fill="#E07646"/>
<path d="M60.3007 74.4042L69.9162 70.0284L71.3842 73.8985L69.9162 82.327L67.7459 80.0654C67.5203 79.829 67.3567 79.5405 67.2697 79.2255C67.1827 78.9106 67.175 78.5789 67.2472 78.2603L67.479 77.2348C67.479 77.2348 62.5623 78.4289 61.7476 78.6396C60.7362 78.8924 60.5816 77.572 61.3542 77.0944C62.457 76.392 68.378 74.0249 68.378 74.0249L60.9047 76.0759C60.6803 76.1389 60.44 76.1108 60.2362 75.9977C60.0324 75.8846 59.8814 75.6956 59.816 75.4719C59.7572 75.2653 59.7736 75.0446 59.8624 74.8491C59.9512 74.6536 60.1065 74.4959 60.3007 74.4042Z" fill="#EB996E"/>
<path d="M71.9041 69.2277L74.0112 71.089L75.1771 74.7484L71.9041 73.161V69.2277Z" fill="#EB996E"/>
<path d="M65.7439 65.7088C65.7439 65.8908 65.6899 66.0687 65.5888 66.22C65.4877 66.3713 65.344 66.4893 65.1759 66.5589C65.0078 66.6285 64.8228 66.6468 64.6443 66.6113C64.4658 66.5758 64.3019 66.4881 64.1732 66.3594C64.0445 66.2308 63.9569 66.0668 63.9214 65.8883C63.8859 65.7098 63.9041 65.5248 63.9737 65.3567C64.0434 65.1886 64.1613 65.0449 64.3126 64.9438C64.4639 64.8427 64.6418 64.7887 64.8238 64.7887C65.0678 64.7887 65.3019 64.8856 65.4744 65.0582C65.647 65.2308 65.7439 65.4648 65.7439 65.7088Z" fill="#FAFAFA"/>
<path d="M64.8241 66.643C64.6397 66.6416 64.4597 66.5856 64.307 66.4821C64.1544 66.3787 64.0357 66.2323 63.9661 66.0615C63.8965 65.8906 63.879 65.7031 63.9158 65.5223C63.9526 65.3416 64.0421 65.1758 64.1731 65.0458C64.304 64.9159 64.4704 64.8276 64.6515 64.7921C64.8325 64.7567 65.0199 64.7756 65.1902 64.8465C65.3605 64.9174 65.506 65.0371 65.6083 65.1906C65.7107 65.344 65.7653 65.5244 65.7653 65.7088C65.7634 65.9572 65.6635 66.1948 65.4872 66.3698C65.3108 66.5448 65.0725 66.643 64.8241 66.643ZM64.8241 64.8098C64.6466 64.8112 64.4735 64.8651 64.3266 64.9647C64.1796 65.0643 64.0655 65.2052 63.9985 65.3696C63.9316 65.534 63.9148 65.7145 63.9502 65.8885C63.9857 66.0624 64.0719 66.2219 64.1979 66.347C64.3239 66.472 64.4841 66.5569 64.6583 66.5911C64.8325 66.6252 65.0129 66.607 65.1768 66.5387C65.3407 66.4705 65.4806 66.3552 65.5791 66.2076C65.6776 66.0599 65.7302 65.8863 65.7302 65.7088C65.7228 65.4741 65.6239 65.2515 65.4546 65.0887C65.2853 64.926 65.059 64.8359 64.8241 64.8379V64.8098Z" fill="#263238"/>
<path d="M66.6291 56.3672C68.4812 56.2574 70.2202 55.4403 71.4869 54.0847C72.7536 52.7292 73.451 50.9388 73.4352 49.0836C73.4352 46.7728 73.386 44.785 73.386 44.785C73.386 44.785 79.2579 43.8719 79.3281 38.0071C79.3983 32.1422 78.3799 18.6636 78.3799 18.6636C75.045 17.2284 71.3871 16.7105 67.7849 17.1637C64.1826 17.6169 60.767 19.0247 57.8916 21.2414L57.0206 21.9086L59.0013 49.6665C59.1366 51.5619 60.0129 53.3277 61.4405 54.5818C62.8681 55.8359 64.7321 56.4773 66.6291 56.3672Z" fill="#EB996E"/>
<path d="M73.393 44.7007C70.6846 44.7521 68.022 43.9966 65.7441 42.5304C65.7441 42.5304 67.5563 46.7447 73.4071 46.2249L73.393 44.7007Z" fill="#E07646"/>
<path d="M57.744 27.9841C57.6457 27.942 53.7124 26.7971 53.8388 30.7937C53.9652 34.7902 57.9688 33.849 57.9688 33.7296C57.9688 33.6102 57.744 27.9841 57.744 27.9841Z" fill="#EB996E"/>
<path d="M56.6906 32.2687C56.6906 32.2687 56.6204 32.3178 56.508 32.374C56.3391 32.4424 56.1502 32.4424 55.9812 32.374C55.7166 32.2188 55.4982 31.9957 55.3488 31.7277C55.1993 31.4597 55.1243 31.1566 55.1314 30.8498C55.1127 30.5044 55.1703 30.1592 55.2999 29.8384C55.3329 29.7127 55.3963 29.597 55.4845 29.5014C55.5726 29.4059 55.6829 29.3335 55.8056 29.2906C55.8853 29.2663 55.971 29.2705 56.048 29.3026C56.1249 29.3346 56.1882 29.3925 56.2271 29.4662C56.2833 29.5786 56.2622 29.6558 56.2833 29.6628C56.3043 29.6699 56.3675 29.5926 56.3254 29.4311C56.3012 29.3331 56.2442 29.2463 56.1639 29.1852C56.1075 29.1449 56.0438 29.116 55.9763 29.1004C55.9088 29.0847 55.8389 29.0825 55.7705 29.0939C55.6079 29.1325 55.458 29.2122 55.335 29.3253C55.212 29.4385 55.1201 29.5813 55.0681 29.7401C54.9087 30.0922 54.8387 30.4782 54.8645 30.8639C54.8548 31.2219 54.9518 31.5746 55.1432 31.8773C55.3345 32.18 55.6116 32.4189 55.9391 32.5636C56.0472 32.5908 56.1601 32.5935 56.2694 32.5717C56.3787 32.5498 56.4818 32.5039 56.5712 32.4372C56.6906 32.36 56.6906 32.2757 56.6906 32.2687Z" fill="#E07646"/>
<path d="M76.4624 27.4082C76.4626 27.6276 76.3779 27.8387 76.226 27.9971C76.0742 28.1555 75.8669 28.249 75.6477 28.2581C75.4326 28.2716 75.221 28.1993 75.0591 28.0572C74.8972 27.915 74.7982 27.7145 74.7837 27.4995C74.7818 27.2814 74.8652 27.0712 75.0161 26.9137C75.167 26.7562 75.3735 26.664 75.5915 26.6567C75.6982 26.6481 75.8055 26.6607 75.9072 26.694C76.009 26.7272 76.1031 26.7803 76.1841 26.8502C76.2652 26.9202 76.3315 27.0055 76.3793 27.1013C76.4271 27.1971 76.4553 27.3014 76.4624 27.4082Z" fill="#263238"/>
<path d="M77.2702 26.9095C77.1719 27.0219 76.5327 26.5513 75.6337 26.5513C74.7347 26.5513 74.0674 27.0079 73.9691 26.8955C73.8707 26.7831 74.0323 26.6496 74.3203 26.4389C74.7084 26.166 75.1733 26.0233 75.6477 26.0316C76.117 26.029 76.5748 26.1767 76.9542 26.453C77.2281 26.6707 77.3264 26.8674 77.2702 26.9095Z" fill="#263238"/>
<path d="M67.5914 27.6891C67.5952 27.9085 67.5126 28.1205 67.3615 28.2795C67.2104 28.4385 67.0029 28.5317 66.7836 28.539C66.5686 28.5525 66.357 28.4803 66.1951 28.3381C66.0332 28.1959 65.9341 27.9954 65.9197 27.7805C65.9178 27.5624 66.0011 27.3521 66.152 27.1947C66.303 27.0372 66.5094 26.9449 66.7274 26.9376C66.834 26.928 66.9413 26.94 67.0431 26.973C67.1448 27.0059 67.2389 27.0591 67.3196 27.1293C67.4002 27.1995 67.4659 27.2853 67.5126 27.3815C67.5593 27.4777 67.5861 27.5823 67.5914 27.6891Z" fill="#263238"/>
<path d="M68.4061 27.0851C68.3008 27.1975 67.6686 26.7269 66.7696 26.7269C65.8705 26.7269 65.2033 27.1835 65.1049 27.0711C65.0066 26.9587 65.1611 26.8252 65.4491 26.6145C65.8405 26.3428 66.3072 26.2003 66.7836 26.2071C67.2529 26.2046 67.7107 26.3523 68.09 26.6286C68.364 26.8393 68.4553 27.0359 68.4061 27.0851Z" fill="#263238"/>
<path d="M71.6792 33.7717C72.156 33.6251 72.649 33.5378 73.1471 33.5119C73.3789 33.5119 73.5967 33.4416 73.6318 33.2801C73.6566 33.0355 73.6024 32.7893 73.4773 32.5777L72.7749 30.8288C72.1442 29.3435 71.6345 27.8096 71.2507 26.2422C72.0001 27.673 72.632 29.1623 73.1401 30.6953C73.3719 31.3064 73.5897 31.8964 73.7933 32.4583C73.9411 32.7335 73.9835 33.0531 73.9127 33.3573C73.8804 33.4393 73.8292 33.5126 73.7633 33.5712C73.6974 33.6297 73.6187 33.672 73.5335 33.6945C73.4079 33.7311 73.2779 33.75 73.1471 33.7507C72.6609 33.8225 72.1673 33.8296 71.6792 33.7717Z" fill="#263238"/>
<path d="M69.0243 34.3969C69.1718 34.3969 69.1718 35.3662 70.0147 36.0615C70.8575 36.7569 71.89 36.6515 71.9041 36.7639C71.9181 36.8763 71.6653 36.9535 71.2017 36.9676C70.6272 36.9747 70.0682 36.7809 69.6213 36.4197C69.194 36.0691 68.9216 35.5646 68.8628 35.015C68.8487 34.6357 68.9611 34.3899 69.0243 34.3969Z" fill="#263238"/>
<path d="M68.6311 23.5522C68.5468 23.798 67.6478 23.6786 66.5872 23.805C65.5266 23.9314 64.6697 24.2264 64.5292 24.0017C64.473 23.8963 64.6205 23.6716 64.9647 23.4328C65.4252 23.1414 65.9461 22.959 66.4877 22.8994C67.0293 22.8398 67.5774 22.9045 68.0903 23.0886C68.4836 23.2431 68.6803 23.4328 68.6311 23.5522Z" fill="#263238"/>
<path d="M76.9399 24.3107C76.7853 24.5144 76.1602 24.3107 75.4157 24.3107C74.6712 24.3107 74.011 24.4512 73.8916 24.2335C73.8213 24.1281 73.8915 23.9244 74.2006 23.7277C74.5705 23.4908 75.0051 23.3754 75.4438 23.3976C75.8813 23.404 76.306 23.5463 76.6589 23.805C76.9258 23.9946 77.0101 24.2054 76.9399 24.3107Z" fill="#263238"/>
<path d="M81.2736 14.9691C81.3122 14.6059 81.2592 14.2388 81.1193 13.9013C80.9794 13.5639 80.7572 13.2669 80.4729 13.0376C80.1768 12.8217 79.8138 12.718 79.4484 12.7451C79.083 12.7721 78.7391 12.928 78.4781 13.1851C78.5329 12.94 78.5358 12.6861 78.4865 12.4399C78.4372 12.1936 78.3368 11.9604 78.1919 11.7552C78.047 11.5501 77.8607 11.3776 77.6451 11.2489C77.4295 11.1201 77.1892 11.038 76.9399 11.0077C75.9776 10.9515 75.1629 11.7101 74.2428 11.9279C73.3171 12.1185 72.3547 12.0077 71.4965 11.6118C70.6326 11.2606 69.8178 10.776 68.9398 10.4529C67.081 9.77661 65.0305 9.86044 63.2331 10.6862C61.4357 11.5119 60.0362 13.013 59.3383 14.8638C58.6867 14.7068 58.0028 14.7502 57.3762 14.9883C56.7496 15.2265 56.2094 15.6482 55.8265 16.1983C55.0822 17.3341 54.7845 18.7051 54.9906 20.0473C55.1256 20.9488 55.3612 21.8323 55.693 22.6812C55.693 22.7585 55.693 22.8357 55.693 22.906C55.7562 26.1369 56.1215 29.9298 57.4981 29.9298C59.8932 29.9719 59.3243 25.4486 59.3243 25.4486C62.2673 24.3108 61.1715 19.8998 61.909 19.2326C62.6465 18.5653 64.1847 17.006 70.3376 20.1527C72.6298 21.1828 75.1894 21.4606 77.6493 20.9464H77.8038H77.853C78.4135 20.7969 78.9468 20.5599 79.4333 20.244C80.0129 19.9145 80.4709 19.4072 80.7398 18.7971C80.8679 18.4907 80.9043 18.1536 80.8444 17.8269C80.7846 17.5002 80.6311 17.1979 80.4026 16.9569C80.8832 16.395 81.1863 15.7033 81.2736 14.9691Z" fill="#263238"/>
<path d="M55.6509 22.2457C55.6509 22.2457 55.9248 22.4986 56.4235 22.8077C57.0668 23.2164 57.8202 23.4174 58.5816 23.3835C59.343 23.3496 60.0755 23.0824 60.6799 22.618C61.1505 22.2739 61.3823 21.9648 61.3823 21.9929C61.2409 22.2903 61.0287 22.5484 60.7642 22.7444C60.1494 23.2647 59.3793 23.5662 58.5747 23.6018C57.7701 23.6374 56.9765 23.405 56.3181 22.9411C56.045 22.764 55.8166 22.526 55.6509 22.2457Z" fill="#FAFAFA"/>
<path d="M61.0523 20.3423C60.8379 20.5946 60.5721 20.7981 60.2727 20.9393C59.5673 21.3129 58.784 21.5152 57.986 21.5298C57.188 21.5444 56.3977 21.371 55.6791 21.0236C55.3781 20.8904 55.1061 20.6995 54.8784 20.4617C54.8784 20.4266 55.2015 20.6443 55.7494 20.8832C56.4566 21.18 57.218 21.3258 57.9848 21.3113C58.7516 21.2968 59.507 21.1222 60.2024 20.7989C60.7362 20.546 61.0312 20.3142 61.0523 20.3423Z" fill="#FAFAFA"/>
</svg>
