<svg width="120" height="120" viewBox="0 0 120 120" fill="none" xmlns="http://www.w3.org/2000/svg">
<rect width="120" height="120" rx="8" fill="#E6EEF2"/>
<path d="M20.0615 41.9797C20.1918 41.9797 20.2751 42.0333 20.3428 42.1301C20.4187 42.2389 20.4705 42.4006 20.5 42.59C20.5289 42.7755 20.5329 42.965 20.5293 43.1105C20.5275 43.1824 20.5246 43.2421 20.5215 43.2834C20.5199 43.3039 20.5176 43.3198 20.5166 43.3303C20.5161 43.3355 20.5159 43.3396 20.5156 43.342C20.5155 43.3432 20.5157 43.3445 20.5156 43.3449L20.5137 43.3645L20.5146 43.384V43.3898C20.5148 43.3936 20.5153 43.3992 20.5156 43.4064C20.5163 43.421 20.5172 43.443 20.5186 43.4709C20.5212 43.527 20.525 43.609 20.5303 43.7131C20.5409 43.9219 20.5565 44.2199 20.5781 44.5773C20.6215 45.2923 20.6875 46.2466 20.7783 47.2004C20.8689 48.1522 20.9848 49.1115 21.1289 49.8342C21.2005 50.1934 21.2824 50.5074 21.376 50.7355C21.4222 50.8482 21.4771 50.9563 21.5469 51.0393C21.615 51.1202 21.7297 51.2149 21.8896 51.2092C22.1206 51.2009 22.2676 51.0295 22.3545 50.8781C22.4462 50.7183 22.5152 50.5067 22.5693 50.2736C22.6785 49.8035 22.7435 49.1748 22.7793 48.5139C22.851 47.1891 22.8086 45.6822 22.748 44.927C22.6906 44.2101 22.8253 43.7436 23.0039 43.5188C23.0891 43.4118 23.1779 43.3661 23.2598 43.3557C23.3435 43.3451 23.4565 43.3662 23.5947 43.4602V43.4611C23.5778 43.4497 23.5853 43.4474 23.6084 43.4875C23.6288 43.5229 23.6527 43.5761 23.6797 43.6486C23.7335 43.7936 23.7895 43.9937 23.8457 44.2395C23.9579 44.7297 24.0659 45.3743 24.1621 46.0607C24.3544 47.4334 24.4974 48.951 24.5391 49.6877C24.5806 50.4211 24.6459 51.8496 24.9023 52.8254C24.967 53.0713 25.0469 53.3007 25.1475 53.4875C25.2457 53.6698 25.3805 53.8426 25.5703 53.9299C25.7777 54.0251 25.9989 53.9957 26.2061 53.8762C26.4033 53.7622 26.6002 53.5611 26.8027 53.2834C27.5608 52.2442 28.4292 51.4657 29.1895 50.9582C29.5698 50.7044 29.9204 50.5202 30.2119 50.4055C30.4969 50.2934 30.7017 50.2583 30.8193 50.2658C30.9271 50.2954 31.0244 50.355 31.0977 50.4397C31.1742 50.5282 31.2212 50.6386 31.2324 50.7551C31.2436 50.8715 31.2184 50.9886 31.1602 51.09C31.1019 51.1915 31.0134 51.2724 30.9072 51.3215L30.8857 51.3313L30.8672 51.3449C30.1202 51.8756 29.4489 52.506 28.8721 53.218L28.8701 53.2199C28.4159 53.7918 28.0296 54.4145 27.7188 55.0754C26.9738 56.563 26.6464 58.225 26.7725 59.884L26.7744 59.8957L29.9141 85.1818L30.3965 85.2375L34.4619 74.302L46.5859 79.5246C44.3106 85.4818 41.3839 91.1693 37.8555 96.4816C36.9485 97.8446 35.6864 98.9348 34.2061 99.634C32.7258 100.333 31.0827 100.616 29.4541 100.45C27.8254 100.285 26.2726 99.6786 24.9629 98.6965C23.735 97.7757 22.7638 96.5573 22.1406 95.1584L22.0215 94.8762C19.7905 89.1981 18.5153 81.6791 17.7891 74.9436C17.0632 68.212 16.8872 62.2835 16.8486 59.798V59.7873L16.8477 59.7766L16.7422 58.7443C16.5434 56.7248 16.1037 54.9719 15.6699 53.4729C15.2324 51.961 14.8124 50.7394 14.6328 49.7346C14.2911 47.8218 14.2132 46.8815 14.2646 46.424C14.2901 46.1977 14.3411 46.1489 14.3486 46.1428C14.3575 46.1356 14.3791 46.1232 14.499 46.1232C14.5293 46.1234 14.6024 46.1444 14.7129 46.301C14.8193 46.4517 14.9251 46.68 15.0273 46.9729C15.2309 47.5561 15.3993 48.326 15.5576 49.0686C15.7129 49.7972 15.8601 50.5137 16.0186 50.9494C16.0588 51.0601 16.1037 51.1627 16.1543 51.2473C16.2008 51.3251 16.2723 51.4217 16.3809 51.4738C16.4406 51.5026 16.5104 51.517 16.585 51.507C16.6577 51.4972 16.7186 51.466 16.7666 51.4299C16.8563 51.3624 16.9235 51.2605 16.9766 51.1564C17.0946 50.9245 17.1493 50.6174 17.1709 50.2834C17.1929 49.9439 17.1812 49.5504 17.1514 49.1301C17.0917 48.2904 16.9536 47.3126 16.834 46.3967C16.7132 45.4719 16.6124 44.615 16.6182 43.9914C16.6211 43.6763 16.6516 43.4481 16.7051 43.3068C16.7311 43.2382 16.7567 43.2065 16.7715 43.1936C16.7809 43.1854 16.7892 43.181 16.8086 43.1809C16.9208 43.1814 17.0428 43.2373 17.1777 43.3967C17.3147 43.5585 17.4454 43.8048 17.5645 44.1262C17.8019 44.7669 17.9714 45.6402 18.0928 46.549C18.3361 48.3714 18.3735 50.2376 18.4004 50.5647C18.418 50.7779 18.5114 50.9506 18.6533 51.0656C18.7912 51.1773 18.9618 51.2239 19.1211 51.218C19.2793 51.212 19.4453 51.1531 19.5674 51.0285C19.6954 50.8978 19.7553 50.7145 19.7256 50.509V50.5061L19.6504 49.9172C19.5495 49.0466 19.3928 47.4196 19.3594 45.8469C19.3371 44.7967 19.3696 43.7864 19.5059 43.0451C19.5744 42.6724 19.6654 42.3884 19.7744 42.2043C19.8818 42.0231 19.9792 41.9797 20.0615 41.9797Z" stroke="#263238" stroke-width="0.5"/>
<mask id="path-3-inside-1_57_1140" fill="white">
<path d="M58.9592 49.203H73.4351C73.4351 49.203 86.5204 53.8527 90.7698 57.1117C95.0192 60.3708 101.551 83.3455 101.551 83.3455L88.48 82.9592L87.4967 102.689C74.1164 112.22 58.0531 111.665 45.628 102.907L44.7079 87.8056H44.7992L29.944 83.0997C29.944 83.0997 38.3093 61.1223 40.8589 56.8729C43.0854 53.1644 56.0162 49.8492 58.9592 49.2381"/>
</mask>
<path d="M58.9592 49.203H73.4351C73.4351 49.203 86.5204 53.8527 90.7698 57.1117C95.0192 60.3708 101.551 83.3455 101.551 83.3455L88.48 82.9592L87.4967 102.689C74.1164 112.22 58.0531 111.665 45.628 102.907L44.7079 87.8056H44.7992L29.944 83.0997C29.944 83.0997 38.3093 61.1223 40.8589 56.8729C43.0854 53.1644 56.0162 49.8492 58.9592 49.2381" fill="#E6EEF2"/>
<path d="M73.4351 49.203L73.6026 48.7318L73.5213 48.703H73.4351V49.203ZM101.551 83.3455L101.537 83.8453L102.219 83.8655L102.032 83.2088L101.551 83.3455ZM88.48 82.9592L88.4948 82.4594L88.0051 82.4449L87.9807 82.9343L88.48 82.9592ZM87.4967 102.689L87.7868 103.096L87.984 102.956L87.9961 102.714L87.4967 102.689ZM45.628 102.907L45.129 102.937L45.1436 103.177L45.34 103.315L45.628 102.907ZM44.7079 87.8056V87.3056H44.1765L44.2089 87.836L44.7079 87.8056ZM44.7992 87.8056V88.3056L44.9502 87.329L44.7992 87.8056ZM29.944 83.0997L29.4767 82.9218L29.2884 83.4165L29.793 83.5763L29.944 83.0997ZM40.8589 56.8729L40.4302 56.6156L40.4302 56.6157L40.8589 56.8729ZM58.9592 49.703H73.4351V48.703H58.9592V49.703ZM73.4351 49.203C73.2677 49.6741 73.2677 49.6741 73.2678 49.6741C73.2679 49.6742 73.268 49.6742 73.2682 49.6743C73.2686 49.6744 73.2691 49.6746 73.2699 49.6749C73.2714 49.6754 73.2737 49.6762 73.2768 49.6773C73.2829 49.6795 73.2922 49.6828 73.3045 49.6872C73.3291 49.696 73.3658 49.7092 73.4139 49.7265C73.5101 49.7611 73.6521 49.8124 73.8344 49.8789C74.1991 50.0119 74.7252 50.2056 75.3699 50.4484C76.6597 50.9339 78.4231 51.615 80.3181 52.3974C84.1324 53.9721 88.4023 55.9261 90.4655 57.5085L91.0741 56.715C88.8879 55.0383 84.4905 53.038 80.6997 51.4731C78.7923 50.6856 77.0188 50.0006 75.7223 49.5125C75.0739 49.2684 74.5445 49.0734 74.177 48.9394C73.9932 48.8724 73.8499 48.8206 73.7524 48.7855C73.7036 48.768 73.6663 48.7546 73.6411 48.7456C73.6285 48.7411 73.6189 48.7377 73.6125 48.7354C73.6093 48.7342 73.6068 48.7334 73.6052 48.7328C73.6043 48.7325 73.6037 48.7322 73.6033 48.7321C73.603 48.732 73.6029 48.7319 73.6028 48.7319C73.6026 48.7319 73.6026 48.7318 73.4351 49.203ZM90.4655 57.5085C90.9235 57.8598 91.452 58.5127 92.0286 59.4389C92.5991 60.3552 93.1932 61.4999 93.7934 62.7958C94.9937 65.387 96.2025 68.5474 97.2824 71.6167C98.3616 74.6841 99.3088 77.6511 99.9864 79.8519C100.325 80.9521 100.596 81.8603 100.783 82.4932C100.876 82.8097 100.948 83.0573 100.997 83.2256C101.021 83.3097 101.039 83.3741 101.052 83.4173C101.058 83.4389 101.063 83.4552 101.066 83.4661C101.067 83.4715 101.068 83.4756 101.069 83.4783C101.07 83.4797 101.07 83.4807 101.07 83.4813C101.07 83.4817 101.07 83.4819 101.07 83.4821C101.07 83.4822 101.07 83.4823 101.551 83.3455C102.032 83.2088 102.032 83.2087 102.032 83.2085C102.032 83.2083 102.032 83.208 102.032 83.2076C102.032 83.2069 102.031 83.2058 102.031 83.2043C102.03 83.2015 102.029 83.1972 102.027 83.1916C102.024 83.1804 102.019 83.1637 102.013 83.1417C102 83.0978 101.982 83.0327 101.957 82.9478C101.908 82.778 101.836 82.5288 101.742 82.2107C101.555 81.5744 101.282 80.6623 100.942 79.5577C100.262 77.3489 99.3107 74.3685 98.2257 71.2848C97.1414 68.2031 95.9205 65.0087 94.7008 62.3755C94.0911 61.0593 93.4777 59.8744 92.8776 58.9104C92.2836 57.9564 91.6784 57.1785 91.0741 56.715L90.4655 57.5085ZM101.566 82.8457L88.4948 82.4594L88.4653 83.459L101.537 83.8453L101.566 82.8457ZM87.9807 82.9343L86.9973 102.664L87.9961 102.714L88.9794 82.9841L87.9807 82.9343ZM87.2066 102.282C74.0047 111.686 58.1732 111.138 45.9161 102.498L45.34 103.315C57.9329 112.192 74.2282 112.755 87.7868 103.096L87.2066 102.282ZM46.1271 102.876L45.207 87.7752L44.2089 87.836L45.129 102.937L46.1271 102.876ZM44.7079 88.3056H44.7992V87.3056H44.7079V88.3056ZM44.9502 87.329L30.095 82.623L29.793 83.5763L44.6482 88.2823L44.9502 87.329ZM29.944 83.0997C30.4113 83.2775 30.4113 83.2775 30.4114 83.2773C30.4114 83.2771 30.4115 83.2769 30.4116 83.2766C30.4119 83.2759 30.4123 83.2749 30.4128 83.2736C30.4138 83.271 30.4153 83.267 30.4173 83.2617C30.4213 83.2512 30.4273 83.2355 30.4352 83.2147C30.4511 83.173 30.4747 83.1112 30.5056 83.0303C30.5674 82.8685 30.6585 82.6305 30.7752 82.3261C31.0088 81.7173 31.3453 80.8428 31.7571 79.78C32.5808 77.6543 33.7054 74.7761 34.9096 71.7655C36.1139 68.7544 37.3968 65.6134 38.5372 62.9611C39.6826 60.297 40.6706 58.1586 41.2877 57.1302L40.4302 56.6157C39.7724 57.712 38.7587 59.9142 37.6185 62.5661C36.4733 65.2297 35.1868 68.3797 33.9811 71.3941C32.7752 74.4091 31.6492 77.2908 30.8247 79.4187C30.4124 80.4826 30.0755 81.3583 29.8416 81.968C29.7246 82.2728 29.6334 82.5112 29.5715 82.6734C29.5405 82.7545 29.5168 82.8166 29.5009 82.8584C29.4929 82.8793 29.4868 82.8951 29.4828 82.9057C29.4808 82.911 29.4793 82.9151 29.4782 82.9177C29.4777 82.9191 29.4773 82.9201 29.4771 82.9208C29.4769 82.9211 29.4768 82.9214 29.4768 82.9215C29.4767 82.9217 29.4767 82.9218 29.944 83.0997ZM41.2876 57.1303C41.7691 56.3283 42.8864 55.4791 44.4487 54.6421C45.9885 53.8172 47.879 53.0457 49.8068 52.3655C53.6616 51.0052 57.608 50.0293 59.0608 49.7277L58.8575 48.7485C57.3673 49.058 53.3769 50.0452 49.474 51.4225C47.5228 52.111 45.5793 52.9019 43.9764 53.7606C42.3959 54.6074 41.062 55.5633 40.4302 56.6156L41.2876 57.1303Z" fill="#06334D" mask="url(#path-3-inside-1_57_1140)"/>
<path d="M74.3201 50.4321C74.3277 50.5162 74.3277 50.6009 74.3201 50.685C74.2923 50.9215 74.2501 51.156 74.1937 51.3874C73.992 52.2673 73.6455 53.1075 73.1682 53.8738C72.4621 55.0154 71.5003 55.9772 70.3587 56.6833C68.9409 57.5419 67.3055 57.9734 65.6486 57.926C63.9917 57.8787 62.3837 57.3545 61.0171 56.4164C59.9157 55.6414 59.0112 54.619 58.3762 53.4313C57.942 52.6388 57.6429 51.7795 57.4912 50.8887C57.4512 50.6561 57.4231 50.4217 57.4069 50.1863C57.3977 50.0999 57.3977 50.0128 57.4069 49.9264C57.4069 49.9264 57.4561 50.2776 57.5895 50.8957C57.7768 51.7626 58.0941 52.5961 58.5307 53.3681C59.1739 54.5145 60.0699 55.4994 61.1506 56.2478C62.4857 57.1466 64.0485 57.6481 65.6573 57.6941C67.2661 57.7401 68.855 57.3287 70.2393 56.5077C71.3681 55.8211 72.3282 54.8898 73.0488 53.7825C73.5255 53.0317 73.8899 52.2154 74.1305 51.3593C74.2499 50.7904 74.2921 50.4251 74.3201 50.4321Z" fill="#263238"/>
<path d="M44.8273 72.7747C44.8975 72.7747 44.9607 76.1461 44.9607 80.2972C44.9607 84.4482 44.9045 87.8126 44.8343 87.8126C44.7641 87.8126 44.7079 84.4482 44.7079 80.2972C44.7079 76.1461 44.75 72.7747 44.8273 72.7747Z" fill="#263238"/>
<path d="M88.3677 69.1013C88.4379 69.1013 88.4941 72.4657 88.5011 76.6167C88.5082 80.7678 88.4449 84.1322 88.3747 84.1322C88.3045 84.1322 88.2483 80.7678 88.2413 76.6167C88.2342 72.4657 88.2975 69.1013 88.3677 69.1013Z" fill="#263238"/>
<path d="M44.8274 72.7748C44.5956 72.3828 44.3982 71.9716 44.2374 71.5456C43.8933 70.773 43.4648 69.6913 43.0293 68.4832C42.5939 67.2752 42.1865 66.1865 41.8845 65.3998C41.6971 64.9854 41.5467 64.5553 41.4349 64.1145C41.6667 64.5064 41.8641 64.9176 42.0249 65.3436C42.3691 66.1162 42.7975 67.1979 43.233 68.406C43.6685 69.6141 44.0759 70.7027 44.3779 71.4894C44.5602 71.9058 44.7105 72.3355 44.8274 72.7748Z" fill="#263238"/>
<path d="M44.8837 73.8634C44.0162 73.2163 43.1926 72.5123 42.4183 71.7563C41.5955 71.0606 40.8211 70.3097 40.1005 69.5087C40.97 70.1532 41.7937 70.8573 42.5658 71.6158C43.3906 72.3093 44.1651 73.0604 44.8837 73.8634Z" fill="#263238"/>
<path d="M89.2106 63.5455C89.1688 64.5426 89.0562 65.5355 88.8734 66.5166C88.7584 67.5066 88.5754 68.4876 88.3256 69.4525C88.3591 68.4551 88.4695 67.4618 88.6557 66.4814C88.7659 65.4901 88.9514 64.5087 89.2106 63.5455Z" fill="#263238"/>
<g opacity="0.3">
<path d="M44.6096 87.6721C42.9647 84.7074 41.9014 81.4556 41.477 78.0917C41.0578 74.7157 41.6571 71.2915 43.1978 68.2584L44.8835 73.5614L44.6096 87.6721Z" fill="black"/>
</g>
<path d="M86.1483 54.4497C86.1483 54.4497 86.0148 54.5832 85.7479 54.815L84.5609 55.8334L80.1851 59.556L65.6529 71.7774L65.5827 71.8406L65.5125 71.7774L65.2737 71.5807L50.6361 59.1557L46.2112 55.3698L45.0171 54.3303C44.7432 54.0915 44.6097 53.9581 44.6097 53.9581C44.6097 53.9581 44.7643 54.0704 45.0452 54.3022C45.3262 54.534 45.7476 54.8852 46.2674 55.3066L50.7345 59.0362L65.4141 71.4121L65.6529 71.6158H65.5125L80.0868 59.4436L84.5118 55.7772L85.7198 54.7869L86.1483 54.4497Z" fill="#FAFAFA"/>
<path d="M89.2107 56.1565C89.2107 56.1565 89.0561 56.304 88.7471 56.5709L87.3985 57.7299L82.3976 61.9441L65.8215 75.9003L65.7513 75.9635L65.681 75.9003L65.4492 75.7037L48.7748 61.5648L43.7458 57.2593C43.1699 56.7676 42.7133 56.3743 42.3832 56.0793C42.0531 55.7843 41.9126 55.6578 41.9126 55.6578C41.9126 55.6578 42.0882 55.7843 42.4113 56.0512L43.816 57.196L48.9013 61.4454L65.6108 75.5351L65.8426 75.7388H65.7021L82.3133 61.8598L87.3564 57.6456L88.7611 56.5147C89.0351 56.283 89.2107 56.1565 89.2107 56.1565Z" fill="#FAFAFA"/>
<path d="M89.2105 85.9724C89.2105 85.9724 89.063 86.1129 88.775 86.3657L87.5037 87.4544L82.8048 91.4439L67.2261 104.564L67.1558 104.621L67.0856 104.564L66.8608 104.375L51.1768 91.0295L46.4357 86.9768L45.1434 85.9092C44.8554 85.6563 44.7079 85.5088 44.7079 85.5088C44.7079 85.5088 44.8694 85.6282 45.1715 85.8741L46.4779 86.9557L51.2611 90.9522L66.9873 104.213L67.212 104.403H67.0716L82.6784 91.3245L87.4194 87.3912L88.7188 86.3306C89.0419 86.0918 89.2105 85.9724 89.2105 85.9724Z" fill="#FAFAFA"/>
<path d="M89.597 89.7231C89.597 89.7231 89.4494 89.8636 89.1615 90.1164L87.8902 91.2051L83.1913 95.1946L67.5985 108.315L67.5283 108.371L67.458 108.315L67.2333 108.125L51.5492 94.8153L46.8082 90.7626L45.5298 89.6528C45.2419 89.4 45.0944 89.2525 45.0944 89.2525C45.0944 89.2525 45.2559 89.3719 45.5579 89.6177L46.8643 90.6994L51.6475 94.6959L67.3738 107.957L67.5985 108.146H67.458L83.0929 95.0752L87.834 91.1419L89.1334 90.0813C89.4284 89.8425 89.597 89.7231 89.597 89.7231Z" fill="#FAFAFA"/>
<path d="M69.5301 61.4595H59.8934C58.5823 61.4595 57.5194 62.5224 57.5194 63.8335V82.3833C57.5194 83.6944 58.5823 84.7573 59.8934 84.7573H69.5301C70.8412 84.7573 71.9041 83.6944 71.9041 82.3833V63.8335C71.9041 62.5224 70.8412 61.4595 69.5301 61.4595Z" fill="#455A64"/>
<path d="M71.1251 73.923L69.754 81.798L67.9259 79.8927H67.9269C67.7299 79.6862 67.5869 79.4344 67.5109 79.1593C67.4348 78.8841 67.4282 78.594 67.4913 78.3156L67.7228 77.2902L67.8116 76.8966L67.42 76.9923C67.4194 76.9925 67.4173 76.992 67.4161 76.9923C67.4138 76.9929 67.41 76.9941 67.4054 76.9953C67.3961 76.9975 67.3822 77.0007 67.3644 77.005C67.3282 77.0138 67.2751 77.0276 67.2072 77.0441C67.0711 77.0771 66.8756 77.1242 66.6388 77.1818C66.1651 77.297 65.525 77.4529 64.8595 77.6154C63.5315 77.9395 62.0985 78.2902 61.6866 78.3966C61.4869 78.4465 61.3634 78.4124 61.2892 78.3634C61.212 78.3123 61.1515 78.2214 61.1271 78.0939C61.0768 77.8306 61.1933 77.4874 61.4855 77.3068L61.4884 77.3048C61.7463 77.1406 62.3061 76.8682 63.0197 76.546C63.7268 76.2267 64.568 75.8659 65.3761 75.5265C66.1838 75.1873 66.9577 74.8705 67.5294 74.6378C67.8153 74.5215 68.0511 74.4255 68.215 74.3595C68.2968 74.3266 68.3609 74.3008 68.4044 74.2833C68.4261 74.2746 68.4431 74.2683 68.4542 74.2638C68.4597 74.2616 68.4641 74.26 68.4669 74.2589C68.4682 74.2584 68.4692 74.2582 68.4698 74.2579L68.4708 74.257L68.3116 73.7843L60.839 75.8351H60.837C60.6761 75.8802 60.5037 75.8605 60.3575 75.7794C60.2118 75.6986 60.1039 75.5633 60.0568 75.4035C60.0142 75.2539 60.0257 75.0939 60.09 74.9523C60.1538 74.8118 60.2653 74.6985 60.4044 74.632L69.7765 70.3654L71.1251 73.923Z" fill="#E6EEF2" stroke="#263238" stroke-width="0.5"/>
<path d="M73.5769 71.3723L74.3464 73.7892L72.4041 72.8478V70.3361L73.5769 71.3723Z" stroke="#263238"/>
<path d="M65.7439 65.7088C65.7439 65.8908 65.6899 66.0687 65.5888 66.22C65.4877 66.3713 65.344 66.4893 65.1759 66.5589C65.0078 66.6285 64.8228 66.6468 64.6443 66.6113C64.4658 66.5758 64.3019 66.4881 64.1732 66.3594C64.0445 66.2308 63.9569 66.0668 63.9214 65.8883C63.8859 65.7098 63.9041 65.5248 63.9737 65.3567C64.0434 65.1886 64.1613 65.0449 64.3126 64.9438C64.4639 64.8427 64.6418 64.7887 64.8238 64.7887C65.0678 64.7887 65.3019 64.8856 65.4744 65.0582C65.647 65.2308 65.7439 65.4648 65.7439 65.7088Z" fill="#FAFAFA"/>
<path d="M64.8241 66.643C64.6397 66.6416 64.4597 66.5856 64.307 66.4821C64.1544 66.3786 64.0357 66.2323 63.9661 66.0614C63.8965 65.8906 63.879 65.703 63.9158 65.5223C63.9526 65.3415 64.0421 65.1758 64.1731 65.0458C64.304 64.9159 64.4704 64.8276 64.6515 64.7921C64.8325 64.7566 65.0199 64.7755 65.1902 64.8465C65.3605 64.9174 65.506 65.0371 65.6083 65.1905C65.7107 65.344 65.7653 65.5243 65.7653 65.7088C65.7634 65.9572 65.6635 66.1948 65.4872 66.3698C65.3108 66.5448 65.0725 66.643 64.8241 66.643ZM64.8241 64.8098C64.6466 64.8111 64.4735 64.8651 64.3266 64.9647C64.1796 65.0643 64.0655 65.2052 63.9985 65.3696C63.9316 65.534 63.9148 65.7145 63.9502 65.8885C63.9857 66.0624 64.0719 66.2219 64.1979 66.347C64.3239 66.472 64.4841 66.5569 64.6583 66.5911C64.8325 66.6252 65.0129 66.607 65.1768 66.5387C65.3407 66.4705 65.4806 66.3552 65.5791 66.2075C65.6776 66.0599 65.7302 65.8863 65.7302 65.7088C65.7228 65.474 65.6239 65.2515 65.4546 65.0887C65.2853 64.9259 65.059 64.8359 64.8241 64.8379V64.8098Z" fill="#263238"/>
<path d="M73.393 44.7007C70.6846 44.7521 68.022 43.9966 65.7441 42.5304C65.7441 42.5304 67.5563 46.7447 73.4071 46.2249L73.393 44.7007Z" fill="#E6EEF2"/>
<path d="M56.6906 32.2687C56.6906 32.2687 56.6204 32.3178 56.508 32.374C56.3391 32.4424 56.1502 32.4424 55.9812 32.374C55.7166 32.2188 55.4982 31.9957 55.3488 31.7277C55.1993 31.4597 55.1243 31.1566 55.1314 30.8498C55.1127 30.5044 55.1703 30.1592 55.2999 29.8384C55.3329 29.7127 55.3963 29.597 55.4845 29.5014C55.5726 29.4059 55.6829 29.3335 55.8056 29.2906C55.8853 29.2663 55.971 29.2705 56.048 29.3026C56.1249 29.3346 56.1882 29.3925 56.2271 29.4662C56.2833 29.5786 56.2622 29.6558 56.2833 29.6628C56.3043 29.6699 56.3675 29.5926 56.3254 29.4311C56.3012 29.3331 56.2442 29.2463 56.1639 29.1852C56.1075 29.1449 56.0438 29.116 55.9763 29.1004C55.9088 29.0847 55.8389 29.0825 55.7705 29.0939C55.6079 29.1325 55.458 29.2122 55.335 29.3253C55.212 29.4385 55.1201 29.5813 55.0681 29.7401C54.9087 30.0922 54.8387 30.4782 54.8645 30.8639C54.8548 31.2219 54.9518 31.5746 55.1432 31.8773C55.3345 32.18 55.6116 32.4189 55.9391 32.5636C56.0472 32.5908 56.1601 32.5935 56.2694 32.5717C56.3787 32.5498 56.4818 32.5039 56.5712 32.4372C56.6906 32.36 56.6906 32.2757 56.6906 32.2687Z" fill="#E07646"/>
<path d="M76.4624 27.4082C76.4626 27.6277 76.3779 27.8387 76.226 27.9971C76.0742 28.1555 75.8669 28.249 75.6477 28.2581C75.4326 28.2716 75.221 28.1993 75.0591 28.0572C74.8972 27.915 74.7982 27.7145 74.7837 27.4995C74.7818 27.2814 74.8652 27.0712 75.0161 26.9137C75.167 26.7562 75.3735 26.664 75.5915 26.6567C75.6982 26.6481 75.8055 26.6608 75.9072 26.694C76.009 26.7272 76.1031 26.7803 76.1841 26.8503C76.2652 26.9202 76.3315 27.0055 76.3793 27.1013C76.4271 27.1971 76.4553 27.3014 76.4624 27.4082Z" fill="#263238"/>
<path d="M77.2702 26.9095C77.1719 27.0219 76.5327 26.5513 75.6337 26.5513C74.7347 26.5513 74.0674 27.0079 73.9691 26.8955C73.8707 26.7831 74.0323 26.6496 74.3203 26.4389C74.7084 26.166 75.1733 26.0233 75.6477 26.0316C76.117 26.029 76.5748 26.1767 76.9542 26.453C77.2281 26.6707 77.3264 26.8674 77.2702 26.9095Z" fill="#263238"/>
<path d="M67.5914 27.6892C67.5952 27.9085 67.5126 28.1205 67.3615 28.2795C67.2104 28.4385 67.0029 28.5317 66.7836 28.5391C66.5686 28.5525 66.357 28.4803 66.1951 28.3381C66.0332 28.196 65.9341 27.9955 65.9197 27.7805C65.9178 27.5624 66.0011 27.3522 66.152 27.1947C66.303 27.0372 66.5094 26.945 66.7274 26.9376C66.834 26.928 66.9413 26.9401 67.0431 26.973C67.1448 27.0059 67.2389 27.0591 67.3196 27.1293C67.4002 27.1995 67.4659 27.2853 67.5126 27.3815C67.5593 27.4777 67.5861 27.5823 67.5914 27.6892Z" fill="#263238"/>
<path d="M68.4061 27.0851C68.3008 27.1975 67.6686 26.7269 66.7696 26.7269C65.8705 26.7269 65.2033 27.1835 65.1049 27.0711C65.0066 26.9587 65.1611 26.8252 65.4491 26.6145C65.8405 26.3428 66.3072 26.2003 66.7836 26.2071C67.2529 26.2046 67.7107 26.3523 68.09 26.6286C68.364 26.8393 68.4553 27.0359 68.4061 27.0851Z" fill="#263238"/>
<path d="M71.6792 33.7717C72.156 33.6251 72.649 33.5378 73.1471 33.5119C73.3789 33.5119 73.5967 33.4416 73.6318 33.2801C73.6566 33.0355 73.6024 32.7893 73.4773 32.5777L72.7749 30.8288C72.1442 29.3435 71.6345 27.8096 71.2507 26.2422C72.0001 27.673 72.632 29.1623 73.1401 30.6953C73.3719 31.3064 73.5897 31.8964 73.7933 32.4583C73.9411 32.7335 73.9835 33.0531 73.9127 33.3573C73.8804 33.4393 73.8292 33.5126 73.7633 33.5712C73.6974 33.6297 73.6187 33.672 73.5335 33.6945C73.4079 33.7311 73.2779 33.75 73.1471 33.7507C72.6609 33.8225 72.1673 33.8296 71.6792 33.7717Z" fill="#263238"/>
<path d="M69.0243 34.3969C69.1718 34.3969 69.1718 35.3662 70.0147 36.0615C70.8575 36.7569 71.89 36.6515 71.9041 36.7639C71.9181 36.8763 71.6653 36.9535 71.2017 36.9676C70.6272 36.9747 70.0682 36.7809 69.6213 36.4197C69.194 36.0691 68.9216 35.5646 68.8628 35.015C68.8487 34.6357 68.9611 34.3899 69.0243 34.3969Z" fill="#263238"/>
<path d="M68.6311 23.5522C68.5468 23.798 67.6478 23.6786 66.5872 23.805C65.5266 23.9314 64.6697 24.2264 64.5292 24.0017C64.473 23.8963 64.6205 23.6716 64.9647 23.4328C65.4252 23.1414 65.9461 22.959 66.4877 22.8994C67.0293 22.8398 67.5774 22.9045 68.0903 23.0886C68.4836 23.2431 68.6803 23.4328 68.6311 23.5522Z" fill="#263238"/>
<path d="M76.9399 24.3107C76.7853 24.5144 76.1602 24.3107 75.4157 24.3107C74.6712 24.3107 74.011 24.4512 73.8916 24.2335C73.8213 24.1281 73.8915 23.9244 74.2006 23.7278C74.5705 23.4908 75.0051 23.3754 75.4438 23.3976C75.8813 23.404 76.306 23.5464 76.6589 23.805C76.9258 23.9947 77.0101 24.2054 76.9399 24.3107Z" fill="#263238"/>
<path d="M55.9435 22.6338L55.9259 22.5898C55.601 21.7585 55.3696 20.8935 55.2374 20.0107V20.0098L55.2062 19.7686C55.0782 18.5675 55.3681 17.356 56.0314 16.3408C56.3856 15.832 56.8855 15.4419 57.465 15.2217C58.0443 15.0015 58.6768 14.9614 59.2794 15.1064L59.4943 15.1582L59.5724 14.9521C60.247 13.163 61.5995 11.7114 63.337 10.9131C65.0743 10.115 67.0569 10.0332 68.8536 10.6865V10.6875C69.2793 10.8441 69.6921 11.0407 70.1134 11.2461C70.5316 11.4499 70.9608 11.6642 71.4025 11.8438V11.8428C72.3065 12.2572 73.3189 12.3735 74.2931 12.1729L74.2999 12.1709C74.7943 12.0539 75.2669 11.7901 75.6837 11.5908C76.1149 11.3847 76.5061 11.2348 76.9152 11.2559C77.1279 11.2824 77.3326 11.3539 77.5167 11.4639C77.7023 11.5747 77.8627 11.7229 77.9874 11.8994C78.1122 12.076 78.1989 12.2772 78.2413 12.4893C78.2837 12.7012 78.2817 12.9199 78.2345 13.1309L78.049 13.959L78.6534 13.3633C78.8722 13.1478 79.1607 13.0168 79.4669 12.9941C79.7695 12.9718 80.0701 13.0568 80.3165 13.2334C80.5678 13.4364 80.7651 13.6986 80.8888 13.9971C81.0126 14.2958 81.0587 14.6209 81.0245 14.9424C80.9427 15.6262 80.6606 16.2705 80.213 16.7939L80.0665 16.9658L80.2208 17.1289C80.416 17.3348 80.5476 17.593 80.5988 17.8721C80.6496 18.1495 80.6189 18.4358 80.5109 18.6963C80.2637 19.2572 79.8425 19.7234 79.3097 20.0264L79.3038 20.0303L79.297 20.0342C78.8413 20.3301 78.3425 20.5533 77.8185 20.6963H77.6232L77.5978 20.7021C75.194 21.2046 72.6931 20.9336 70.4523 19.9297C67.3596 18.348 65.3878 17.9286 64.0763 18.0127C63.4168 18.055 62.9273 18.2248 62.5509 18.4336C62.1777 18.6406 61.9222 18.8832 61.7413 19.0469C61.5922 19.1818 61.5134 19.385 61.464 19.584C61.4128 19.7902 61.3822 20.0379 61.3585 20.3027C61.3099 20.8465 61.2885 21.4727 61.1964 22.1299C61.0127 23.4403 60.57 24.6994 59.2345 25.2158L59.0519 25.2861L59.0763 25.4795V25.4824C59.0765 25.4842 59.0769 25.4868 59.0773 25.4902C59.0782 25.4981 59.0795 25.5106 59.0812 25.5264C59.0846 25.558 59.0896 25.605 59.0948 25.665C59.1054 25.7851 59.1183 25.9573 59.1261 26.1641C59.1417 26.5792 59.1375 27.1279 59.0616 27.6709C58.9852 28.2183 58.839 28.7357 58.587 29.1074C58.344 29.4658 58.0046 29.6885 57.5021 29.6797H57.4982C57.289 29.6797 57.0744 29.5401 56.8624 29.1641C56.6529 28.7922 56.4816 28.2471 56.3478 27.5801C56.0813 26.252 55.9742 24.5166 55.9425 22.9062H55.9435V22.6338Z" stroke="#263238" stroke-width="0.5"/>
<path d="M55.6509 22.2457C55.6509 22.2457 55.9248 22.4986 56.4235 22.8077C57.0668 23.2164 57.8202 23.4174 58.5816 23.3835C59.343 23.3496 60.0755 23.0824 60.6799 22.618C61.1505 22.2739 61.3823 21.9648 61.3823 21.9929C61.2409 22.2903 61.0287 22.5484 60.7642 22.7444C60.1494 23.2647 59.3793 23.5662 58.5747 23.6018C57.7701 23.6374 56.9765 23.405 56.3181 22.9411C56.045 22.764 55.8166 22.526 55.6509 22.2457Z" fill="#FAFAFA"/>
<path d="M61.0523 20.3423C60.8379 20.5946 60.5721 20.7981 60.2727 20.9393C59.5673 21.3129 58.784 21.5152 57.986 21.5298C57.188 21.5444 56.3977 21.371 55.6791 21.0236C55.3781 20.8904 55.1061 20.6995 54.8784 20.4617C54.8784 20.4266 55.2015 20.6443 55.7494 20.8832C56.4566 21.18 57.218 21.3258 57.9848 21.3113C58.7516 21.2968 59.507 21.1222 60.2024 20.7989C60.7362 20.546 61.0312 20.3142 61.0523 20.3423Z" fill="#FAFAFA"/>
<path d="M83.7977 79.1759L89.535 84.339L90.0009 84.7579L89.951 84.1339L89.8817 83.2589L100.291 83.5607C100.432 84.3963 100.924 87.2849 101.363 90.339C101.607 92.0392 101.835 93.7878 101.977 95.2599C102.121 96.7446 102.174 97.9136 102.084 98.4767C101.891 99.6781 101.642 101.041 101.104 102.243C100.569 103.44 99.757 104.459 98.4432 105C95.8121 106.083 91.8708 104.654 89.6229 100.8C88.4716 98.8258 85.4255 94.384 82.6747 90.4464C81.2977 88.4754 79.9923 86.6272 79.0311 85.2716C78.5505 84.5938 78.1551 84.0386 77.8807 83.6535C77.7439 83.4613 77.6372 83.3112 77.5643 83.2091C77.5279 83.1581 77.5001 83.1182 77.4813 83.0919C77.472 83.0789 77.4646 83.0693 77.4598 83.0626C77.4575 83.0593 77.4552 83.0565 77.454 83.0548L77.453 83.0529L77.2489 83.1984L77.452 83.0529L77.3885 82.963L77.2792 82.9494L70.1522 82.091V70.4835L83.7977 79.1759Z" fill="#E6EEF2" stroke="#263238" stroke-width="0.5"/>
<path d="M59.5004 36.5275L58.8906 36.5797L60.0218 49.6803L60.6315 49.6282L59.5004 36.5275Z" fill="#06334D" fill-opacity="0.3"/>
<path d="M73.8414 38.6833L73.2317 38.7354L74.1312 49.1527L74.7409 49.1006L73.8414 38.6833Z" fill="#06334D" fill-opacity="0.3"/>
</svg>
