<svg width="314" height="314" viewBox="0 0 314 314" fill="none" xmlns="http://www.w3.org/2000/svg">
<path d="M296.12 183.66C295.12 180 295.3 176.15 294.82 172.41C294.56 170.41 293.95 168.2 292.26 167.08C291.14 166.34 289.71 166.21 288.49 165.64C284.1 163.64 283.78 157.02 279.73 154.41C278.406 153.686 276.98 153.166 275.5 152.87C269.79 151.34 264.07 148.47 261.08 143.38C260.08 141.73 259.43 139.86 258.14 138.45C256.85 137.04 254.59 136.18 252.96 137.2C253.83 139.83 254.68 142.45 255.53 145.05C256.15 147.466 257.233 149.738 258.72 151.74C260.34 153.66 262.96 154.91 265.34 154.2C266.089 153.827 266.926 153.664 267.76 153.73C268.342 153.939 268.826 154.356 269.12 154.9C271.78 158.9 269.91 164.52 266.3 167.66C262.69 170.8 257.89 171.97 253.25 173.08C251.635 173.609 249.908 173.692 248.25 173.32C245.3 172.32 244.16 168.78 243.7 165.68C242.7 158.83 242.7 151.56 239.48 145.43C238.43 143.5 237.04 141.67 236.55 139.52C236.04 137.2 236.6 134.65 235.55 132.52C234.5 130.39 231.73 128.69 231.88 126.21C232.01 124.48 233.65 123.21 235.33 122.66C237.01 122.11 238.8 122.16 240.52 121.73C241.19 121.55 241.97 121.19 242.09 120.51C242.24 119.51 240.88 118.86 240.65 117.85C240.42 116.84 241.65 115.85 242.28 114.85C243.63 112.59 241.49 109.85 239.2 108.47C236.91 107.09 234.13 106.01 233.34 103.47C233.091 102.28 232.997 101.064 233.06 99.85C232.93 96.85 231.16 93.62 228.24 92.69C225.32 91.76 221.58 93.96 221.63 97.02C221.69 98.7 222.73 100.16 223.17 101.77C223.61 103.38 223.12 105.62 221.48 105.88C218.79 106.29 217 101.23 214.61 102.53C215.05 105.68 215.47 108.81 215.92 111.98C212.29 113.21 208.69 109.51 207.76 105.77C206.83 102.03 207.35 98.03 206.12 94.4C204.89 90.77 200.63 87.55 197.34 89.53C196.56 93.87 202.07 96.47 204.11 100.36C205.58 103.18 204.71 107.28 201.75 108.51C198.79 109.74 194.94 106.3 196.4 103.51C196.92 102.51 197.9 101.8 198.16 100.71C198.45 99.35 197.46 98.08 196.53 97.05C195.09 95.41 193.65 93.8 192.21 92.19C191.34 91.0814 190.255 90.1596 189.02 89.48C185.78 88.01 182.02 90.26 179.78 93.02C177.54 95.78 176.03 99.21 173.19 101.38C169.1 104.54 162.33 103.79 159.55 99.45C156.77 95.11 159.55 88.16 164.64 87.45C166.57 87.2 168.92 87.59 170.14 86.09C172.28 83.42 167.91 78.99 170.03 76.29C171.65 74.22 174.94 75.75 177.55 75.35C180.16 74.95 181.89 72.65 183.67 70.71C185.45 68.77 188 67 190.46 68C190.333 66.4699 190.649 64.9355 191.37 63.58C192.23 62.3 194.22 61.69 195.32 62.75C193.77 64.62 194.85 67.75 196.89 69.05C198.93 70.35 201.5 70.52 203.95 70.6C206.4 70.68 209.53 70.21 210.08 67.83C210.26 67.06 210.08 66.18 210.49 65.49C211.96 62.78 216.68 67.49 219.05 65.49C220.4 64.49 219.41 62.14 217.82 61.49C216.23 60.84 214.49 61.2 212.82 61.01C211.15 60.82 209.24 59.67 209.41 58.01C209.58 56.35 211.58 55.45 212.01 53.86C212.72 51.16 208.17 49.77 206.21 51.77C204.25 53.77 204.39 56.91 204.48 59.7C204.57 62.49 204.38 65.7 202.1 67.36C201.1 68.54 198.92 67.53 198.38 66.05C197.84 64.57 198.23 62.93 198.38 61.36C198.53 59.79 198.05 57.91 196.59 57.28C195.59 56.83 194.38 57.18 193.28 57.17C188.94 57.07 186.77 51.17 188.71 47.25C190.65 43.33 194.87 41.25 198.92 39.75C201.92 38.62 205.5 37.7 208 39.63C209.17 40.53 209.88 41.88 211 42.8C213 44.38 215.71 44.31 218.18 44.71C222.09 45.3872 225.645 47.3978 228.24 50.4C229.24 51.56 229.99 53.4 228.96 54.4C227.93 55.4 225.13 55.4 225.38 56.99C226.072 57.2929 226.821 57.4465 227.576 57.4408C228.332 57.4352 229.078 57.2704 229.766 56.9571C230.454 56.6439 231.068 56.1893 231.568 55.623C232.069 55.0566 232.444 54.3911 232.67 53.67C233.332 54.0985 233.87 54.6937 234.23 55.3957C234.59 56.0978 234.759 56.8821 234.72 57.67C235.634 57.0401 236.668 56.6072 237.758 56.3987C238.848 56.1902 239.969 56.2108 241.051 56.4591C242.133 56.7074 243.151 57.1779 244.04 57.8409C244.93 58.5039 245.673 59.3447 246.22 60.31C246.626 61.4297 247.222 62.4715 247.98 63.39C248.87 64.17 250.63 64.1 250.92 62.96C251.005 62.5948 251.005 62.2152 250.92 61.85C250.57 60.1 250.2 58.37 249.85 56.64C252.3 55.75 254.72 58.05 255.97 60.33C260.59 68.83 265.36 64.82 273.26 67.24C278.61 68.86 280.5 72.71 282.98 77.4C290.55 91.81 301.51 104.31 308.14 119.18C308.807 120.733 309.44 122.3 310.04 123.88C309.95 123.49 309.88 123.11 309.78 122.72C307.704 113.386 304.75 104.269 300.96 95.49C300.15 93.62 299.32 91.78 298.46 89.95C297.92 88.82 297.36 87.67 296.79 86.56C296.08 85.1 295.31 83.69 294.54 82.28C293.92 81.14 293.31 80.02 292.67 78.93C292.23 78.16 291.76 77.4 291.3 76.63C290.84 75.86 290.3 74.91 289.72 74.05L288.01 71.37C287.84 71.1 287.66 70.82 287.45 70.54C286.86 69.61 286.22 68.69 285.57 67.77C285.537 67.6618 285.475 67.5648 285.39 67.49C285.217 67.2433 285.037 66.9933 284.85 66.74C284.33 65.96 283.77 65.2 283.23 64.45C282.33 63.22 281.41 61.99 280.45 60.8C279.68 59.8 278.87 58.8 278.04 57.8C277.21 56.8 276.59 56.04 275.84 55.18C275.09 54.32 274.38 53.49 273.62 52.66C272.72 51.66 271.79 50.61 270.84 49.6C268.22 46.79 265.48 44.09 262.65 41.53C261.95 40.88 261.26 40.25 260.55 39.63C259.84 39.01 259.11 38.36 258.39 37.76C257.67 37.16 256.94 36.53 256.2 35.94C255.46 35.35 254.73 34.73 253.99 34.15C253.25 33.57 252.8 33.15 252.18 32.76C251.888 32.5054 251.58 32.2684 251.26 32.05C249.98 31.05 248.67 30.05 247.35 29.18C246.69 28.71 246.03 28.24 245.35 27.79C244.51 27.19 243.64 26.62 242.77 26.07C242.648 25.972 242.517 25.885 242.38 25.81C241.6 25.3 240.83 24.81 240.02 24.29C238.89 23.6 237.77 22.92 236.64 22.29C235.35 21.53 234.05 20.77 232.73 20.05C231.41 19.33 229.81 18.45 228.32 17.71C226.83 16.97 225.32 16.2 223.78 15.48C222.24 14.76 220.73 14.09 219.18 13.41C216.12 12.09 212.99 10.86 209.83 9.73L209.66 9.66C208.45 9.23 207.23 8.81 206.01 8.43C205.935 8.38857 205.854 8.35826 205.77 8.33999C205.25 8.16999 204.7 7.99 204.14 7.83C201.87 7.1 199.57 6.45 197.23 5.83C196.96 5.74 196.67 5.68 196.38 5.61C195.71 5.41 195.03 5.25999 194.38 5.08999C192.83 4.70999 191.28 4.36 189.7 4.04C188.12 3.72 186.42 3.36 184.76 3.04C183.1 2.72 181.3 2.44 179.56 2.19C174.947 1.52333 170.357 1.06666 165.79 0.819996C164.7 0.739996 163.63 0.69 162.56 0.66C161.49 0.63 160.32 0.579996 159.2 0.569996C158.08 0.559996 156.95 0.569996 155.84 0.569996C154.73 0.569996 153.61 0.569994 152.48 0.629994C151.53 0.629994 150.55 0.679994 149.59 0.739994C147.217 0.846661 144.867 1.00666 142.54 1.22C141.45 1.31 140.35 1.43 139.26 1.57C138.17 1.71 137.07 1.83 136 1.98C134.18 2.22 132.42 2.50999 130.65 2.80999L126.33 3.61C126.297 3.60194 126.263 3.60194 126.23 3.61C124.76 3.9 123.34 4.22 121.88 4.61H121.65C120.33 4.92 119.01 5.25 117.71 5.61C116.07 6.02 114.45 6.49 112.86 6.96C111.5 7.36 110.16 7.77 108.86 8.21C107.56 8.65 106.02 9.15 104.62 9.65H104.46C103.12 10.13 101.77 10.65 100.46 11.17C99.15 11.69 97.73 12.25 96.36 12.85C95.08 13.39 93.82 13.93 92.57 14.5C92.09 14.71 91.63 14.94 91.14 15.17C89.8 15.78 88.51 16.42 87.14 17.08C85.52 17.87 83.95 18.72 82.37 19.57C80.99 20.32 79.63 21.1 78.29 21.88C70.5557 26.3976 63.2253 31.5734 56.38 37.35C53.96 39.35 51.66 41.43 49.38 43.55C47.47 45.38 45.6 47.23 43.79 49.17C44.19 49.17 44.59 49.17 44.98 49.22C47.21 49.37 49.53 49.78 51.65 49.11C53.65 48.47 55.16 47.01 57 46.11C61.7 43.69 68.77 44.11 70.66 39.2C71.3 37.54 71.1 35.61 71.98 34.06C73.62 31.17 77.78 31.32 81.06 31.85C82.45 32.05 84.06 32.48 84.53 33.85C84.6385 34.3331 84.6447 34.8336 84.5482 35.3192C84.4518 35.8049 84.2548 36.265 83.97 36.67C81.0871 42.1389 76.4078 46.4474 70.72 48.87C66.08 50.87 60.22 52.06 58.35 56.74C58.7 58.47 61.7 58.74 61.7 60.53C61.7 61.93 59.81 62.38 58.99 63.53C57.8 65.19 59.62 67.68 61.67 67.88C63.72 68.08 65.62 66.88 67.31 65.69C72.37 62.19 77.7 58.41 80.17 52.76C81.17 50.43 81.86 47.62 84.06 46.29C84.7268 45.9514 85.4631 45.7719 86.211 45.7657C86.9589 45.7595 87.6981 45.9267 88.3705 46.2542C89.0429 46.5817 89.6303 47.0605 90.0865 47.6532C90.5427 48.2459 90.8554 48.9362 91 49.67C93.09 48.87 96.23 48.5 96.94 50.67C97.0569 51.451 97.0838 52.2429 97.02 53.03C97.21 56.26 101.29 58.3 101.28 61.53C101.28 65.25 96.28 66.46 92.57 66.53C89.19 66.53 85.81 66.6 82.42 66.66C80.9456 66.5543 79.4673 66.8047 78.11 67.39C77.4389 67.7066 76.8964 68.2434 76.5725 68.911C76.2487 69.5786 76.1631 70.337 76.33 71.06C76.7299 71.7858 77.2205 72.4579 77.79 73.06C80.14 76.2 77.06 81.53 73.17 81.06C71.84 80.91 70.61 80.24 69.3 79.99C65.4 79.26 61.79 82.26 59.42 85.45C57.05 88.64 55.09 92.38 51.61 94.28C46.02 97.35 37.44 95.21 34.15 100.69C32.83 102.9 32.96 105.62 32.98 108.2C33 110.78 32.78 113.58 30.98 115.45C29.18 117.32 25.4 117.19 24.65 114.73C24.4345 113.628 24.5493 112.487 24.98 111.45C26.0933 107.91 27.19 104.367 28.27 100.82C29.07 98.18 29.88 95.22 28.6 92.82C26.82 89.41 21.78 88.98 18.53 91.04C15.28 93.1 13.53 96.8 12.19 100.38C11.19 103.04 9.95998 106.82 7.98997 109.73C6.98997 112.73 6.16996 115.73 5.39996 118.79C4.62996 121.85 3.93998 125.06 3.34998 128.28C3.84614 127.98 4.32063 127.646 4.76997 127.28C6.54997 125.91 10.64 119.62 12.95 123.33C13.2339 123.813 13.3497 124.376 13.2791 124.932C13.2085 125.487 12.9556 126.004 12.56 126.4C11.56 127.4 9.78997 127.4 8.94997 128.48C7.94997 129.79 8.80997 131.71 9.99997 132.84C11.19 133.97 12.72 134.84 13.46 136.29C14.87 139.12 12.59 142.77 13.95 145.65C15.12 148.12 18.29 148.73 20.95 149.41L21.86 149.7C23.4 144.41 26.56 140.39 34.15 139.79C44.63 138.95 56.75 149.29 61.35 157.79C66.49 167.27 67.75 179.79 76.89 185.51C83.43 189.59 93.52 189.92 95.94 197.25C98.09 203.82 91.8 209.94 90.01 216.61C88.85 221.03 89.67 225.7 89.36 230.23C89.05 234.76 86.95 239.84 82.58 241.14C80.15 241.84 77.3 241.3 75.22 242.75C71.51 245.37 73.22 252.13 69.55 254.75C68.25 255.66 66.6 255.82 65.1 256.33C57.23 258.97 55.87 269.78 58.19 277.75L58.45 278.59C80.3858 296.42 106.743 307.973 134.72 312.02C160.058 315.722 185.918 313.119 210.01 304.44C222.893 299.779 235.115 293.462 246.37 285.65C251.082 282.385 255.602 278.852 259.91 275.07C262.91 272.46 265.84 269.7 268.65 266.86C270.09 265.39 271.51 263.91 272.85 262.38C282.93 251.377 291.351 238.963 297.85 225.53C301.815 217.326 305.035 208.781 307.47 200C308.47 196.58 309.32 193.11 310.07 189.59C308.198 191.065 305.817 191.738 303.45 191.46C299.73 190.86 297.12 187.3 296.12 183.66Z" fill="#EBEBEB"/>
<path d="M248.15 202.49C255.03 198.08 259.23 186.49 252.03 182.62C249.31 181.16 245.88 181.53 243.18 180.01C239.67 178.01 238.54 173.6 237.74 169.65C235.64 159.283 233.537 148.913 231.43 138.54C230.16 132.29 227.93 124.94 221.81 123.16C218.34 122.16 214.66 123.34 211.06 123.48C198.63 123.93 182.51 91.69 170.45 110.07C169.94 104.53 160.93 105.28 157.45 109.64C153.97 114 152.45 120.22 147.59 122.88C143.86 124.88 138.91 124.35 135.69 127.14C133.44 129.14 132.69 132.21 131.98 135.14C130.7 140.707 129.417 146.277 128.13 151.85C127.13 156.34 126.08 161.15 127.76 165.44C129.44 169.73 135 172.79 138.81 170.2C140.56 169.01 141.53 166.97 143.03 165.48C144.269 164.292 145.826 163.49 147.512 163.168C149.198 162.847 150.941 163.021 152.53 163.67C155.17 164.79 157.07 167.14 158.71 169.51C172.01 188.75 174.16 213.73 171.51 236.97C171.02 241.23 170.4 245.58 171.39 249.75C172.55 254.63 175.86 258.92 176.29 263.92C176.62 267.76 175.21 271.73 176.29 275.42C178.29 282.23 188.06 283.92 194.06 280.12C200.06 276.32 202.97 269.21 205.06 262.42C207.15 255.63 208.91 248.42 213.64 243.13C216.57 239.85 220.54 237.46 222.81 233.69C225.98 228.41 225.19 221.5 228.2 216.13C232.21 209 241.27 206.89 248.15 202.49Z" fill="#E0E0E0"/>
<path d="M95.83 197.1C93.41 189.77 83.32 189.44 76.78 185.36C67.64 179.66 66.38 167.12 61.24 157.64C56.64 149.17 44.52 138.83 34.04 139.64C26.45 140.24 23.29 144.26 21.75 149.55L20.84 149.26C18.16 148.58 14.99 147.97 13.84 145.5C12.48 142.62 14.76 138.97 13.35 136.14C12.61 134.66 11.08 133.84 9.89 132.69C8.7 131.54 7.82999 129.64 8.83999 128.33C9.67999 127.23 11.43 127.23 12.45 126.25C12.8456 125.854 13.0985 125.337 13.1691 124.782C13.2397 124.226 13.1239 123.663 12.84 123.18C10.53 119.47 6.43999 125.76 4.66999 127.13C4.21563 127.494 3.73795 127.828 3.24 128.13C3.16802 128.41 3.11127 128.694 3.07 128.98C2.9 129.89 2.77 130.83 2.61 131.77C2.45 132.71 2.3 133.62 2.16 134.55C2.05 135.31 1.96999 136.07 1.86999 136.83C1.76999 137.59 1.66 138.35 1.58 139.1C1.53 139.47 1.47999 139.81 1.44999 140.18C-0.395072 157.073 0.530441 174.155 4.19 190.75C5.82343 198.126 8.00618 205.37 10.72 212.42C11.83 215.42 13.1 218.42 14.44 221.42C16.11 225.09 17.89 228.7 19.86 232.21C21.68 235.58 23.65 238.89 25.77 242.1C28.6458 246.557 31.7499 250.863 35.07 255C38.0233 258.68 41.14 262.217 44.42 265.61C45.81 267.09 47.23 268.5 48.68 269.88C49.82 270.987 50.9767 272.073 52.15 273.14C53.33 274.21 54.52 275.26 55.74 276.29C56.58 277.01 57.43 277.71 58.31 278.41L58.05 277.57C55.73 269.57 57.05 258.79 64.96 256.15C66.46 255.64 68.11 255.48 69.41 254.57C73.12 251.95 71.41 245.19 75.08 242.57C77.16 241.12 80.01 241.66 82.44 240.96C86.81 239.66 88.89 234.61 89.22 230.05C89.55 225.49 88.71 220.85 89.87 216.43C91.69 209.79 98 203.67 95.83 197.1ZM18.13 155C18.95 155.21 19.78 155.4 20.61 155.56C19.78 155.38 19 155.19 18.13 155ZM20.33 157.93C20.07 160.31 19.83 162.74 19.46 165.06C19.83 162.72 20.07 160.29 20.33 157.91V157.93ZM7.39 143.36C9.51 145.19 11.39 147.36 11.5 150.04C11.43 147.38 9.51 145.17 7.39 143.34V143.36ZM18.65 187.75C18.92 188.37 19.21 188.99 19.51 189.6C19.21 189 18.92 188.37 18.65 187.75Z" fill="#E0E0E0"/>
<path d="M18.4 90.91C21.65 88.85 26.69 89.28 28.47 92.69C29.75 95.13 28.94 98.09 28.14 100.69C27.0533 104.23 25.9567 107.773 24.85 111.32C24.4194 112.357 24.3046 113.498 24.52 114.6C25.27 117.06 29.11 117.17 30.85 115.32C32.59 113.47 32.85 110.63 32.85 108.07C32.85 105.51 32.7 102.77 34.02 100.56C37.31 95.08 45.89 97.22 51.48 94.15C54.96 92.25 56.93 88.51 59.29 85.32C61.65 82.13 65.29 79.13 69.17 79.86C70.48 80.11 71.71 80.78 73.04 80.93C76.93 81.36 80.04 76.03 77.66 72.93C77.0906 72.3279 76.6 71.6558 76.2 70.93C76.0332 70.207 76.1188 69.4486 76.4426 68.781C76.7664 68.1134 77.3089 67.5766 77.98 67.26C79.3374 66.6747 80.8156 66.4243 82.29 66.53C85.68 66.47 89.06 66.44 92.44 66.4C96.18 66.4 101.13 65.15 101.15 61.4C101.15 58.17 97.08 56.13 96.89 52.9C96.9538 52.1129 96.927 51.321 96.81 50.54C96.1 48.38 92.96 48.75 90.87 49.54C90.7254 48.8062 90.4128 48.1159 89.9566 47.5232C89.5003 46.9305 88.913 46.4517 88.2406 46.1242C87.5681 45.7967 86.829 45.6295 86.0811 45.6357C85.3332 45.6419 84.5969 45.8214 83.93 46.16C81.73 47.49 81.08 50.3 80.04 52.63C77.57 58.28 72.24 62.06 67.18 65.56C65.49 66.72 63.59 67.94 61.54 67.75C59.49 67.56 57.67 65.06 58.86 63.4C59.68 62.27 61.54 61.82 61.57 60.4C61.57 58.65 58.57 58.34 58.22 56.61C60.09 51.93 65.95 50.72 70.59 48.74C76.2778 46.3174 80.9571 42.0089 83.84 36.54C84.1249 36.135 84.3218 35.6749 84.4183 35.1892C84.5147 34.7036 84.5085 34.2031 84.4 33.72C83.94 32.4 82.32 31.97 80.93 31.72C77.65 31.19 73.49 31.04 71.85 33.93C70.97 35.48 71.17 37.41 70.53 39.07C68.64 44 61.53 43.56 56.87 45.98C55.03 46.91 53.49 48.37 51.52 48.98C49.4 49.65 47.08 49.24 44.85 49.09C44.46 49.09 44.06 49.09 43.66 49.04C42.04 50.72 40.46 52.45 38.93 54.21C37.4 55.97 35.93 57.77 34.45 59.6C27.5404 68.2696 21.5828 77.6568 16.68 87.6C14.9467 91.0933 13.35 94.6633 11.89 98.31C10.43 101.957 9.09668 105.677 7.89001 109.47C9.89001 106.56 11.11 102.78 12.09 100.12C13.41 96.67 15.17 93 18.4 90.91Z" fill="#E0E0E0"/>
<path d="M312.13 177.26C312.443 175.027 312.697 172.803 312.89 170.59C313.083 168.377 313.23 166.163 313.33 163.95C313.42 162.16 313.47 160.39 313.48 158.61C313.49 156.83 313.48 154.87 313.48 153.01C313.358 147.454 312.927 141.908 312.19 136.4C311.91 134.3 311.58 132.2 311.19 130.12C310.8 128.04 310.42 125.97 309.97 123.9C309.397 122.32 308.763 120.753 308.07 119.2C301.44 104.33 290.48 91.83 282.91 77.42C280.43 72.73 278.54 68.88 273.19 67.26C265.29 64.84 260.52 68.85 255.9 60.35C254.65 58.07 252.23 55.77 249.78 56.66C250.13 58.39 250.5 60.12 250.85 61.87C250.935 62.2351 250.935 62.6148 250.85 62.98C250.56 64.12 248.8 64.19 247.91 63.41C247.152 62.4915 246.556 61.4497 246.15 60.33C245.603 59.3647 244.86 58.5239 243.971 57.8609C243.081 57.1979 242.063 56.7273 240.981 56.4791C239.899 56.2308 238.778 56.2102 237.688 56.4187C236.598 56.6271 235.564 57.0601 234.65 57.69C234.689 56.9021 234.52 56.1178 234.16 55.4157C233.8 54.7137 233.262 54.1185 232.6 53.69C232.374 54.4111 231.999 55.0766 231.498 55.6429C230.998 56.2093 230.384 56.6639 229.696 56.9771C229.008 57.2904 228.262 57.4552 227.507 57.4608C226.751 57.4665 226.002 57.3129 225.31 57.01C225.06 55.45 227.77 55.56 228.89 54.42C230.01 53.28 229.13 51.53 228.17 50.42C225.575 47.4178 222.02 45.4071 218.11 44.73C215.64 44.33 212.9 44.4 210.93 42.82C209.79 41.9 209.08 40.55 207.93 39.65C205.43 37.72 201.82 38.65 198.85 39.77C194.8 41.31 190.55 43.37 188.64 47.27C186.73 51.17 188.87 57.09 193.21 57.19C194.31 57.19 195.51 56.85 196.52 57.3C197.98 57.93 198.41 59.8 198.31 61.38C198.21 62.96 197.79 64.59 198.31 66.07C198.83 67.55 200.98 68.56 202.03 67.38C204.31 65.76 204.53 62.52 204.41 59.72C204.29 56.92 204.19 53.78 206.14 51.79C208.09 49.8 212.65 51.18 211.94 53.88C211.51 55.47 209.5 56.38 209.34 58.03C209.18 59.68 211.08 60.88 212.75 61.03C214.42 61.18 216.21 60.86 217.75 61.51C219.29 62.16 220.33 64.51 218.98 65.51C216.61 67.51 211.89 62.81 210.42 65.51C210.02 66.2 210.19 67.08 210.01 67.85C209.46 70.23 206.32 70.67 203.88 70.62C201.44 70.57 198.88 70.42 196.82 69.07C194.76 67.72 193.7 64.64 195.25 62.77C194.15 61.71 192.16 62.32 191.3 63.6C190.579 64.9555 190.263 66.4899 190.39 68.02C187.92 67.09 185.33 68.91 183.57 70.84C181.81 72.77 180.03 75.08 177.45 75.48C174.87 75.88 171.55 74.35 169.93 76.42C167.81 79.12 172.18 83.55 170.04 86.22C168.82 87.72 166.47 87.33 164.54 87.58C159.41 88.26 156.65 95.22 159.45 99.58C162.25 103.94 169 104.67 173.09 101.51C175.93 99.34 177.45 95.93 179.68 93.15C181.91 90.37 185.68 88.15 188.92 89.61C190.155 90.2896 191.24 91.2113 192.11 92.32C193.55 93.93 194.99 95.54 196.43 97.18C197.36 98.18 198.35 99.48 198.06 100.84C197.8 101.93 196.82 102.66 196.3 103.64C194.84 106.46 198.72 109.89 201.65 108.64C204.58 107.39 205.48 103.31 204.01 100.49C202.01 96.6 196.46 94 197.24 89.66C200.53 87.66 204.8 90.87 206.02 94.53C207.24 98.19 206.72 102.19 207.66 105.9C208.6 109.61 212.19 113.34 215.82 112.11C215.37 108.94 214.95 105.81 214.51 102.66C216.9 101.36 218.69 106.42 221.38 106.01C223.02 105.75 223.54 103.52 223.07 101.9C222.6 100.28 221.59 98.83 221.53 97.15C221.48 94.09 225.2 91.9 228.14 92.82C231.08 93.74 232.83 96.93 232.96 99.98C232.897 101.194 232.991 102.41 233.24 103.6C234.03 106.11 236.84 107.24 239.1 108.6C241.36 109.96 243.53 112.72 242.18 114.98C241.56 115.98 240.32 116.81 240.55 117.98C240.78 119.15 242.14 119.61 241.99 120.64C241.87 121.32 241.09 121.64 240.42 121.86C238.7 122.29 236.91 122.25 235.23 122.79C233.55 123.33 231.91 124.61 231.78 126.34C231.63 128.82 234.37 130.42 235.45 132.65C236.53 134.88 235.93 137.33 236.45 139.65C236.94 141.8 238.33 143.65 239.38 145.56C242.64 151.69 242.57 158.96 243.6 165.81C244.06 168.91 245.2 172.45 248.15 173.45C249.808 173.822 251.536 173.739 253.15 173.21C257.79 172.1 262.62 170.9 266.2 167.79C269.78 164.68 271.68 158.99 269.02 155.03C268.726 154.486 268.242 154.069 267.66 153.86C266.826 153.794 265.989 153.957 265.24 154.33C262.86 155.04 260.24 153.79 258.62 151.87C257.133 149.868 256.05 147.596 255.43 145.18C254.58 142.58 253.73 139.96 252.86 137.33C254.49 136.33 256.72 137.16 258.04 138.58C259.36 140 259.99 141.86 260.98 143.51C263.98 148.6 269.69 151.51 275.4 153C276.88 153.296 278.306 153.816 279.63 154.54C283.63 157.15 284 163.73 288.39 165.77C289.61 166.34 291.04 166.47 292.16 167.21C293.85 168.33 294.46 170.52 294.72 172.54C295.2 176.28 294.99 180.13 296.02 183.79C297.05 187.45 299.63 190.99 303.35 191.58C305.717 191.858 308.098 191.185 309.97 189.71C310.65 186.36 311.27 182.99 311.76 179.56C312 178.69 312.08 178 312.13 177.26Z" fill="#E0E0E0"/>
<path d="M240.49 232.6C238.12 232.72 237.49 234.01 235.96 235.53C233.96 237.53 231.34 239.41 229.54 241.39C226.48 244.75 227.91 250.89 224.14 253.54C223.315 253.98 222.514 254.464 221.74 254.99C221.017 255.727 220.612 256.718 220.612 257.75C220.612 258.782 221.017 259.773 221.74 260.51C222.504 261.207 223.455 261.666 224.476 261.833C225.496 262 226.544 261.867 227.49 261.45C229.383 260.576 230.892 259.039 231.73 257.13C232.37 255.79 232.85 254.24 234.09 253.43C236.23 252.04 239 253.7 241.55 253.71C252.39 253.76 250.87 232.07 240.49 232.6Z" fill="#E0E0E0"/>
</svg>
