<svg width="315" height="315" viewBox="0 0 315 315" fill="none" xmlns="http://www.w3.org/2000/svg">
<path d="M184.094 18.3644C180.434 19.3644 176.584 19.1844 172.844 19.6644C170.844 19.9244 168.634 20.5344 167.514 22.2244C166.774 23.3444 166.644 24.7744 166.074 25.9944C164.074 30.3845 157.454 30.7044 154.844 34.7544C154.12 36.0784 153.601 37.5047 153.304 38.9844C151.774 44.6944 148.904 50.4145 143.814 53.4044C142.164 54.4044 140.294 55.0544 138.884 56.3444C137.474 57.6344 136.614 59.8944 137.634 61.5244C140.264 60.6544 142.884 59.8044 145.484 58.9544C147.9 58.3345 150.172 57.2511 152.174 55.7644C154.094 54.1444 155.344 51.5244 154.634 49.1444C154.261 48.3954 154.099 47.5588 154.164 46.7244C154.374 46.1424 154.79 45.6582 155.334 45.3644C159.334 42.7044 164.954 44.5745 168.094 48.1844C171.234 51.7944 172.404 56.5944 173.514 61.2344C174.044 62.8489 174.127 64.5766 173.754 66.2344C172.754 69.1844 169.214 70.3244 166.114 70.7844C159.264 71.7844 151.994 71.7844 145.864 75.0044C143.934 76.0544 142.104 77.4444 139.954 77.9344C137.634 78.4444 135.084 77.8844 132.954 78.9344C130.824 79.9844 129.124 82.7544 126.644 82.6044C124.914 82.4744 123.644 80.8344 123.094 79.1544C122.544 77.4745 122.594 75.6844 122.164 73.9644C121.984 73.2944 121.624 72.5144 120.944 72.3944C119.944 72.2444 119.294 73.6044 118.284 73.8344C117.274 74.0644 116.284 72.8344 115.284 72.2044C113.024 70.8544 110.284 72.9944 108.904 75.2844C107.524 77.5744 106.444 80.3544 103.904 81.1444C102.715 81.3934 101.498 81.4875 100.284 81.4244C97.2844 81.5544 94.0544 83.3244 93.1244 86.2444C92.1944 89.1644 94.3944 92.9044 97.4544 92.8544C99.1344 92.7944 100.594 91.7544 102.204 91.3144C103.814 90.8744 106.054 91.3644 106.314 93.0044C106.724 95.6944 101.664 97.4844 102.964 99.8744C106.114 99.4344 109.244 99.0144 112.414 98.5644C113.644 102.194 109.944 105.794 106.204 106.724C102.464 107.654 98.4644 107.134 94.8344 108.364C91.2044 109.594 87.9844 113.854 89.9644 117.144C94.3044 117.924 96.9044 112.414 100.794 110.374C103.614 108.904 107.714 109.774 108.944 112.734C110.174 115.694 106.734 119.544 103.944 118.084C102.944 117.564 102.234 116.584 101.144 116.324C99.7844 116.034 98.5144 117.024 97.4844 117.954C95.8444 119.394 94.2344 120.834 92.6244 122.274C91.5158 123.145 90.5941 124.23 89.9144 125.464C88.4444 128.704 90.6944 132.464 93.4544 134.704C96.2144 136.944 99.6444 138.454 101.814 141.294C104.974 145.384 104.224 152.154 99.8844 154.934C95.5444 157.714 88.5944 154.934 87.8844 149.844C87.6344 147.914 88.0244 145.564 86.5244 144.344C83.8544 142.204 79.4244 146.574 76.7244 144.454C74.6544 142.834 76.1844 139.544 75.7844 136.934C75.3844 134.324 73.0844 132.594 71.1444 130.814C69.2044 129.034 67.4344 126.484 68.4344 124.024C66.9043 124.152 65.3699 123.836 64.0144 123.114C62.7344 122.254 62.1244 120.264 63.1844 119.164C65.0544 120.714 68.1844 119.634 69.4844 117.594C70.7844 115.554 70.9544 112.984 71.0344 110.534C71.1144 108.084 70.6444 104.954 68.2644 104.404C67.4944 104.224 66.6144 104.404 65.9244 103.994C63.2144 102.524 67.9244 97.8044 65.9244 95.4344C64.9244 94.0844 62.5744 95.0744 61.9244 96.6644C61.2744 98.2544 61.6344 99.9944 61.4444 101.664C61.2544 103.334 60.1044 105.244 58.4444 105.074C56.7844 104.904 55.8844 102.904 54.2944 102.474C51.5944 101.764 50.2044 106.314 52.2044 108.274C54.2044 110.234 57.3444 110.094 60.1344 110.004C62.9244 109.914 66.1344 110.104 67.7944 112.384C68.9744 113.384 67.9644 115.564 66.4844 116.104C65.0044 116.644 63.3644 116.254 61.7944 116.104C60.2244 115.954 58.3444 116.434 57.7144 117.894C57.2644 118.894 57.6144 120.104 57.6044 121.204C57.5044 125.544 51.6044 127.714 47.6844 125.774C43.7644 123.834 41.6844 119.614 40.1844 115.564C39.0544 112.564 38.1344 108.984 40.0644 106.484C40.9644 105.314 42.3144 104.604 43.2344 103.484C44.8144 101.484 44.7444 98.7744 45.1444 96.3044C45.8216 92.3943 47.8322 88.8395 50.8344 86.2444C51.9944 85.2444 53.8344 84.4944 54.8344 85.5244C55.8344 86.5544 55.8344 89.3544 57.4244 89.1044C57.7273 88.412 57.8809 87.6636 57.8753 86.9079C57.8696 86.1522 57.7048 85.4062 57.3916 84.7184C57.0784 84.0306 56.6238 83.4166 56.0574 82.9162C55.491 82.4159 54.8256 82.0404 54.1044 81.8144C54.533 81.1521 55.1281 80.6141 55.8302 80.2543C56.5322 79.8945 57.3165 79.7255 58.1044 79.7644C57.4745 78.8508 57.0416 77.8162 56.8331 76.7263C56.6247 75.6364 56.6452 74.515 56.8935 73.4334C57.1418 72.3518 57.6124 71.3338 58.2753 70.4439C58.9383 69.5541 59.7791 68.8118 60.7444 68.2644C61.8641 67.8581 62.9059 67.2628 63.8244 66.5044C64.6044 65.6144 64.5344 63.8544 63.3944 63.5644C63.0293 63.4799 62.6496 63.4799 62.2844 63.5644C60.5344 63.9144 58.8044 64.2844 57.0744 64.6344C56.1844 62.1844 58.4844 59.7644 60.7644 58.5144C69.2644 53.8944 65.2544 49.1244 67.6744 41.2244C69.2944 35.8744 73.1444 33.9844 77.8344 31.5044C92.2444 23.9344 104.744 12.9744 119.614 6.34442C121.168 5.67776 122.734 5.04446 124.314 4.44445C123.924 4.53445 123.544 4.6044 123.154 4.7044C113.82 6.78088 104.703 9.734 95.9244 13.5244C94.0544 14.3344 92.2144 15.1644 90.3844 16.0244C89.2544 16.5644 88.1044 17.1244 86.9944 17.6945C85.5344 18.4044 84.1244 19.1745 82.7144 19.9445C81.5744 20.5644 80.4544 21.1744 79.3644 21.8144C78.5944 22.2544 77.8344 22.7245 77.0644 23.1844C76.2944 23.6444 75.3444 24.1844 74.4844 24.7644L71.8044 26.4744C71.5344 26.6444 71.2544 26.8244 70.9744 27.0344C70.0444 27.6244 69.1244 28.2644 68.2044 28.9144C68.0962 28.9473 67.9993 29.0096 67.9244 29.0944C67.6778 29.2678 67.4278 29.4478 67.1744 29.6344C66.3944 30.1544 65.6344 30.7144 64.8844 31.2544C63.6544 32.1544 62.4244 33.0744 61.2344 34.0344C60.2344 34.8044 59.2344 35.6144 58.2344 36.4444C57.2344 37.2744 56.4744 37.8944 55.6144 38.6444C54.7544 39.3944 53.9244 40.1044 53.0944 40.8644C52.0944 41.7644 51.0444 42.6944 50.0344 43.6444C47.2244 46.2644 44.5244 49.0045 41.9644 51.8344C41.3144 52.5345 40.6844 53.2245 40.0644 53.9344C39.4444 54.6444 38.7944 55.3744 38.1944 56.0944C37.5944 56.8144 36.9644 57.5444 36.3744 58.2844C35.7844 59.0244 35.1644 59.7544 34.5844 60.4944C34.0044 61.2344 33.5844 61.6844 33.1944 62.3044C32.9399 62.5969 32.7028 62.9041 32.4844 63.2244C31.4844 64.5044 30.4844 65.8144 29.6144 67.1344C29.1444 67.7944 28.6744 68.4544 28.2244 69.1344C27.6244 69.9744 27.0544 70.8445 26.5044 71.7144C26.4064 71.8365 26.3194 71.967 26.2444 72.1044C25.7344 72.8844 25.2444 73.6544 24.7244 74.4644C24.0344 75.5945 23.3544 76.7144 22.7244 77.8444C21.9644 79.1344 21.2044 80.4344 20.4844 81.7544C19.7644 83.0744 18.8844 84.6744 18.1444 86.1644C17.4044 87.6544 16.6344 89.1644 15.9144 90.7044C15.1944 92.2444 14.5244 93.7544 13.8444 95.3044C12.5244 98.3644 11.2944 101.494 10.1644 104.654L10.0944 104.824C9.66444 106.034 9.24444 107.254 8.86444 108.474C8.82301 108.55 8.79269 108.631 8.77443 108.714C8.60443 109.234 8.42444 109.784 8.26444 110.344C7.53444 112.614 6.88444 114.914 6.26444 117.254C6.17444 117.524 6.11444 117.814 6.04444 118.104C5.84444 118.774 5.69443 119.454 5.52443 120.104C5.14443 121.654 4.79444 123.204 4.47444 124.784C4.15444 126.364 3.79444 128.064 3.47444 129.724C3.15444 131.384 2.87444 133.184 2.62444 134.924C1.95777 139.538 1.5011 144.128 1.25444 148.694C1.17444 149.784 1.12444 150.854 1.09444 151.924C1.06444 152.994 1.01444 154.164 1.00444 155.284C0.994438 156.404 1.00444 157.534 1.00444 158.644C1.00444 159.754 1.00444 160.874 1.06444 162.004C1.06444 162.954 1.11444 163.934 1.17444 164.894C1.2811 167.268 1.44111 169.618 1.65444 171.944C1.74444 173.034 1.86444 174.134 2.00444 175.224C2.14444 176.314 2.26444 177.414 2.41444 178.484C2.65444 180.304 2.94444 182.064 3.24444 183.834L4.04444 188.154C4.03639 188.187 4.03639 188.222 4.04444 188.254C4.33444 189.724 4.65444 191.144 5.04444 192.604L5.04444 192.834C5.35444 194.154 5.68444 195.474 6.04444 196.774C6.45444 198.414 6.92444 200.034 7.39444 201.624C7.79444 202.984 8.20444 204.324 8.64444 205.624C9.08444 206.924 9.58444 208.464 10.0844 209.864L10.0844 210.024C10.5644 211.364 11.0844 212.714 11.6044 214.024C12.1244 215.334 12.6844 216.754 13.2844 218.124C13.8244 219.404 14.3644 220.664 14.9344 221.914C15.1444 222.394 15.3744 222.854 15.6044 223.344C16.2144 224.684 16.8544 225.974 17.5144 227.344C18.3044 228.964 19.1544 230.534 20.0044 232.114C20.7544 233.494 21.5344 234.854 22.3144 236.194C26.832 243.929 32.0079 251.259 37.7844 258.104C39.7844 260.524 41.8644 262.824 43.9844 265.104C45.8144 267.014 47.6644 268.884 49.6044 270.694C49.6044 270.294 49.6044 269.894 49.6544 269.504C49.8044 267.274 50.2144 264.954 49.5444 262.834C48.9044 260.834 47.4444 259.324 46.5444 257.484C44.1244 252.784 44.5444 245.714 39.6344 243.824C37.9744 243.184 36.0444 243.384 34.4944 242.504C31.6044 240.864 31.7544 236.704 32.2844 233.424C32.4844 232.034 32.9144 230.424 34.2844 229.954C34.7676 229.846 35.268 229.84 35.7537 229.936C36.2393 230.033 36.6994 230.23 37.1044 230.514C42.5733 233.397 46.8818 238.077 49.3044 243.764C51.3044 248.404 52.4944 254.264 57.1744 256.134C58.9044 255.784 59.1744 252.784 60.9644 252.784C62.3644 252.784 62.8144 254.674 63.9644 255.494C65.6244 256.684 68.1145 254.864 68.3145 252.814C68.5144 250.764 67.3145 248.864 66.1244 247.174C62.6244 242.114 58.8444 236.784 53.1944 234.314C50.8644 233.314 48.0544 232.624 46.7244 230.424C46.3858 229.758 46.2064 229.021 46.2002 228.273C46.1939 227.525 46.3611 226.786 46.6886 226.114C47.0161 225.441 47.495 224.854 48.0876 224.398C48.6803 223.942 49.3706 223.629 50.1044 223.484C49.3044 221.394 48.9344 218.254 51.1044 217.544C51.8854 217.427 52.6773 217.401 53.4644 217.464C56.6944 217.274 58.7344 213.194 61.9644 213.204C65.6844 213.204 66.8944 218.204 66.9644 221.914C66.9644 225.294 67.0345 228.674 67.0944 232.064C66.9888 233.539 67.2391 235.017 67.8244 236.374C68.1411 237.046 68.6778 237.588 69.3454 237.912C70.0131 238.236 70.7714 238.321 71.4944 238.154C72.2203 237.754 72.8923 237.264 73.4944 236.694C76.6344 234.344 81.9644 237.424 81.4944 241.314C81.3444 242.644 80.6745 243.874 80.4245 245.184C79.6944 249.084 82.6944 252.694 85.8844 255.064C89.0744 257.434 92.8144 259.394 94.7144 262.874C97.7844 268.464 95.6444 277.044 101.124 280.334C103.334 281.654 106.054 281.524 108.634 281.504C111.214 281.484 114.014 281.704 115.884 283.504C117.754 285.304 117.624 289.084 115.164 289.834C114.062 290.05 112.921 289.935 111.884 289.504C108.344 288.391 104.801 287.294 101.254 286.214C98.6145 285.414 95.6545 284.604 93.2545 285.884C89.8445 287.664 89.4144 292.704 91.4744 295.954C93.5344 299.204 97.2345 300.954 100.814 302.294C103.474 303.294 107.254 304.524 110.164 306.494C113.164 307.494 116.164 308.314 119.224 309.084C122.284 309.854 125.494 310.544 128.714 311.134C128.415 310.638 128.081 310.164 127.714 309.714C126.344 307.934 120.054 303.844 123.764 301.534C124.247 301.25 124.81 301.135 125.366 301.205C125.922 301.276 126.438 301.529 126.834 301.924C127.834 302.924 127.834 304.694 128.914 305.534C130.224 306.534 132.144 305.674 133.274 304.484C134.404 303.294 135.274 301.764 136.724 301.024C139.554 299.614 143.204 301.894 146.084 300.534C148.554 299.364 149.164 296.194 149.844 293.534L150.134 292.624C144.844 291.084 140.824 287.924 140.224 280.334C139.384 269.854 149.724 257.734 158.224 253.134C167.704 247.994 180.224 246.734 185.944 237.594C190.024 231.054 190.354 220.964 197.684 218.544C204.254 216.394 210.374 222.684 217.044 224.474C221.464 225.634 226.134 224.814 230.664 225.124C235.194 225.434 240.274 227.534 241.574 231.904C242.274 234.334 241.734 237.184 243.184 239.264C245.804 242.974 252.564 241.264 255.184 244.934C256.094 246.234 256.254 247.884 256.764 249.384C259.404 257.254 270.214 258.614 278.184 256.294L279.024 256.034C296.854 234.099 308.407 207.741 312.454 179.764C316.157 154.426 313.553 128.566 304.874 104.474C300.213 91.5914 293.897 79.369 286.084 68.1144C282.819 63.4028 279.287 58.8821 275.504 54.5744C272.894 51.5744 270.134 48.6444 267.294 45.8344C265.824 44.3944 264.344 42.9744 262.814 41.6344C251.811 31.5549 239.397 23.1331 225.964 16.6345C217.76 12.669 209.216 9.44936 200.434 7.01446C197.014 6.01446 193.544 5.16442 190.024 4.41442C191.5 6.28643 192.172 8.6672 191.894 11.0344C191.294 14.7544 187.734 17.3644 184.094 18.3644Z" fill="#E6EEF2"/>
<path d="M49.6044 270.694C47.6644 268.884 45.8144 267.014 43.9844 265.104C41.8644 262.824 39.7844 260.524 37.7844 258.104C32.0079 251.259 26.832 243.929 22.3144 236.194C21.5344 234.854 20.7544 233.494 20.0044 232.114C19.1544 230.534 18.3044 228.964 17.5144 227.344C16.8544 225.974 16.2144 224.684 15.6044 223.344C15.3744 222.854 15.1444 222.394 14.9344 221.914C14.3644 220.664 13.8244 219.404 13.2844 218.124C12.6844 216.754 12.1244 215.334 11.6044 214.024C11.0844 212.714 10.5644 211.364 10.0844 210.024L10.0844 209.864C9.58444 208.464 9.08444 206.924 8.64444 205.624C8.20444 204.324 7.79444 202.984 7.39444 201.624C6.92444 200.034 6.45444 198.414 6.04444 196.774C5.68444 195.474 5.35444 194.154 5.04444 192.834L5.04444 192.604C4.65444 191.144 4.33444 189.724 4.04444 188.254C4.03639 188.222 4.03639 188.187 4.04444 188.154L3.24444 183.834C2.94444 182.064 2.65444 180.304 2.41444 178.484C2.26444 177.414 2.14444 176.314 2.00444 175.224C1.86444 174.134 1.74444 173.034 1.65444 171.944C1.44111 169.618 1.2811 167.268 1.17444 164.894C1.11444 163.934 1.06444 162.954 1.06444 162.004C1.00444 160.874 1.00444 159.754 1.00444 158.644C1.00444 157.534 0.994438 156.404 1.00444 155.284C1.01444 154.164 1.06444 152.994 1.09444 151.924C1.12444 150.854 1.17444 149.784 1.25444 148.694C1.5011 144.128 1.95777 139.538 2.62444 134.924C2.87444 133.184 3.15444 131.384 3.47444 129.724C3.79444 128.064 4.15444 126.364 4.47444 124.784C4.79444 123.204 5.14443 121.654 5.52443 120.104C5.69443 119.454 5.84444 118.774 6.04444 118.104C6.11444 117.814 6.17444 117.524 6.26444 117.254C6.88444 114.914 7.53444 112.614 8.26444 110.344C8.42444 109.784 8.60443 109.234 8.77443 108.714C8.79269 108.631 8.82301 108.55 8.86444 108.474C9.24444 107.254 9.66444 106.034 10.0944 104.824L10.1644 104.654C11.2944 101.494 12.5244 98.3644 13.8444 95.3044C14.5244 93.7544 15.1944 92.2444 15.9144 90.7044C16.6344 89.1644 17.4044 87.6544 18.1444 86.1644C18.8844 84.6744 19.7644 83.0744 20.4844 81.7544C21.2044 80.4344 21.9644 79.1344 22.7244 77.8444C23.3544 76.7144 24.0344 75.5944 24.7244 74.4644C25.2444 73.6544 25.7344 72.8844 26.2444 72.1044C26.3194 71.967 26.4064 71.8365 26.5044 71.7144C27.0544 70.8444 27.6244 69.9744 28.2244 69.1344C28.6744 68.4544 29.1444 67.7944 29.6144 67.1344C30.4844 65.8144 31.4844 64.5044 32.4844 63.2244C32.7028 62.9041 32.9399 62.5969 33.1944 62.3044C33.5844 61.6844 34.0044 61.2344 34.5844 60.4944C35.1644 59.7544 35.7844 59.0244 36.3744 58.2844C36.9644 57.5444 37.5944 56.8144 38.1944 56.0944C38.7944 55.3744 39.4444 54.6444 40.0644 53.9344C40.6844 53.2244 41.3144 52.5344 41.9644 51.8344C44.5244 49.0044 47.2244 46.2644 50.0344 43.6444C51.0444 42.6944 52.0944 41.7644 53.0944 40.8644C53.9244 40.1044 54.7544 39.3944 55.6144 38.6444C56.4744 37.8944 57.2344 37.2744 58.2344 36.4444C59.2344 35.6144 60.2344 34.8044 61.2344 34.0344C62.4244 33.0744 63.6544 32.1544 64.8844 31.2544C65.6344 30.7144 66.3944 30.1544 67.1744 29.6344C67.4278 29.4478 67.6778 29.2678 67.9244 29.0944C67.9993 29.0096 68.0962 28.9473 68.2044 28.9144C69.1244 28.2644 70.0444 27.6244 70.9744 27.0344C71.2544 26.8244 71.5344 26.6444 71.8044 26.4744L74.4844 24.7644C75.3444 24.1844 76.2944 23.6444 77.0644 23.1844C77.8344 22.7244 78.5944 22.2544 79.3644 21.8144C80.4544 21.1744 81.5744 20.5645 82.7144 19.9445C84.1244 19.1745 85.5344 18.4045 86.9944 17.6945C88.1044 17.1245 89.2544 16.5644 90.3844 16.0244C92.2144 15.1644 94.0544 14.3344 95.9244 13.5244C104.703 9.734 113.82 6.78089 123.154 4.7044C123.544 4.6044 123.924 4.53445 124.314 4.44445C122.734 5.04445 121.168 5.67775 119.614 6.34442C104.744 12.9744 92.2444 23.9344 77.8344 31.5044C73.1444 33.9844 69.2944 35.8744 67.6744 41.2244C65.2544 49.1244 69.2644 53.8944 60.7644 58.5144C58.4844 59.7644 56.1844 62.1844 57.0744 64.6344C58.8044 64.2844 60.5344 63.9144 62.2844 63.5644C62.6496 63.4799 63.0293 63.4799 63.3944 63.5644C64.5344 63.8544 64.6044 65.6144 63.8244 66.5044C62.9059 67.2628 61.8641 67.8581 60.7444 68.2644C59.7792 68.8118 58.9383 69.5541 58.2753 70.4439C57.6124 71.3338 57.1418 72.3519 56.8935 73.4334C56.6452 74.515 56.6247 75.6364 56.8331 76.7263C57.0416 77.8162 57.4745 78.8508 58.1044 79.7644C57.3165 79.7255 56.5322 79.8945 55.8302 80.2543C55.1281 80.6141 54.533 81.1521 54.1044 81.8144C54.8256 82.0404 55.491 82.4159 56.0574 82.9162C56.6238 83.4166 57.0784 84.0306 57.3916 84.7184C57.7048 85.4061 57.8696 86.1522 57.8753 86.9079C57.8809 87.6636 57.7273 88.412 57.4244 89.1044C55.8344 89.3544 55.8344 86.5544 54.8344 85.5244C53.8344 84.4944 51.9944 85.2444 50.8344 86.2444C47.8322 88.8395 45.8216 92.3943 45.1444 96.3044C44.7444 98.7744 44.8144 101.484 43.2344 103.484C42.3144 104.604 40.9644 105.314 40.0644 106.484C38.1344 108.984 39.0544 112.564 40.1844 115.564C41.6844 119.614 43.7644 123.834 47.6844 125.774C51.6044 127.714 57.5044 125.544 57.6044 121.204C57.6144 120.104 57.2644 118.894 57.7144 117.894C58.3444 116.434 60.2244 115.954 61.7944 116.104C63.3644 116.254 65.0044 116.644 66.4844 116.104C67.9644 115.564 68.9744 113.384 67.7944 112.384C66.1344 110.104 62.9244 109.914 60.1344 110.004C57.3444 110.094 54.2044 110.234 52.2044 108.274C50.2044 106.314 51.5944 101.764 54.2944 102.474C55.8844 102.904 56.7844 104.904 58.4444 105.074C60.1044 105.244 61.2544 103.334 61.4444 101.664C61.6344 99.9944 61.2744 98.2544 61.9244 96.6644C62.5744 95.0744 64.9244 94.0844 65.9244 95.4344C67.9244 97.8044 63.2144 102.524 65.9244 103.994C66.6144 104.404 67.4944 104.224 68.2644 104.404C70.6444 104.954 71.1144 108.084 71.0344 110.534C70.9544 112.984 70.7844 115.554 69.4844 117.594C68.1844 119.634 65.0544 120.714 63.1844 119.164C62.1244 120.264 62.7344 122.254 64.0144 123.114C65.3699 123.836 66.9043 124.152 68.4344 124.024C67.4344 126.484 69.2044 129.034 71.1444 130.814C73.0844 132.594 75.3844 134.324 75.7844 136.934C76.1844 139.544 74.6544 142.834 76.7244 144.454C79.4244 146.574 83.8544 142.204 86.5244 144.344C88.0244 145.564 87.6344 147.914 87.8844 149.844C88.5944 154.934 95.5444 157.714 99.8844 154.934C104.224 152.154 104.974 145.384 101.814 141.294C99.6444 138.454 96.2144 136.944 93.4544 134.704C90.6944 132.464 88.4444 128.704 89.9144 125.464C90.5941 124.23 91.5158 123.145 92.6244 122.274C94.2344 120.834 95.8444 119.394 97.4844 117.954C98.5144 117.024 99.7844 116.034 101.144 116.324C102.234 116.584 102.944 117.564 103.944 118.084C106.734 119.544 110.174 115.694 108.944 112.734C107.714 109.774 103.614 108.904 100.794 110.374C96.9044 112.414 94.3044 117.924 89.9644 117.144C87.9844 113.854 91.2044 109.594 94.8344 108.364C98.4644 107.134 102.464 107.654 106.204 106.724C109.944 105.794 113.644 102.194 112.414 98.5644C109.244 99.0144 106.114 99.4344 102.964 99.8744C101.664 97.4844 106.724 95.6944 106.314 93.0044C106.054 91.3644 103.814 90.8744 102.204 91.3144C100.594 91.7544 99.1344 92.7944 97.4544 92.8544C94.3944 92.9044 92.1944 89.1644 93.1244 86.2444C94.0544 83.3244 97.2844 81.5544 100.284 81.4244C101.498 81.4875 102.715 81.3934 103.904 81.1444C106.444 80.3544 107.524 77.5744 108.904 75.2844C110.284 72.9944 113.024 70.8544 115.284 72.2044C116.284 72.8344 117.274 74.0644 118.284 73.8344C119.294 73.6044 119.944 72.2444 120.944 72.3944C121.624 72.5144 121.984 73.2944 122.164 73.9644C122.594 75.6844 122.544 77.4744 123.094 79.1544C123.644 80.8344 124.914 82.4744 126.644 82.6044C129.124 82.7544 130.824 79.9844 132.954 78.9344C135.084 77.8844 137.634 78.4444 139.954 77.9344C142.104 77.4444 143.934 76.0544 145.864 75.0044C151.994 71.7844 159.264 71.7844 166.114 70.7844C169.214 70.3244 172.754 69.1844 173.754 66.2344C174.127 64.5766 174.044 62.8489 173.514 61.2344C172.404 56.5944 171.234 51.7944 168.094 48.1844C164.954 44.5744 159.334 42.7044 155.334 45.3644C154.79 45.6582 154.374 46.1424 154.164 46.7244C154.099 47.5588 154.261 48.3954 154.634 49.1444C155.344 51.5244 154.094 54.1444 152.174 55.7644C150.172 57.2511 147.9 58.3345 145.484 58.9544C142.884 59.8044 140.264 60.6544 137.634 61.5244C136.614 59.8944 137.474 57.6344 138.884 56.3444C140.294 55.0544 142.164 54.4044 143.814 53.4044C148.904 50.4144 151.774 44.6944 153.304 38.9844C153.601 37.5047 154.12 36.0784 154.844 34.7544C157.454 30.7044 164.074 30.3844 166.074 25.9944C166.644 24.7744 166.774 23.3444 167.514 22.2244C168.634 20.5344 170.844 19.9244 172.844 19.6644C176.584 19.1844 180.434 19.3644 184.094 18.3644C187.734 17.3644 191.294 14.7544 191.894 11.0344C192.172 8.66719 191.5 6.28641 190.024 4.41442C193.544 5.16442 197.014 6.01446 200.434 7.01446C209.216 9.44937 217.76 12.669 225.964 16.6345C239.397 23.1331 251.811 31.5549 262.814 41.6344C264.344 42.9744 265.824 44.3944 267.294 45.8344C270.134 48.6444 272.894 51.5744 275.504 54.5744C279.287 58.8821 282.819 63.4028 286.084 68.1144C293.897 79.369 300.213 91.5914 304.874 104.474C313.553 128.566 316.157 154.426 312.454 179.764C308.407 207.741 296.854 234.099 279.024 256.034L278.184 256.294C270.214 258.614 259.404 257.254 256.764 249.384C256.254 247.884 256.094 246.234 255.184 244.934C252.564 241.264 245.804 242.974 243.184 239.264C241.734 237.184 242.274 234.334 241.574 231.904C240.274 227.534 235.194 225.434 230.664 225.124C226.134 224.814 221.464 225.634 217.044 224.474C210.374 222.684 204.254 216.394 197.684 218.544C190.354 220.964 190.024 231.054 185.944 237.594C180.224 246.734 167.704 247.994 158.224 253.134C149.724 257.734 139.384 269.854 140.224 280.334C140.824 287.924 144.844 291.084 150.134 292.624L149.844 293.534C149.164 296.194 148.554 299.364 146.084 300.534C143.204 301.894 139.554 299.614 136.724 301.024C135.274 301.764 134.404 303.294 133.274 304.484C132.144 305.674 130.224 306.534 128.914 305.534C127.834 304.694 127.834 302.924 126.834 301.924C126.438 301.529 125.922 301.276 125.366 301.205C124.81 301.135 124.247 301.25 123.764 301.534C120.054 303.844 126.344 307.934 127.714 309.714C128.081 310.164 128.415 310.638 128.714 311.134C125.494 310.544 122.284 309.854 119.224 309.084C116.164 308.314 113.164 307.494 110.164 306.494C107.254 304.524 103.474 303.294 100.814 302.294C97.2345 300.954 93.5344 299.204 91.4744 295.954C89.4144 292.704 89.8445 287.664 93.2545 285.884C95.6545 284.604 98.6145 285.414 101.254 286.214C104.801 287.294 108.344 288.391 111.884 289.504C112.921 289.935 114.062 290.05 115.164 289.834C117.624 289.084 117.754 285.304 115.884 283.504C114.014 281.704 111.214 281.484 108.634 281.504C106.054 281.524 103.334 281.654 101.124 280.334C95.6444 277.044 97.7844 268.464 94.7144 262.874C92.8144 259.394 89.0744 257.434 85.8844 255.064C82.6944 252.694 79.6945 249.084 80.4245 245.184C80.6745 243.874 81.3444 242.644 81.4944 241.314C81.9644 237.424 76.6344 234.344 73.4944 236.694C72.8923 237.264 72.2203 237.754 71.4944 238.154C70.7714 238.321 70.0131 238.236 69.3454 237.912C68.6778 237.588 68.1411 237.046 67.8244 236.374C67.2391 235.017 66.9888 233.539 67.0944 232.064C67.0344 228.674 66.9644 225.294 66.9644 221.914C66.8944 218.204 65.6844 213.204 61.9644 213.204C58.7344 213.194 56.6944 217.274 53.4644 217.464C52.6773 217.401 51.8854 217.427 51.1044 217.544C48.9344 218.254 49.3044 221.394 50.1044 223.484C49.3706 223.629 48.6803 223.942 48.0876 224.398C47.495 224.854 47.0161 225.441 46.6886 226.114C46.3611 226.786 46.1939 227.525 46.2002 228.273C46.2064 229.021 46.3858 229.758 46.7244 230.424C48.0544 232.624 50.8644 233.314 53.1944 234.314C58.8444 236.784 62.6244 242.114 66.1244 247.174C67.3144 248.864 68.5145 250.764 68.3145 252.814C68.1145 254.864 65.6244 256.684 63.9644 255.494C62.8144 254.674 62.3644 252.784 60.9644 252.784C59.1744 252.784 58.9044 255.784 57.1744 256.134C52.4944 254.264 51.3044 248.404 49.3044 243.764C46.8818 238.077 42.5733 233.397 37.1044 230.514C36.6994 230.23 36.2393 230.033 35.7537 229.936C35.268 229.84 34.7675 229.846 34.2844 229.954C32.9144 230.424 32.4844 232.034 32.2844 233.424C31.7544 236.704 31.6044 240.864 34.4944 242.504C36.0444 243.384 37.9744 243.184 39.6344 243.824C44.5444 245.714 44.1244 252.784 46.5444 257.484C47.4444 259.324 48.9044 260.834 49.5444 262.834C50.2144 264.954 49.8044 267.274 49.6544 269.504C49.6044 269.894 49.6044 270.294 49.6044 270.694ZM49.6044 270.694C51.2844 272.314 53.0144 273.894 54.7744 275.424" stroke="black" stroke-width="0.5"/>
<path d="M106.042 139.218C105.191 137.649 104.948 136.034 105.157 134.381C105.579 131.056 107.828 127.57 110.681 124.025C112.103 122.257 113.666 120.486 115.211 118.721C116.755 116.958 118.281 115.201 119.622 113.471C122.294 110.024 124.28 106.621 124.164 103.415L124.164 103.414C124.094 101.606 123.76 99.7502 123.575 97.9748C123.389 96.1811 123.348 94.4323 123.834 92.7443C124.698 89.7734 126.917 87.731 129.724 86.2678C132.533 84.8034 135.905 83.933 139.025 83.299C149.398 81.1924 159.768 79.0894 170.134 76.9894C172.11 76.5892 174.224 76.102 176.097 75.2687C177.973 74.4344 179.626 73.2447 180.661 71.4279L180.662 71.4269C181.446 70.0346 181.739 68.4604 182.018 66.9318C182.299 65.3883 182.567 63.8915 183.275 62.5724C185.133 59.1155 188.851 58.3616 192.725 59.3566C196.6 60.3519 200.545 63.0855 202.714 66.4689C203.806 68.1766 204.758 70.0226 205.685 71.9006C206.61 73.7748 207.514 75.6863 208.501 77.5051C210.477 81.1438 212.815 84.4621 216.442 86.5021L216.443 86.5021C219.17 88.0308 222.283 88.592 225.332 89.1652C228.397 89.7414 231.4 90.3307 233.995 91.8888C235.847 93.0036 237.366 94.5398 238.842 96.1789C240.31 97.8098 241.744 99.5535 243.398 101.03C248.739 105.806 256.017 107.582 262.781 109.663C269.57 111.753 276.596 114.643 280.343 120.558C282.204 123.496 282.725 127.369 281.94 130.753C281.155 134.136 279.078 136.987 275.784 137.954C273.988 138.48 272.115 138.403 270.184 138.227C268.267 138.052 266.282 137.778 264.333 137.945C261.788 138.164 259.432 139.115 257.123 140.142C254.948 141.109 252.821 142.14 250.577 142.737L250.126 142.851C246.523 143.706 242.781 143.345 239.037 142.912L237.433 142.726C214.53 140.114 189.897 142.153 170.712 154.951L169.802 155.569L168.913 156.199C166.848 157.706 164.881 159.484 163.874 161.857L163.873 161.86L163.754 162.168C163.186 163.718 163.048 165.395 163.358 167.02C163.688 168.753 164.513 170.353 165.734 171.627L165.738 171.631C166.498 172.397 167.402 173.03 168.235 173.669C169.077 174.316 169.857 174.975 170.428 175.815C171.659 177.626 171.56 179.87 170.609 181.892C169.656 183.915 167.864 185.676 165.783 186.491C161.578 188.138 156.847 187.114 152.341 186.111C146.768 184.824 141.197 183.541 135.63 182.261L135.629 182.262C132.684 181.548 129.702 180.809 127.764 178.631C126.414 177.073 125.858 175.087 125.392 172.982C124.93 170.896 124.555 168.68 123.534 166.777L123.533 166.775C122.169 164.282 119.899 162.658 117.458 161.231C114.999 159.793 112.392 158.564 110.231 156.839C108.12 155.154 106.867 152.108 106.827 149.417C106.808 148.075 107.091 146.846 107.696 145.929C108.295 145.021 109.219 144.404 110.528 144.283L111.24 144.218L110.642 143.825C108.368 142.334 106.896 140.791 106.042 139.218Z" stroke="black" stroke-width="0.5"/>
<path d="M266.044 270.064C262.651 273.344 259.114 276.461 255.434 279.414C251.297 282.735 246.992 285.839 242.534 288.714C239.324 290.834 236.014 292.804 232.644 294.624C229.134 296.594 225.524 298.374 221.854 300.044C218.854 301.384 215.854 302.654 212.854 303.764C205.804 306.478 198.56 308.661 191.184 310.294C174.589 313.954 157.508 314.88 140.614 313.034C140.244 313.004 139.904 312.954 139.534 312.904C138.784 312.824 138.024 312.714 137.264 312.614C136.504 312.514 135.744 312.434 134.984 312.324C134.054 312.184 133.144 312.034 132.204 311.874C131.264 311.714 130.324 311.584 129.414 311.414C129.128 311.373 128.845 311.316 128.564 311.244C128.263 310.746 127.929 310.269 127.564 309.814C126.194 308.044 119.904 303.954 123.614 301.644C124.097 301.36 124.66 301.245 125.216 301.315C125.772 301.386 126.288 301.639 126.684 302.034C127.664 303.054 127.664 304.804 128.764 305.644C130.074 306.654 131.974 305.784 133.124 304.594C134.274 303.404 135.094 301.874 136.574 301.134C139.404 299.724 143.054 302.004 145.934 300.644C148.404 299.494 149.014 296.324 149.694 293.644L149.984 292.734C144.694 291.194 140.674 288.034 140.074 280.444C139.264 269.964 149.604 257.844 158.074 253.244C167.554 248.104 180.094 246.844 185.794 237.704C189.874 231.164 190.204 221.074 197.534 218.654C204.104 216.484 210.224 222.794 216.864 224.614C221.284 225.774 225.924 224.934 230.484 225.264C235.044 225.594 240.094 227.674 241.394 232.044C242.094 234.474 241.554 237.324 243.004 239.404C245.624 243.074 252.384 241.364 255.004 245.074C255.914 246.374 256.074 248.024 256.584 249.524C259.224 257.434 270.004 258.754 278.004 256.434L278.844 256.174C278.144 257.054 277.444 257.904 276.724 258.744C275.694 259.964 274.644 261.154 273.574 262.334C272.508 263.508 271.421 264.664 270.314 265.804C268.934 267.254 267.524 268.674 266.044 270.064ZM266.044 270.064C243.624 274.914 220.844 279.274 200.444 289.414M165.494 295.024C163.174 294.654 160.744 294.414 158.364 294.154L158.344 294.154C160.724 294.414 163.154 294.654 165.494 295.024ZM165.494 295.024C165.924 295.094 166.354 295.184 166.794 295.284M151.104 303.004C151.663 303.149 152.252 303.122 152.794 302.924C153.151 302.701 153.424 302.367 153.574 301.974M173.334 297.084C175.073 297.597 176.865 297.909 178.674 298.014C181.725 298.023 184.743 297.378 187.524 296.124M155.434 296.354C155.644 295.534 155.834 294.704 155.994 293.874C155.814 294.704 155.624 295.484 155.434 296.354ZM143.794 307.094C145.624 304.974 147.794 303.094 150.474 302.984C147.814 303.054 145.604 304.974 143.774 307.094L143.794 307.094ZM188.184 295.834C188.804 295.564 189.424 295.274 190.034 294.974C189.434 295.274 188.804 295.564 188.184 295.834Z" stroke="black" stroke-width="0.5"/>
<path d="M91.3444 296.084C89.2844 292.834 89.7144 287.794 93.1244 286.014C95.5644 284.734 98.5244 285.544 101.124 286.344C104.664 287.431 108.208 288.528 111.754 289.634C112.791 290.065 113.932 290.18 115.034 289.964C117.494 289.214 117.604 285.374 115.754 283.634C113.904 281.894 111.064 281.634 108.504 281.634C105.944 281.634 103.204 281.784 100.994 280.464C95.5144 277.174 97.6544 268.594 94.5844 263.004C92.6844 259.524 88.9444 257.554 85.7544 255.194C82.5644 252.834 79.5644 249.194 80.2944 245.314C80.5444 244.004 81.2144 242.774 81.3644 241.444C81.7944 237.554 76.4644 234.444 73.3644 236.824C72.7623 237.394 72.0902 237.884 71.3644 238.284C70.6414 238.451 69.883 238.366 69.2154 238.042C68.5477 237.718 68.011 237.175 67.6944 236.504C67.1091 235.147 66.8587 233.669 66.9644 232.194C66.9044 228.804 66.8744 225.424 66.8344 222.044C66.8344 218.304 65.5844 213.354 61.8344 213.334C58.6044 213.334 56.5644 217.404 53.3344 217.594C52.5472 217.531 51.7554 217.557 50.9744 217.674C48.8144 218.384 49.1844 221.524 49.9744 223.614C49.2406 223.759 48.5502 224.072 47.9576 224.528C47.3649 224.984 46.8861 225.571 46.5586 226.244C46.2311 226.916 46.0639 227.655 46.0701 228.403C46.0763 229.151 46.2558 229.888 46.5944 230.554C47.9244 232.754 50.7344 233.404 53.0644 234.444C58.7144 236.914 62.4944 242.244 65.9944 247.304C67.1544 248.994 68.3744 250.894 68.1844 252.944C67.9944 254.994 65.4944 256.814 63.8344 255.624C62.7044 254.804 62.2544 252.944 60.8344 252.914C59.0844 252.914 58.7744 255.914 57.0444 256.264C52.3644 254.394 51.1544 248.534 49.1744 243.894C46.7518 238.207 42.4433 233.527 36.9744 230.644C36.5694 230.36 36.1093 230.163 35.6236 230.066C35.138 229.97 34.6375 229.976 34.1544 230.084C32.8344 230.544 32.4044 232.164 32.1544 233.554C31.6244 236.834 31.4744 240.994 34.3644 242.634C35.9144 243.514 37.8444 243.314 39.5044 243.954C44.4344 245.844 43.9944 252.954 46.4144 257.614C47.3444 259.454 48.8044 260.994 49.4144 262.964C50.0844 265.084 49.6744 267.404 49.5244 269.634C49.5244 270.024 49.5244 270.424 49.4744 270.824C51.1544 272.444 52.8844 274.024 54.6444 275.554C56.4044 277.084 58.2044 278.554 60.0344 280.034C68.704 286.944 78.0912 292.902 88.0344 297.804C91.5277 299.538 95.0977 301.134 98.7444 302.594C102.391 304.054 106.111 305.388 109.904 306.594C106.994 304.594 103.214 303.374 100.554 302.394C97.1044 301.074 93.4344 299.314 91.3444 296.084Z" stroke="black" stroke-width="0.5"/>
<path d="M177.694 2.35443C175.461 2.04109 173.238 1.78775 171.024 1.59442C168.811 1.40108 166.598 1.25441 164.384 1.15441C162.594 1.06441 160.824 1.01445 159.044 1.00445C157.264 0.99445 155.304 1.00445 153.444 1.00445C147.888 1.1267 142.343 1.55734 136.834 2.29443C134.734 2.57443 132.634 2.90443 130.554 3.29443C128.474 3.68443 126.404 4.06446 124.334 4.51446C122.754 5.08779 121.188 5.72109 119.634 6.41443C104.764 13.0444 92.2645 24.0044 77.8545 31.5744C73.1645 34.0544 69.3145 35.9444 67.6945 41.2944C65.2745 49.1944 69.2845 53.9644 60.7845 58.5844C58.5045 59.8344 56.2045 62.2544 57.0945 64.7044C58.8245 64.3544 60.5545 63.9844 62.3045 63.6344C62.6696 63.5499 63.0493 63.5499 63.4145 63.6344C64.5545 63.9244 64.6245 65.6844 63.8445 66.5744C62.926 67.3328 61.8842 67.9281 60.7645 68.3344C59.7992 68.8818 58.9584 69.624 58.2954 70.5139C57.6324 71.4038 57.1619 72.4219 56.9136 73.5034C56.6653 74.585 56.6447 75.7064 56.8532 76.7963C57.0617 77.8862 57.4946 78.9209 58.1245 79.8344C57.3366 79.7955 56.5523 79.9644 55.8502 80.3242C55.1482 80.6841 54.553 81.2221 54.1245 81.8844C54.8456 82.1104 55.5111 82.4859 56.0774 82.9862C56.6438 83.4866 57.0984 84.1006 57.4116 84.7884C57.7249 85.4762 57.8897 86.2222 57.8953 86.9779C57.901 87.7336 57.7474 88.4821 57.4445 89.1744C55.8845 89.4244 55.9945 86.7144 54.8545 85.5944C53.7145 84.4744 51.9645 85.3544 50.8545 86.3144C47.8523 88.9095 45.8416 92.4643 45.1645 96.3744C44.7645 98.8444 44.8345 101.584 43.2545 103.554C42.3345 104.694 40.9845 105.404 40.0845 106.554C38.1545 109.054 39.0845 112.664 40.2045 115.634C41.7445 119.684 43.8045 123.934 47.7045 125.844C51.6045 127.754 57.5245 125.614 57.6245 121.274C57.6245 120.174 57.2845 118.974 57.7345 117.964C58.3645 116.504 60.2345 116.074 61.8145 116.174C63.3945 116.274 65.0245 116.694 66.5045 116.174C67.9845 115.654 68.9945 113.504 67.8145 112.454C66.1945 110.174 62.9545 109.954 60.1545 110.074C57.3545 110.194 54.2145 110.294 52.2245 108.344C50.2345 106.394 51.6145 101.834 54.3145 102.544C55.9045 102.974 56.8145 104.984 58.4645 105.144C60.1145 105.304 61.3145 103.404 61.4645 101.734C61.6145 100.064 61.2945 98.2744 61.9445 96.7344C62.5945 95.1944 64.9445 94.1544 65.9445 95.5044C67.9445 97.8744 63.2445 102.594 65.9445 104.064C66.6345 104.464 67.5145 104.294 68.2845 104.474C70.6645 105.024 71.1045 108.164 71.0545 110.604C71.0045 113.044 70.8545 115.604 69.5045 117.664C68.1545 119.724 65.0745 120.784 63.2045 119.234C62.1445 120.334 62.7545 122.324 64.0345 123.184C65.39 123.906 66.9244 124.222 68.4545 124.094C67.5245 126.564 69.3445 129.154 71.2745 130.914C73.2045 132.674 75.5145 134.454 75.9145 137.034C76.3145 139.614 74.7845 142.934 76.8545 144.554C79.5545 146.674 83.9845 142.304 86.6545 144.444C88.1545 145.664 87.7645 148.014 88.0145 149.944C88.6945 155.074 95.6545 157.834 100.014 155.034C104.374 152.234 105.104 145.484 101.944 141.394C99.7745 138.554 96.3645 137.034 93.5845 134.804C90.8045 132.574 88.5845 128.804 90.0445 125.564C90.7241 124.33 91.6458 123.245 92.7545 122.374C94.3645 120.934 95.9745 119.494 97.6145 118.054C98.6145 117.124 99.9145 116.134 101.274 116.424C102.364 116.684 103.094 117.664 104.074 118.184C106.894 119.644 110.324 115.764 109.074 112.834C107.824 109.904 103.744 109.004 100.924 110.474C97.0345 112.474 94.4345 118.024 90.0945 117.244C88.0945 113.954 91.3045 109.684 94.9645 108.464C98.6245 107.244 102.624 107.764 106.334 106.824C110.044 105.884 113.774 102.294 112.544 98.6644C109.374 99.1144 106.244 99.5344 103.094 99.9744C101.794 97.5844 106.854 95.7944 106.444 93.1044C106.184 91.4644 103.954 90.9444 102.334 91.4144C100.714 91.8844 99.2645 92.8944 97.5845 92.9544C94.5245 93.0044 92.3345 89.2844 93.2545 86.3444C94.1745 83.4044 97.3645 81.6544 100.414 81.5244C101.628 81.5875 102.845 81.4934 104.034 81.2444C106.544 80.4544 107.674 77.6444 109.034 75.3844C110.394 73.1244 113.154 70.9544 115.414 72.3044C116.414 72.9244 117.244 74.1644 118.414 73.9344C119.584 73.7044 120.044 72.3444 121.074 72.4944C121.754 72.6144 122.074 73.3944 122.294 74.0644C122.724 75.7844 122.684 77.5744 123.224 79.2544C123.764 80.9344 125.044 82.5744 126.774 82.7044C129.254 82.8544 130.854 80.1144 133.084 79.0344C135.314 77.9544 137.764 78.5544 140.084 78.0344C142.234 77.5444 144.084 76.1544 145.994 75.1044C152.124 71.8444 159.394 71.9144 166.244 70.8844C169.344 70.4244 172.885 69.2844 173.885 66.3344C174.257 64.6766 174.174 62.949 173.644 61.3344C172.534 56.6944 171.334 51.8644 168.224 48.2844C165.114 44.7044 159.424 42.8044 155.464 45.4644C154.92 45.7582 154.504 46.2424 154.294 46.8244C154.229 47.6588 154.391 48.4954 154.764 49.2444C155.474 51.6244 154.224 54.2444 152.304 55.8644C150.302 57.3511 148.03 58.4345 145.614 59.0544C143.014 59.9044 140.394 60.7544 137.764 61.6244C136.764 59.9944 137.594 57.7644 139.014 56.4444C140.434 55.1244 142.294 54.4944 143.944 53.5044C149.034 50.5044 151.944 44.7944 153.434 39.0844C153.731 37.6047 154.25 36.1784 154.974 34.8544C157.584 30.8544 164.164 30.4844 166.204 26.0944C166.774 24.8744 166.904 23.4444 167.644 22.3244C168.764 20.6344 170.954 20.0245 172.974 19.7645C176.714 19.2845 180.564 19.4944 184.224 18.4644C187.884 17.4344 191.424 14.8545 192.014 11.1345C192.292 8.76723 191.62 6.38645 190.144 4.51446C186.794 3.83446 183.424 3.21442 179.994 2.72442C179.124 2.48442 178.434 2.40443 177.694 2.35443Z" stroke="black" stroke-width="0.5"/>
<path d="M233.284 73.982C233.156 71.4882 234.359 69.5216 236.264 68.1275C238.175 66.7291 240.786 65.9155 243.424 65.7565C246.063 65.5974 248.7 66.0941 250.664 67.2809C252.617 68.4613 253.906 70.3226 253.894 72.9332C253.892 73.5455 253.79 74.1774 253.656 74.8238C253.525 75.4555 253.355 76.1357 253.234 76.7721C252.989 78.0616 252.904 79.3746 253.655 80.5309C254.092 81.2004 254.724 81.6549 255.397 82.0191C255.727 82.1975 256.081 82.361 256.433 82.5182L257.457 82.9801L257.464 82.983C259.316 83.7964 260.807 85.2593 261.656 87.0953C262.053 87.9974 262.18 88.9955 262.021 89.9684C261.862 90.9402 261.424 91.8446 260.761 92.5729C260.072 93.2455 259.147 93.6227 258.184 93.6227C257.226 93.6226 256.305 93.25 255.617 92.5836C255.102 91.8237 254.627 91.037 254.195 90.2272L254.188 90.2135L254.179 90.2008C252.791 88.226 250.495 87.6275 248.218 87.1334C246.05 86.6627 243.898 86.2841 242.304 85.024L241.993 84.7594C241.016 83.8714 240.061 82.7779 239.092 81.6471C238.128 80.5206 237.15 79.3558 236.141 78.3473L236.14 78.3483C235.756 77.9612 235.385 77.6283 235.052 77.3209C234.717 77.0107 234.42 76.7245 234.168 76.4166C233.674 75.8124 233.341 75.1129 233.284 73.982Z" stroke="black" stroke-width="0.5"/>
</svg>
