<svg width="314" height="314" viewBox="0 0 314 314" fill="none" xmlns="http://www.w3.org/2000/svg">
<path d="M183.094 18.3218C179.434 19.3218 175.584 19.1418 171.844 19.6218C169.844 19.8818 167.634 20.4918 166.514 22.1818C165.774 23.3018 165.644 24.7318 165.074 25.9518C163.074 30.3418 156.454 30.6618 153.844 34.7118C153.12 36.0358 152.601 37.462 152.304 38.9418C150.774 44.6518 147.904 50.3718 142.814 53.3618C141.164 54.3618 139.294 55.0118 137.884 56.3018C136.474 57.5918 135.614 59.8518 136.634 61.4818C139.264 60.6118 141.884 59.7618 144.484 58.9118C146.9 58.2918 149.172 57.2084 151.174 55.7218C153.094 54.1018 154.344 51.4818 153.634 49.1018C153.261 48.3527 153.099 47.5162 153.164 46.6818C153.374 46.0998 153.79 45.6155 154.334 45.3218C158.334 42.6618 163.954 44.5318 167.094 48.1418C170.234 51.7518 171.404 56.5518 172.514 61.1918C173.044 62.8063 173.127 64.534 172.754 66.1918C171.754 69.1418 168.214 70.2818 165.114 70.7418C158.264 71.7418 150.994 71.7418 144.864 74.9618C142.934 76.0118 141.104 77.4018 138.954 77.8918C136.634 78.4018 134.084 77.8418 131.954 78.8918C129.824 79.9418 128.124 82.7118 125.644 82.5618C123.914 82.4318 122.644 80.7918 122.094 79.1118C121.544 77.4318 121.594 75.6418 121.164 73.9218C120.984 73.2518 120.624 72.4718 119.944 72.3518C118.944 72.2018 118.294 73.5618 117.284 73.7918C116.274 74.0218 115.284 72.7918 114.284 72.1618C112.024 70.8118 109.284 72.9518 107.904 75.2418C106.524 77.5318 105.444 80.3118 102.904 81.1018C101.715 81.3507 100.498 81.4449 99.2844 81.3818C96.2844 81.5118 93.0544 83.2818 92.1244 86.2018C91.1944 89.1218 93.3944 92.8618 96.4544 92.8118C98.1344 92.7518 99.5944 91.7118 101.204 91.2718C102.814 90.8318 105.054 91.3218 105.314 92.9618C105.724 95.6518 100.664 97.4418 101.964 99.8318C105.114 99.3918 108.244 98.9718 111.414 98.5218C112.644 102.152 108.944 105.752 105.204 106.682C101.464 107.612 97.4644 107.092 93.8344 108.322C90.2044 109.552 86.9844 113.812 88.9644 117.102C93.3044 117.882 95.9044 112.372 99.7944 110.332C102.614 108.862 106.714 109.732 107.944 112.692C109.174 115.652 105.734 119.502 102.944 118.042C101.944 117.522 101.234 116.542 100.144 116.282C98.7844 115.992 97.5144 116.982 96.4844 117.912C94.8444 119.352 93.2344 120.792 91.6244 122.232C90.5158 123.102 89.5941 124.187 88.9144 125.422C87.4444 128.662 89.6944 132.422 92.4544 134.662C95.2144 136.902 98.6444 138.412 100.814 141.252C103.974 145.342 103.224 152.112 98.8844 154.892C94.5444 157.672 87.5944 154.892 86.8844 149.802C86.6344 147.872 87.0244 145.522 85.5244 144.302C82.8544 142.162 78.4244 146.532 75.7244 144.412C73.6544 142.792 75.1844 139.502 74.7844 136.892C74.3844 134.282 72.0844 132.552 70.1444 130.772C68.2044 128.992 66.4344 126.442 67.4344 123.982C65.9043 124.109 64.3699 123.793 63.0144 123.072C61.7344 122.212 61.1244 120.222 62.1844 119.122C64.0544 120.672 67.1844 119.592 68.4844 117.552C69.7844 115.512 69.9544 112.942 70.0344 110.492C70.1144 108.042 69.6444 104.912 67.2644 104.362C66.4944 104.182 65.6144 104.362 64.9244 103.952C62.2144 102.482 66.9244 97.7618 64.9244 95.3918C63.9244 94.0418 61.5744 95.0318 60.9244 96.6218C60.2744 98.2118 60.6344 99.9518 60.4444 101.622C60.2544 103.292 59.1044 105.202 57.4444 105.032C55.7844 104.862 54.8844 102.862 53.2944 102.432C50.5944 101.722 49.2044 106.272 51.2044 108.232C53.2044 110.192 56.3444 110.052 59.1344 109.962C61.9244 109.872 65.1344 110.062 66.7944 112.342C67.9744 113.342 66.9644 115.522 65.4844 116.062C64.0044 116.602 62.3644 116.212 60.7944 116.062C59.2244 115.912 57.3444 116.392 56.7144 117.852C56.2644 118.852 56.6144 120.062 56.6044 121.162C56.5044 125.502 50.6044 127.672 46.6844 125.732C42.7644 123.792 40.6844 119.572 39.1844 115.522C38.0544 112.522 37.1344 108.942 39.0644 106.442C39.9644 105.272 41.3144 104.562 42.2344 103.442C43.8144 101.442 43.7444 98.7318 44.1444 96.2618C44.8216 92.3517 46.8322 88.7969 49.8344 86.2018C50.9944 85.2018 52.8344 84.4518 53.8344 85.4818C54.8344 86.5118 54.8344 89.3118 56.4244 89.0618C56.7273 88.3694 56.8809 87.621 56.8753 86.8653C56.8696 86.1096 56.7048 85.3635 56.3916 84.6757C56.0784 83.988 55.6238 83.3739 55.0574 82.8736C54.491 82.3732 53.8256 81.9978 53.1044 81.7718C53.533 81.1094 54.1281 80.5714 54.8302 80.2116C55.5322 79.8518 56.3165 79.6829 57.1044 79.7218C56.4745 78.8082 56.0416 77.7736 55.8331 76.6837C55.6247 75.5937 55.6452 74.4723 55.8935 73.3908C56.1418 72.3092 56.6124 71.2912 57.2753 70.4013C57.9383 69.5114 58.7791 68.7692 59.7444 68.2218C60.8641 67.8155 61.9059 67.2202 62.8244 66.4618C63.6044 65.5718 63.5344 63.8118 62.3944 63.5218C62.0293 63.4372 61.6496 63.4372 61.2844 63.5218C59.5344 63.8718 57.8044 64.2418 56.0744 64.5918C55.1844 62.1418 57.4844 59.7218 59.7644 58.4718C68.2644 53.8518 64.2544 49.0818 66.6744 41.1818C68.2944 35.8318 72.1444 33.9418 76.8344 31.4618C91.2444 23.8918 103.744 12.9318 118.614 6.30178C120.168 5.63513 121.734 5.00183 123.314 4.40182C122.924 4.49182 122.544 4.56176 122.154 4.66177C112.82 6.73825 103.703 9.69137 94.9244 13.4818C93.0544 14.2918 91.2144 15.1218 89.3844 15.9818C88.2544 16.5218 87.1044 17.0818 85.9944 17.6518C84.5344 18.3618 83.1244 19.1318 81.7144 19.9018C80.5744 20.5218 79.4544 21.1318 78.3644 21.7718C77.5944 22.2118 76.8344 22.6818 76.0644 23.1418C75.2944 23.6018 74.3444 24.1418 73.4844 24.7218L70.8044 26.4318C70.5344 26.6018 70.2544 26.7818 69.9744 26.9918C69.0444 27.5818 68.1244 28.2218 67.2044 28.8718C67.0962 28.9047 66.9993 28.967 66.9244 29.0518C66.6778 29.2251 66.4278 29.4051 66.1744 29.5918C65.3944 30.1118 64.6344 30.6718 63.8844 31.2118C62.6544 32.1118 61.4244 33.0318 60.2344 33.9918C59.2344 34.7618 58.2344 35.5718 57.2344 36.4018C56.2344 37.2318 55.4744 37.8518 54.6144 38.6018C53.7544 39.3518 52.9244 40.0618 52.0944 40.8218C51.0944 41.7218 50.0444 42.6518 49.0344 43.6018C46.2244 46.2218 43.5244 48.9618 40.9644 51.7918C40.3144 52.4918 39.6844 53.1818 39.0644 53.8918C38.4444 54.6018 37.7944 55.3318 37.1944 56.0518C36.5944 56.7718 35.9644 57.5018 35.3744 58.2418C34.7844 58.9818 34.1644 59.7118 33.5844 60.4518C33.0044 61.1918 32.5844 61.6418 32.1944 62.2618C31.9399 62.5542 31.7028 62.8614 31.4844 63.1818C30.4844 64.4618 29.4844 65.7718 28.6144 67.0918C28.1444 67.7518 27.6744 68.4118 27.2244 69.0918C26.6244 69.9318 26.0544 70.8018 25.5044 71.6718C25.4064 71.7939 25.3194 71.9244 25.2444 72.0618C24.7344 72.8418 24.2444 73.6118 23.7244 74.4218C23.0344 75.5518 22.3544 76.6718 21.7244 77.8018C20.9644 79.0918 20.2044 80.3918 19.4844 81.7118C18.7644 83.0318 17.8844 84.6318 17.1444 86.1218C16.4044 87.6118 15.6344 89.1218 14.9144 90.6618C14.1944 92.2018 13.5244 93.7118 12.8444 95.2618C11.5244 98.3218 10.2944 101.452 9.16444 104.612L9.09444 104.782C8.66444 105.992 8.24444 107.212 7.86444 108.432C7.82301 108.507 7.79269 108.588 7.77443 108.672C7.60443 109.192 7.42444 109.742 7.26444 110.302C6.53444 112.572 5.88444 114.872 5.26444 117.212C5.17444 117.482 5.11444 117.772 5.04444 118.062C4.84444 118.732 4.69443 119.412 4.52443 120.062C4.14443 121.612 3.79444 123.162 3.47444 124.742C3.15444 126.322 2.79444 128.022 2.47444 129.682C2.15444 131.342 1.87444 133.142 1.62444 134.882C0.957773 139.495 0.501104 144.085 0.254437 148.652C0.174437 149.742 0.124441 150.812 0.0944415 151.882C0.0644415 152.952 0.0144376 154.122 0.00443763 155.242C-0.00556232 156.362 0.00443773 157.492 0.00443778 158.602C0.00443783 159.712 0.00443543 160.832 0.0644355 161.962C0.0644355 162.912 0.114436 163.892 0.174436 164.852C0.281103 167.225 0.441106 169.575 0.65444 171.902C0.74444 172.992 0.864439 174.092 1.00444 175.182C1.14444 176.272 1.26444 177.372 1.41444 178.442C1.65444 180.262 1.94444 182.022 2.24444 183.792L3.04444 188.112C3.03639 188.145 3.03639 188.179 3.04444 188.212C3.33444 189.682 3.65444 191.102 4.04444 192.562L4.04444 192.792C4.35444 194.112 4.68444 195.432 5.04444 196.732C5.45444 198.372 5.92444 199.992 6.39444 201.582C6.79444 202.942 7.20444 204.282 7.64444 205.582C8.08444 206.882 8.58444 208.422 9.08444 209.822L9.08444 209.982C9.56444 211.322 10.0844 212.672 10.6044 213.982C11.1244 215.292 11.6844 216.712 12.2844 218.082C12.8244 219.362 13.3644 220.622 13.9344 221.872C14.1444 222.352 14.3744 222.812 14.6044 223.302C15.2144 224.642 15.8544 225.932 16.5144 227.302C17.3044 228.922 18.1544 230.492 19.0044 232.072C19.7544 233.452 20.5344 234.812 21.3144 236.152C25.832 243.886 31.0079 251.216 36.7844 258.062C38.7844 260.482 40.8644 262.782 42.9844 265.062C44.8144 266.972 46.6644 268.842 48.6044 270.652C48.6044 270.252 48.6044 269.852 48.6544 269.462C48.8044 267.232 49.2144 264.912 48.5444 262.792C47.9044 260.792 46.4444 259.282 45.5444 257.442C43.1244 252.742 43.5444 245.672 38.6344 243.782C36.9744 243.142 35.0444 243.342 33.4944 242.462C30.6044 240.822 30.7544 236.662 31.2844 233.382C31.4844 231.992 31.9144 230.382 33.2844 229.912C33.7676 229.803 34.268 229.797 34.7537 229.894C35.2393 229.99 35.6994 230.187 36.1044 230.472C41.5733 233.355 45.8818 238.034 48.3044 243.722C50.3044 248.362 51.4944 254.222 56.1744 256.092C57.9044 255.742 58.1744 252.742 59.9644 252.742C61.3644 252.742 61.8144 254.632 62.9644 255.452C64.6244 256.642 67.1145 254.822 67.3145 252.772C67.5144 250.722 66.3145 248.822 65.1244 247.132C61.6244 242.072 57.8444 236.742 52.1944 234.272C49.8644 233.272 47.0544 232.582 45.7244 230.382C45.3858 229.715 45.2064 228.979 45.2002 228.231C45.1939 227.483 45.3611 226.744 45.6886 226.071C46.0161 225.399 46.495 224.811 47.0876 224.355C47.6803 223.899 48.3706 223.586 49.1044 223.442C48.3044 221.352 47.9344 218.212 50.1044 217.502C50.8854 217.385 51.6773 217.358 52.4644 217.422C55.6944 217.232 57.7344 213.152 60.9644 213.162C64.6844 213.162 65.8944 218.162 65.9644 221.872C65.9644 225.252 66.0345 228.632 66.0944 232.022C65.9888 233.496 66.2391 234.974 66.8244 236.332C67.1411 237.003 67.6778 237.545 68.3454 237.869C69.0131 238.193 69.7714 238.279 70.4944 238.112C71.2203 237.712 71.8923 237.221 72.4944 236.652C75.6344 234.302 80.9644 237.382 80.4944 241.272C80.3444 242.602 79.6745 243.832 79.4245 245.142C78.6944 249.042 81.6944 252.652 84.8844 255.022C88.0744 257.392 91.8144 259.352 93.7144 262.832C96.7844 268.422 94.6444 277.002 100.124 280.292C102.334 281.612 105.054 281.482 107.634 281.462C110.214 281.442 113.014 281.662 114.884 283.462C116.754 285.262 116.624 289.042 114.164 289.792C113.062 290.007 111.921 289.892 110.884 289.462C107.344 288.348 103.801 287.252 100.254 286.172C97.6145 285.372 94.6545 284.562 92.2545 285.842C88.8445 287.622 88.4144 292.662 90.4744 295.912C92.5344 299.162 96.2345 300.912 99.8145 302.252C102.474 303.252 106.254 304.482 109.164 306.452C112.164 307.452 115.164 308.272 118.224 309.042C121.284 309.812 124.494 310.502 127.714 311.092C127.415 310.596 127.081 310.121 126.714 309.672C125.344 307.892 119.054 303.802 122.764 301.492C123.247 301.208 123.81 301.092 124.366 301.163C124.922 301.233 125.438 301.486 125.834 301.882C126.834 302.882 126.834 304.652 127.914 305.492C129.224 306.492 131.144 305.632 132.274 304.442C133.404 303.252 134.274 301.722 135.724 300.982C138.554 299.572 142.204 301.852 145.084 300.492C147.554 299.322 148.164 296.152 148.844 293.492L149.134 292.582C143.844 291.042 139.824 287.882 139.224 280.292C138.384 269.812 148.724 257.692 157.224 253.092C166.704 247.952 179.224 246.692 184.944 237.552C189.024 231.012 189.354 220.922 196.684 218.502C203.254 216.352 209.374 222.642 216.044 224.432C220.464 225.592 225.134 224.772 229.664 225.082C234.194 225.392 239.274 227.492 240.574 231.862C241.274 234.292 240.734 237.142 242.184 239.222C244.804 242.932 251.564 241.222 254.184 244.892C255.094 246.192 255.254 247.842 255.764 249.342C258.404 257.212 269.214 258.572 277.184 256.252L278.024 255.992C295.854 234.056 307.407 207.699 311.454 179.722C315.157 154.384 312.553 128.523 303.874 104.432C299.213 91.5488 292.897 79.3263 285.084 68.0718C281.819 63.3602 278.287 58.8395 274.504 54.5318C271.894 51.5318 269.134 48.6018 266.294 45.7918C264.824 44.3518 263.344 42.9318 261.814 41.5918C250.811 31.5123 238.397 23.0904 224.964 16.5918C216.76 12.6264 208.216 9.40673 199.434 6.97182C196.014 5.97182 192.544 5.12179 189.024 4.37179C190.5 6.2438 191.172 8.62456 190.894 10.9918C190.294 14.7118 186.734 17.3218 183.094 18.3218Z" fill="#EBEBEB"/>
<path d="M201.924 66.2918C197.514 59.4118 185.924 55.2118 182.054 62.4118C180.594 65.1318 180.964 68.5618 179.444 71.2618C177.444 74.7718 173.034 75.9018 169.084 76.7018C158.718 78.8018 148.348 80.9051 137.974 83.0118C131.724 84.2818 124.374 86.5118 122.594 92.6318C121.594 96.1018 122.774 99.7818 122.914 103.382C123.364 115.812 91.1245 131.932 109.504 143.992C103.964 144.502 104.714 153.512 109.074 156.992C113.434 160.472 119.654 161.992 122.314 166.852C124.314 170.582 123.784 175.532 126.574 178.752C128.574 181.002 131.644 181.752 134.574 182.462C140.141 183.742 145.711 185.025 151.284 186.312C155.774 187.312 160.584 188.362 164.874 186.682C169.164 185.002 172.224 179.442 169.634 175.632C168.444 173.882 166.405 172.912 164.915 171.412C163.727 170.173 162.924 168.616 162.603 166.93C162.282 165.244 162.456 163.501 163.105 161.912C164.225 159.272 166.574 157.372 168.944 155.732C188.184 142.432 213.164 140.282 236.404 142.932C240.664 143.422 245.014 144.042 249.184 143.052C254.064 141.892 258.355 138.582 263.355 138.152C267.195 137.822 271.165 139.232 274.855 138.152C281.665 136.152 283.354 126.382 279.554 120.382C275.754 114.382 268.644 111.472 261.855 109.382C255.065 107.292 247.854 105.532 242.564 100.802C239.284 97.8718 236.894 93.9018 233.124 91.6318C227.844 88.4618 220.934 89.2518 215.564 86.2418C208.434 82.2318 206.324 73.1718 201.924 66.2918Z" fill="#E0E0E0"/>
<path d="M196.534 218.612C189.204 221.032 188.874 231.122 184.794 237.662C179.094 246.802 166.554 248.062 157.074 253.202C148.604 257.802 138.264 269.922 139.074 280.402C139.674 287.992 143.694 291.152 148.984 292.692L148.694 293.602C148.014 296.282 147.404 299.452 144.934 300.602C142.054 301.962 138.404 299.682 135.574 301.092C134.094 301.832 133.274 303.362 132.124 304.552C130.974 305.742 129.074 306.612 127.764 305.602C126.664 304.762 126.664 303.012 125.684 301.992C125.288 301.596 124.772 301.343 124.216 301.273C123.66 301.202 123.097 301.318 122.614 301.602C118.904 303.912 125.194 308.002 126.564 309.772C126.929 310.226 127.263 310.704 127.564 311.202C127.845 311.274 128.128 311.331 128.414 311.372C129.324 311.542 130.264 311.672 131.204 311.832C132.144 311.992 133.054 312.142 133.984 312.282C134.744 312.392 135.504 312.472 136.264 312.572C137.024 312.672 137.784 312.782 138.534 312.862C138.904 312.912 139.244 312.962 139.614 312.992C156.508 314.837 173.589 313.911 190.184 310.252C197.56 308.618 204.804 306.436 211.854 303.722C214.854 302.612 217.854 301.342 220.854 300.002C224.524 298.332 228.134 296.552 231.644 294.582C235.014 292.762 238.324 290.792 241.534 288.672C245.992 285.796 250.297 282.692 254.434 279.372C258.114 276.418 261.651 273.302 265.044 270.022C266.524 268.632 267.934 267.212 269.314 265.762C270.421 264.622 271.508 263.465 272.574 262.292C273.644 261.112 274.694 259.922 275.724 258.702C276.444 257.862 277.144 257.012 277.844 256.132L277.004 256.392C269.004 258.712 258.224 257.392 255.584 249.482C255.074 247.982 254.914 246.332 254.004 245.032C251.384 241.322 244.624 243.032 242.004 239.362C240.554 237.282 241.094 234.432 240.394 232.002C239.094 227.632 234.044 225.552 229.484 225.222C224.924 224.892 220.284 225.732 215.864 224.572C209.224 222.752 203.104 216.442 196.534 218.612ZM154.434 296.312C154.644 295.492 154.834 294.662 154.994 293.832C154.814 294.662 154.624 295.442 154.434 296.312ZM157.364 294.112C159.744 294.372 162.174 294.612 164.494 294.982C162.154 294.612 159.724 294.372 157.344 294.112L157.364 294.112ZM142.794 307.052C144.624 304.932 146.794 303.052 149.474 302.942C146.814 303.012 144.604 304.932 142.774 307.052L142.794 307.052ZM187.184 295.792C187.804 295.522 188.424 295.232 189.034 294.932C188.434 295.232 187.804 295.522 187.184 295.792Z" fill="#E0E0E0"/>
<path d="M90.3444 296.042C88.2844 292.792 88.7144 287.752 92.1244 285.972C94.5644 284.692 97.5244 285.502 100.124 286.302C103.664 287.388 107.208 288.485 110.754 289.592C111.791 290.022 112.932 290.137 114.034 289.922C116.494 289.172 116.604 285.332 114.754 283.592C112.904 281.852 110.064 281.592 107.504 281.592C104.944 281.592 102.204 281.742 99.9944 280.422C94.5144 277.132 96.6544 268.552 93.5844 262.962C91.6844 259.482 87.9444 257.512 84.7544 255.152C81.5644 252.792 78.5644 249.152 79.2944 245.272C79.5444 243.962 80.2144 242.732 80.3644 241.402C80.7944 237.512 75.4644 234.402 72.3644 236.782C71.7623 237.351 71.0902 237.842 70.3644 238.242C69.6414 238.409 68.883 238.323 68.2154 237.999C67.5477 237.675 67.011 237.133 66.6944 236.462C66.1091 235.104 65.8587 233.626 65.9644 232.152C65.9044 228.762 65.8744 225.382 65.8344 222.002C65.8344 218.262 64.5844 213.312 60.8344 213.292C57.6044 213.292 55.5644 217.362 52.3344 217.552C51.5472 217.488 50.7554 217.515 49.9744 217.632C47.8144 218.342 48.1844 221.482 48.9744 223.572C48.2406 223.716 47.5502 224.029 46.9576 224.485C46.3649 224.941 45.8861 225.529 45.5586 226.201C45.2311 226.874 45.0639 227.613 45.0701 228.361C45.0763 229.109 45.2558 229.845 45.5944 230.512C46.9244 232.712 49.7344 233.362 52.0644 234.402C57.7144 236.872 61.4944 242.202 64.9944 247.262C66.1544 248.952 67.3744 250.852 67.1844 252.902C66.9944 254.952 64.4944 256.772 62.8344 255.582C61.7044 254.762 61.2544 252.902 59.8344 252.872C58.0844 252.872 57.7744 255.872 56.0444 256.222C51.3644 254.352 50.1544 248.492 48.1744 243.852C45.7518 238.164 41.4433 233.485 35.9744 230.602C35.5694 230.317 35.1093 230.12 34.6236 230.024C34.138 229.927 33.6375 229.933 33.1544 230.042C31.8344 230.502 31.4044 232.122 31.1544 233.512C30.6244 236.792 30.4744 240.952 33.3644 242.592C34.9144 243.472 36.8444 243.272 38.5044 243.912C43.4344 245.802 42.9944 252.912 45.4144 257.572C46.3444 259.412 47.8044 260.952 48.4144 262.922C49.0844 265.042 48.6744 267.362 48.5244 269.592C48.5244 269.982 48.5244 270.382 48.4744 270.782C50.1544 272.402 51.8844 273.982 53.6444 275.512C55.4044 277.042 57.2044 278.512 59.0344 279.992C67.704 286.901 77.0912 292.859 87.0344 297.762C90.5277 299.495 94.0977 301.092 97.7444 302.552C101.391 304.012 105.111 305.345 108.904 306.552C105.994 304.552 102.214 303.332 99.5544 302.352C96.1044 301.032 92.4344 299.272 90.3444 296.042Z" fill="#E0E0E0"/>
<path d="M176.694 2.31173C174.461 1.99839 172.238 1.74505 170.024 1.55172C167.811 1.35839 165.598 1.21173 163.384 1.11172C161.594 1.02172 159.824 0.971751 158.044 0.961756C156.264 0.951762 154.304 0.961756 152.444 0.961756C146.888 1.08401 141.343 1.51464 135.834 2.25174C133.734 2.53173 131.634 2.86174 129.554 3.25174C127.474 3.64173 125.404 4.02177 123.334 4.47177C121.754 5.0451 120.188 5.6784 118.634 6.37173C103.764 13.0017 91.2645 23.9617 76.8545 31.5317C72.1645 34.0117 68.3145 35.9017 66.6945 41.2517C64.2745 49.1517 68.2845 53.9217 59.7845 58.5417C57.5045 59.7917 55.2045 62.2117 56.0945 64.6617C57.8245 64.3117 59.5545 63.9417 61.3045 63.5917C61.6696 63.5072 62.0493 63.5072 62.4145 63.5917C63.5545 63.8817 63.6245 65.6417 62.8445 66.5317C61.926 67.2901 60.8842 67.8854 59.7645 68.2917C58.7992 68.8391 57.9584 69.5813 57.2954 70.4712C56.6324 71.3611 56.1619 72.3792 55.9136 73.4607C55.6653 74.5423 55.6447 75.6637 55.8532 76.7536C56.0617 77.8435 56.4946 78.8782 57.1245 79.7917C56.3366 79.7529 55.5523 79.9218 54.8502 80.2816C54.1482 80.6414 53.553 81.1794 53.1245 81.8417C53.8456 82.0678 54.5111 82.4432 55.0774 82.9435C55.6438 83.4439 56.0984 84.0579 56.4116 84.7457C56.7249 85.4335 56.8897 86.1795 56.8953 86.9352C56.901 87.6909 56.7474 88.4394 56.4445 89.1317C54.8845 89.3817 54.9945 86.6717 53.8545 85.5517C52.7145 84.4317 50.9645 85.3117 49.8545 86.2717C46.8523 88.8668 44.8416 92.4216 44.1645 96.3318C43.7645 98.8018 43.8345 101.542 42.2545 103.512C41.3345 104.652 39.9845 105.362 39.0845 106.512C37.1545 109.012 38.0845 112.622 39.2045 115.592C40.7445 119.642 42.8045 123.892 46.7045 125.802C50.6045 127.712 56.5245 125.572 56.6245 121.232C56.6245 120.132 56.2845 118.932 56.7345 117.922C57.3645 116.462 59.2345 116.032 60.8145 116.132C62.3945 116.232 64.0245 116.652 65.5045 116.132C66.9845 115.612 67.9945 113.462 66.8145 112.412C65.1945 110.132 61.9545 109.912 59.1545 110.032C56.3545 110.152 53.2145 110.252 51.2245 108.302C49.2345 106.352 50.6145 101.792 53.3145 102.502C54.9045 102.932 55.8145 104.942 57.4645 105.102C59.1145 105.262 60.3145 103.362 60.4645 101.692C60.6145 100.022 60.2945 98.2317 60.9445 96.6917C61.5945 95.1517 63.9445 94.1117 64.9445 95.4617C66.9445 97.8317 62.2445 102.552 64.9445 104.022C65.6345 104.422 66.5145 104.252 67.2845 104.432C69.6645 104.982 70.1045 108.122 70.0545 110.562C70.0045 113.002 69.8545 115.562 68.5045 117.622C67.1545 119.682 64.0745 120.742 62.2045 119.192C61.1445 120.292 61.7545 122.282 63.0345 123.142C64.39 123.863 65.9244 124.179 67.4545 124.052C66.5245 126.522 68.3445 129.112 70.2745 130.872C72.2045 132.632 74.5145 134.412 74.9145 136.992C75.3145 139.572 73.7845 142.892 75.8545 144.512C78.5545 146.632 82.9845 142.262 85.6545 144.402C87.1545 145.622 86.7645 147.972 87.0145 149.902C87.6945 155.032 94.6545 157.792 99.0145 154.992C103.374 152.192 104.104 145.442 100.944 141.352C98.7745 138.512 95.3645 136.992 92.5845 134.762C89.8045 132.532 87.5845 128.762 89.0445 125.522C89.7241 124.287 90.6458 123.202 91.7545 122.332C93.3645 120.892 94.9745 119.452 96.6145 118.012C97.6145 117.082 98.9145 116.092 100.274 116.382C101.364 116.642 102.094 117.622 103.074 118.142C105.894 119.602 109.324 115.722 108.074 112.792C106.824 109.862 102.744 108.962 99.9245 110.432C96.0345 112.432 93.4345 117.982 89.0945 117.202C87.0945 113.912 90.3045 109.642 93.9645 108.422C97.6245 107.202 101.624 107.722 105.334 106.782C109.044 105.842 112.774 102.252 111.544 98.6217C108.374 99.0717 105.244 99.4917 102.094 99.9317C100.794 97.5417 105.854 95.7517 105.444 93.0617C105.184 91.4217 102.954 90.9017 101.334 91.3717C99.7145 91.8417 98.2645 92.8517 96.5845 92.9117C93.5245 92.9617 91.3345 89.2417 92.2545 86.3017C93.1745 83.3617 96.3645 81.6117 99.4145 81.4817C100.628 81.5448 101.845 81.4507 103.034 81.2017C105.544 80.4117 106.674 77.6017 108.034 75.3417C109.394 73.0817 112.154 70.9117 114.414 72.2617C115.414 72.8817 116.244 74.1218 117.414 73.8918C118.584 73.6617 119.044 72.3017 120.074 72.4517C120.754 72.5718 121.074 73.3517 121.294 74.0217C121.724 75.7417 121.684 77.5317 122.224 79.2117C122.764 80.8917 124.044 82.5317 125.774 82.6617C128.254 82.8117 129.854 80.0717 132.084 78.9917C134.314 77.9117 136.764 78.5117 139.084 77.9917C141.234 77.5017 143.084 76.1117 144.994 75.0617C151.124 71.8017 158.394 71.8717 165.244 70.8417C168.344 70.3817 171.885 69.2417 172.885 66.2917C173.257 64.6339 173.174 62.9063 172.644 61.2917C171.534 56.6517 170.334 51.8217 167.224 48.2417C164.114 44.6617 158.424 42.7617 154.464 45.4217C153.92 45.7155 153.504 46.1997 153.294 46.7817C153.229 47.6161 153.391 48.4527 153.764 49.2017C154.474 51.5817 153.224 54.2017 151.304 55.8217C149.302 57.3084 147.03 58.3918 144.614 59.0117C142.014 59.8617 139.394 60.7117 136.764 61.5818C135.764 59.9518 136.594 57.7217 138.014 56.4017C139.434 55.0817 141.294 54.4517 142.944 53.4617C148.034 50.4617 150.944 44.7517 152.434 39.0417C152.731 37.562 153.25 36.1357 153.974 34.8117C156.584 30.8117 163.164 30.4417 165.204 26.0517C165.774 24.8317 165.904 23.4017 166.644 22.2817C167.764 20.5917 169.954 19.9818 171.974 19.7218C175.715 19.2418 179.564 19.4517 183.224 18.4217C186.885 17.3917 190.424 14.8118 191.014 11.0918C191.292 8.72453 190.62 6.34376 189.144 4.47176C185.794 3.79177 182.424 3.17173 178.994 2.68173C178.124 2.44172 177.435 2.36173 176.694 2.31173Z" fill="#E0E0E0"/>
<path d="M232.034 73.9518C232.154 76.3218 233.444 76.9518 234.964 78.4818C236.964 80.4818 238.844 83.1018 240.824 84.9018C244.184 87.9618 250.324 86.5318 252.974 90.3018C253.415 91.1269 253.899 91.9281 254.424 92.7018C255.161 93.4249 256.152 93.83 257.184 93.83C258.217 93.83 259.208 93.4249 259.944 92.7018C260.641 91.9373 261.101 90.987 261.268 89.9663C261.435 88.9455 261.301 87.8983 260.884 86.9518C260.01 85.0584 258.474 83.5502 256.564 82.7118C255.224 82.0718 253.674 81.5918 252.864 80.3518C251.474 78.2118 253.134 75.4418 253.144 72.8918C253.194 62.0518 231.504 63.5718 232.034 73.9518Z" fill="#E0E0E0"/>
</svg>
