<svg width="70" height="100" viewBox="0 0 70 100" fill="none" xmlns="http://www.w3.org/2000/svg">
<path d="M64.3699 33.5904H64.3718C64.4287 33.5855 64.5067 33.6064 64.6091 33.7486C64.7137 33.894 64.8117 34.1267 64.8982 34.441C65.07 35.0655 65.1731 35.9298 65.2312 36.8355C65.3471 38.6425 65.2807 40.551 65.2615 40.8756V40.8902C65.2616 41.0772 65.3364 41.2354 65.4626 41.3424C65.5838 41.445 65.7371 41.4877 65.8806 41.483C66.0245 41.4783 66.1749 41.4258 66.2917 41.316C66.4125 41.2024 66.4831 41.0408 66.4832 40.8512C66.4832 40.5707 66.3775 38.9664 66.4519 37.3717C66.4889 36.5781 66.5705 35.8133 66.7263 35.2447C66.8045 34.9596 66.897 34.7412 66.9998 34.5953C67.0757 34.4875 67.1468 34.4326 67.2126 34.4088L67.2761 34.3941C67.2864 34.3932 67.287 34.3946 67.2888 34.3961C67.2964 34.4016 67.3175 34.4215 67.3435 34.4752C67.3974 34.5867 67.4402 34.7757 67.4656 35.0465C67.5157 35.5816 67.4908 36.3272 67.4539 37.1373C67.4173 37.9385 67.3695 38.7974 67.3816 39.5328C67.3876 39.901 67.4084 40.2459 67.4548 40.5426C67.5005 40.8343 67.5746 41.1039 67.7009 41.3043C67.7571 41.3934 67.8265 41.4815 67.9148 41.5377C68.0193 41.6041 68.156 41.6262 68.2849 41.5543C68.3868 41.4974 68.4471 41.4005 68.4832 41.3277C68.5227 41.248 68.5539 41.153 68.5808 41.0533C68.6864 40.6619 68.7591 40.0269 68.8367 39.3863C68.9161 38.7309 69.0023 38.0544 69.1335 37.5396C69.1995 37.281 69.2721 37.0815 69.3503 36.9508C69.4285 36.8202 69.4802 36.8084 69.4929 36.8072C69.5959 36.8077 69.6108 36.814 69.6169 36.818C69.6176 36.8184 69.6201 36.8206 69.6238 36.8248C69.6277 36.8293 69.6344 36.8375 69.6423 36.8521C69.6589 36.8829 69.6795 36.9364 69.698 37.026C69.7755 37.402 69.7783 38.2017 69.6248 39.8824C69.5401 40.7629 69.2656 41.8436 68.9949 43.1812C68.7603 44.3405 68.5357 45.6681 68.4617 47.1598L68.4392 47.8102V48.7291L68.4402 48.7379C68.5929 50.8805 68.8897 56.0025 68.7654 61.858C68.6448 67.5357 68.1279 73.8836 66.7068 78.8717L66.5671 79.3482C66.1474 80.6948 65.3672 81.9028 64.3093 82.8414C63.2514 83.7801 61.9555 84.414 60.5623 84.6754C59.1692 84.9367 57.731 84.8147 56.4021 84.3238C55.156 83.8635 54.0499 83.0951 53.1882 82.0924L53.0193 81.8893C49.5734 77.573 46.6198 72.89 44.2097 67.9273L54.2878 62.5064L58.6082 71.6373L59.0837 71.5396L59.9314 49.526H59.9324L59.9314 49.5133C59.9182 48.156 59.5555 46.8264 58.8796 45.651L58.741 45.4185C58.4189 44.8719 58.0381 44.3618 57.6052 43.8971L57.6013 43.8922L57.3894 43.6832C56.8872 43.2025 56.3298 42.7816 55.7283 42.4303L55.7048 42.4166L55.6794 42.4088L55.613 42.3814C55.5496 42.349 55.495 42.3015 55.4529 42.2437C55.3968 42.1666 55.366 42.074 55.366 41.9791C55.366 41.8841 55.3968 41.7916 55.4529 41.7144C55.5062 41.6412 55.5802 41.5854 55.6658 41.5543C55.7644 41.5389 55.9409 41.5528 56.1941 41.6266C56.4526 41.7019 56.7659 41.8321 57.1111 42.0201C57.8012 42.3959 58.604 42.9949 59.3376 43.8199C59.5358 44.0427 59.7261 44.2025 59.9119 44.2867C60.1078 44.3755 60.3118 44.3831 60.4939 44.2789C60.6598 44.1839 60.7672 44.0183 60.8396 43.8512C60.914 43.6794 60.9652 43.473 61.0027 43.2555C61.1511 42.3948 61.1001 41.1598 61.0847 40.525C61.0691 39.8822 61.0692 38.565 61.1267 37.3707C61.1555 36.773 61.1991 36.2121 61.2605 35.7838C61.2913 35.569 61.3259 35.3948 61.363 35.2691C61.3816 35.2062 61.3992 35.1612 61.4138 35.1324C61.4265 35.1075 61.4312 35.1046 61.4246 35.1109C61.5315 35.0254 61.62 35.0027 61.6843 35.0055C61.7474 35.0081 61.8208 35.0368 61.8982 35.1178C62.062 35.2891 62.2138 35.6698 62.2175 36.2857C62.2215 36.94 62.2944 38.2448 62.4539 39.3853C62.5334 39.9539 62.6358 40.4947 62.7664 40.8961C62.831 41.0949 62.9081 41.2771 63.0027 41.4127C63.0922 41.541 63.2425 41.6881 63.4597 41.6783C63.6121 41.6712 63.7125 41.5739 63.7693 41.4947C63.8272 41.4138 63.8697 41.3127 63.9021 41.2105C63.9677 41.0037 64.0151 40.7242 64.0505 40.4088C64.1219 39.7734 64.1501 38.9364 64.157 38.109C64.1639 37.2795 64.149 36.4514 64.1326 35.8316C64.1243 35.5218 64.1157 35.2635 64.1091 35.0826C64.1058 34.9923 64.1033 34.9212 64.1013 34.8727C64.1003 34.8484 64.0989 34.8296 64.0984 34.817V34.7994L64.0974 34.7984V34.7779L64.0925 34.7584V34.7564C64.0922 34.7545 64.0914 34.751 64.0906 34.7467C64.089 34.738 64.0866 34.7248 64.0837 34.7076C64.078 34.6727 64.0701 34.6215 64.0632 34.5602C64.0494 34.4362 64.0398 34.2754 64.0515 34.1168C64.0635 33.9539 64.0969 33.8172 64.1521 33.7252C64.1995 33.6461 64.2614 33.599 64.3699 33.5904Z" stroke="#263238" stroke-width="0.5"/>
<path d="M56.2844 32.0217L55.5782 39.1646V39.1022C57.3967 40.5205 59.066 42.1185 60.5605 43.8719C61.4857 44.9588 62.3401 46.1035 63.1184 47.2989C63.5499 47.9312 63.903 48.6338 64.2953 49.3207C64.7257 50.0191 65.1059 50.7469 65.433 51.4987L66.4687 53.8407C66.7433 54.6759 67.0179 55.5347 67.3082 56.409L67.5201 57.0725L67.6691 57.7517C67.7633 58.2123 67.8653 58.6806 67.9673 59.149C68.0693 59.6174 68.187 60.0858 68.2498 60.5698C68.3125 61.0538 68.3596 61.5456 68.4224 62.0374C68.9269 66.538 68.5278 71.0936 67.2482 75.4395C65.9686 79.7854 63.8341 83.8352 60.9685 87.3536L60.3879 88.0952L59.7288 88.7822L58.4107 90.1717C57.9565 90.6272 57.4771 91.0573 56.9748 91.4598L55.4998 92.8025C54.417 93.5441 53.3656 94.3637 52.2279 95.0351L50.4704 96.0109L49.5838 96.5027C49.2856 96.651 48.9639 96.7759 48.6579 96.9164L46.7748 97.6971C46.138 97.9534 45.4886 98.1775 44.829 98.3684C44.1699 98.5636 43.5187 98.8056 42.8361 98.9695L40.7882 99.3989C40.443 99.4692 40.1056 99.5472 39.7604 99.6097L38.709 99.7268L36.5905 99.961C35.8844 99.961 35.1704 99.961 34.4485 100H33.3736C33.0127 100 32.6596 99.9532 32.2987 99.9297L30.1332 99.7502C29.4191 99.6721 28.7052 99.5082 27.9833 99.3911C26.54 99.1248 25.1145 98.7702 23.715 98.3294C23.0088 98.1108 22.3341 97.8142 21.6358 97.5488C20.9272 97.3138 20.2352 97.0322 19.5644 96.7057L17.5636 95.7065C16.9124 95.3318 16.2847 94.9258 15.6492 94.5199L14.6998 93.8876C14.3859 93.6768 14.0956 93.4348 13.7975 93.2084L12.0242 91.8345C11.4672 91.3349 10.9336 90.8196 10.3922 90.3122L9.60762 89.5316C9.34085 89.2662 9.11331 88.9773 8.87008 88.7041L7.42639 87.0335C6.96346 86.4637 6.57116 85.8391 6.13962 85.2537C5.30216 84.0704 4.54717 82.8315 3.87993 81.5456C3.52288 80.9235 3.20578 80.2795 2.93054 79.6174C2.65593 78.9539 2.35777 78.306 2.091 77.6502C1.82423 76.9945 1.65947 76.2997 1.44762 75.6284L1.12593 74.6213C1.03962 74.2857 0.97685 73.9344 0.898388 73.5909C0.757157 72.9117 0.608081 72.2248 0.46685 71.5456C0.32562 70.8665 0.30208 70.1717 0.207926 69.4925C0.0503853 68.1349 -0.0177588 66.7684 0.00392719 65.402C-0.0053545 64.7265 0.0287156 64.0512 0.105928 63.3801C0.160851 62.7087 0.223618 62.0452 0.278541 61.3817L0.631619 59.4223C0.730184 58.7742 0.869066 58.1328 1.04746 57.5019C1.36027 56.2448 1.75338 55.0089 2.22439 53.8016L2.9227 52.0218C3.19731 51.4519 3.48762 50.8898 3.77008 50.3278C5.94966 46.0509 9.02032 42.2852 12.7775 39.2817C14.5008 37.9158 16.3383 36.6988 18.2698 35.6439C20.1103 34.7005 22.0293 33.917 24.0053 33.302C27.5392 32.1949 31.2308 31.6676 34.935 31.7407C37.9736 31.7999 40.9903 32.2673 43.9031 33.1302C46.1039 33.7899 48.2371 34.6551 50.2742 35.7142H50.2036C54.1267 33.3332 55.8528 32.2715 56.253 32.0217L50.3056 35.8157C48.2704 34.7807 46.1427 33.9366 43.9502 33.2942C37.4883 31.4313 30.6169 31.5128 24.2015 33.5284C22.2444 34.1468 20.344 34.9303 18.5208 35.8703C16.5888 36.9184 14.7512 38.1302 13.0285 39.4925C9.31928 42.4685 6.28669 46.1934 4.131 50.4215C3.85639 50.9835 3.56608 51.53 3.29931 52.0998L2.61669 53.8641C2.14744 55.0572 1.75948 56.2803 1.45546 57.5253C1.27595 58.1476 1.13962 58.7814 1.04746 59.4223L0.694389 61.3582L0.529618 63.3411C0.454833 64.0019 0.423383 64.6668 0.435465 65.3317C0.413576 66.6826 0.481727 68.0335 0.639467 69.3754C0.725774 70.0546 0.765004 70.7416 0.898388 71.4129L1.32993 73.4348C1.40054 73.7704 1.46331 74.1139 1.54962 74.4496L1.87131 75.441L2.50685 77.4395C2.76577 78.0952 3.06393 78.7353 3.33854 79.3832C3.60141 80.0429 3.90808 80.6845 4.25654 81.3036C4.91597 82.574 5.66315 83.7973 6.4927 84.9648C6.91639 85.5503 7.27731 86.167 7.75593 86.7213L9.19177 88.3762C9.435 88.6495 9.6547 88.9383 9.91362 89.1959L10.6982 89.9766C11.2318 90.484 11.7575 90.9992 12.2675 91.491C12.7775 91.9828 13.4365 92.3887 14.025 92.8493C14.3232 93.0679 14.6056 93.3099 14.9116 93.5207L15.861 94.1139C16.4965 94.4965 17.1085 94.8946 17.7519 95.2771L19.737 96.2685C20.3894 96.6198 21.0659 96.925 21.7613 97.1819C22.4518 97.4317 23.1265 97.7283 23.817 97.9625C25.2022 98.3892 26.6118 98.7333 28.0382 98.993C28.7444 99.11 29.4505 99.2662 30.1645 99.3521L32.2987 99.5316C32.6518 99.5316 33.0048 99.6019 33.3658 99.6019H34.425C35.1311 99.6019 35.8373 99.6019 36.5435 99.5628L38.6305 99.3364L39.6741 99.2193L40.6941 99.0086L42.7184 98.587C43.3853 98.4309 44.0287 98.1889 44.6878 97.9937C45.3394 97.808 45.981 97.5892 46.6101 97.338L48.4696 96.5574C48.7756 96.4247 49.0895 96.3075 49.3876 96.1592L50.2664 95.6752L52.0004 94.7072C53.1302 94.0281 54.1738 93.2318 55.2408 92.5058L56.7081 91.249C57.2051 90.8517 57.6792 90.4269 58.1282 89.9766L59.4307 88.6104L60.0819 87.9313L60.6625 87.1975C63.5067 83.7177 65.6286 79.7111 66.9054 75.4097C68.1821 71.1083 68.5884 66.5976 68.1007 62.1389C68.0458 61.6549 67.9987 61.1631 67.9438 60.6869C67.8888 60.2107 67.7555 59.7345 67.6613 59.2739C67.5671 58.8133 67.473 58.345 67.371 57.8922L67.2298 57.213L67.0179 56.5573C66.7433 55.683 66.4687 54.8321 66.2333 53.9968L65.2211 51.6549C64.8978 50.9066 64.5229 50.1815 64.0992 49.4847C63.699 48.7977 63.3616 48.0951 62.9458 47.4706C60.9259 44.3397 58.4116 41.5534 55.4998 39.2192C55.9862 34.551 56.2295 32.4979 56.2844 32.0217Z" fill="#263238"/>
<path d="M66.4216 46.1748C66.4216 46.1748 66.202 46.2216 65.8724 46.3699C65.4227 46.5701 65.0605 46.9249 64.8524 47.3692L64.7426 47.619L64.6406 47.3535C64.4949 46.9867 64.285 46.6484 64.0207 46.3543C63.5108 45.7792 62.8379 45.3711 62.0906 45.1834C61.5099 45.035 61.1333 45.0741 61.1255 45.0272C61.4522 44.9423 61.7953 44.9423 62.122 45.0272C62.9317 45.1786 63.6668 45.5965 64.209 46.2138C64.492 46.5321 64.7128 46.9001 64.8603 47.2989H64.6406C64.8807 46.8142 65.3038 46.4438 65.8175 46.2685C66.1941 46.1201 66.4295 46.1514 66.4216 46.1748Z" fill="#995037"/>
<path d="M22.5004 34.5275L21.8906 34.5797L22.4581 41.1519L23.0678 41.0998L22.5004 34.5275Z" fill="#06334D"/>
<path d="M58.5364 71.1219L49.6204 79.5584L48.9954 65.5975L49.7825 56.8045L51.5129 56.6639L58.5364 71.1219Z" stroke="#263238" stroke-width="0.5"/>
<path d="M54.9896 63.1381L54.4639 63.0835C53.9614 63.0247 53.4554 63.0013 52.9496 63.0132C51.0957 63.0854 49.2676 63.4708 47.5436 64.153C45.3231 64.9336 42.8359 66.3075 40.0034 67.5175C38.495 68.1661 36.9148 68.6352 35.2957 68.9149C33.5548 69.1419 31.7931 69.1655 30.0467 68.9851C26.4767 68.6651 23.0636 68.0562 19.98 68.5167C18.5272 68.7438 17.1038 69.1286 15.7353 69.6643C14.4407 70.1483 13.2559 70.6479 12.1574 71.0616C10.4589 71.8136 8.65401 72.3007 6.80636 72.5058C6.1253 72.5698 5.43859 72.5383 4.76636 72.4121L5.29205 72.459C5.79361 72.4933 6.29695 72.4933 6.79851 72.459C8.64127 72.2316 10.4396 71.7317 12.1339 70.9758C13.2324 70.5464 14.4171 70.039 15.7117 69.555C17.0855 69.0057 18.5174 68.6128 19.98 68.384C23.1185 67.9078 26.5237 68.5167 30.0859 68.8368C31.8189 69.0197 33.5676 68.9987 35.2957 68.7744C36.8944 68.5018 38.454 68.0378 39.9407 67.3926C42.8045 66.1982 45.2682 64.8399 47.5043 64.0593C49.2421 63.384 51.0846 63.0142 52.9496 62.9664C53.634 62.9448 54.3186 63.0024 54.9896 63.1381Z" fill="#FAFAFA"/>
<path d="M18.6227 81.7018H18.4658L18.0107 81.7408C17.6262 81.7408 17.0535 81.7954 16.3552 81.8189C14.5198 81.9163 12.6793 81.8247 10.8629 81.5456C9.86877 81.383 8.88799 81.1482 7.92839 80.8431C7.1394 80.5936 6.39133 80.2307 5.70793 79.7658C5.2479 79.4547 4.8288 79.0875 4.46039 78.6729C4.32078 78.5264 4.19227 78.3699 4.07593 78.2045C4.58895 78.75 5.15684 79.2418 5.7707 79.6721C6.45543 80.1132 7.19711 80.4598 7.97547 80.7025C8.93017 81.0004 9.90577 81.2275 10.8942 81.3817C12.693 81.6542 14.5129 81.7639 16.3316 81.7096H17.9872H18.6227V81.7018Z" fill="#FAFAFA"/>
<path d="M54.0562 75.1132L53.7345 75.1913C53.4271 75.266 53.1256 75.3625 52.8322 75.4801C51.7726 75.9642 50.7545 76.5334 49.7878 77.1819C48.289 78.0714 46.6366 78.675 44.9154 78.9618C42.8121 79.2962 40.6792 79.4087 38.5522 79.2975C36.2925 79.2194 34.1505 79.0789 32.1968 79.1335C30.4671 79.1592 28.7468 79.3925 27.0732 79.8283C25.9496 80.132 24.8707 80.5808 23.8642 81.1632C23.5085 81.3766 23.2469 81.5483 23.0795 81.6784L22.8049 81.858C23.1317 81.571 23.4807 81.31 23.8485 81.0773C24.8477 80.4673 25.9279 79.9996 27.0575 79.6878C28.7358 79.2305 30.4649 78.984 32.2046 78.954C34.1662 78.8915 36.3239 79.0242 38.5757 79.1023C40.6891 79.2147 42.8086 79.1075 44.8997 78.7822C46.6056 78.5056 48.2463 77.9209 49.7408 77.057C50.7155 76.4082 51.7476 75.8491 52.8243 75.3865C53.2198 75.2377 53.6346 75.1457 54.0562 75.1132Z" fill="#FAFAFA"/>
<path d="M50.3132 88.2436H50.0151C49.7312 88.2112 49.4456 88.1956 49.1598 88.1967C48.1034 88.2369 47.0624 88.4615 46.0841 88.8603C44.8287 89.3287 43.4635 90.1483 41.8786 90.9524C41.0511 91.3805 40.184 91.7282 39.2894 91.9906C38.8079 92.1045 38.3208 92.1931 37.83 92.256C37.3241 92.3045 36.8155 92.3175 36.3078 92.2951C34.3831 92.1517 32.4832 91.7742 30.6508 91.171C29.1548 90.7031 27.6327 90.3225 26.0921 90.0312C25.0566 89.8497 24.0026 89.7946 22.9537 89.8673C22.5771 89.8673 22.2946 89.961 22.0984 89.9766H21.8003C21.8003 89.9766 22.2004 89.8751 22.9458 89.7658C23.9925 89.6725 25.0468 89.7092 26.0843 89.8751C27.6298 90.1573 29.1572 90.53 30.6586 90.9914C32.4835 91.5796 34.3718 91.9517 36.2843 92.0999C36.7842 92.1145 37.2845 92.1015 37.7829 92.0609C39.1878 91.8973 40.547 91.4624 41.7844 90.7806C43.1542 90.0155 44.5662 89.3274 46.0135 88.7198C47.0114 88.3187 48.0758 88.1069 49.152 88.0952C49.544 88.0917 49.9348 88.1416 50.3132 88.2436Z" fill="#FAFAFA"/>
<path d="M41.1414 53.911C40.8816 53.8664 40.6198 53.8352 40.3568 53.8173C39.626 53.8075 38.9039 53.9764 38.254 54.3091C37.2909 54.8061 36.4205 55.4635 35.6805 56.2529C34.7825 57.2478 33.7624 58.1264 32.644 58.868C31.4581 59.5257 30.1175 59.8571 28.7602 59.8282C27.6604 59.8087 26.567 59.6566 25.504 59.3755C24.6017 59.1413 23.8877 58.9071 23.3934 58.7353L22.8285 58.5402C22.7601 58.5222 22.6942 58.496 22.6323 58.4621C22.7023 58.4673 22.7711 58.4831 22.8363 58.509L23.4091 58.6807C23.9112 58.829 24.6331 59.0476 25.5354 59.2584C26.5871 59.5242 27.6672 59.6631 28.7523 59.6721C30.0824 59.6975 31.3955 59.3715 32.5577 58.7275C33.6615 57.9912 34.6729 57.1264 35.5706 56.1514C36.3248 55.3511 37.2179 54.6926 38.2069 54.2076C38.8754 53.8757 39.6183 53.7198 40.3646 53.7548C40.63 53.7675 40.8919 53.8202 41.1414 53.911Z" fill="#FAFAFA"/>
<path d="M45.6609 52.943C45.8571 53.2715 46.0302 53.6132 46.1787 53.9656L46.4455 54.5199C46.524 54.7306 46.6181 54.957 46.7123 55.199C46.9006 55.6908 47.1203 56.2451 47.3007 56.8852L47.5989 57.8766C47.6852 58.2279 47.7793 58.5948 47.8735 58.9695C48.0697 59.7502 48.203 60.5308 48.3757 61.3973C48.6581 63.1225 48.8778 65.0273 49.0269 67.0335C49.3094 71.0538 49.3878 74.6916 49.5604 77.3146C49.6389 78.6261 49.7095 79.6565 49.7801 80.4372C49.8309 80.8149 49.8519 81.1959 49.8429 81.5769C49.7519 81.2074 49.689 80.8316 49.6546 80.4528C49.5447 79.719 49.4349 78.6573 49.325 77.3302C49.0975 74.6994 48.9798 71.0851 48.6974 67.0648C48.5404 65.0585 48.3286 63.1616 48.0697 61.4519C47.9049 60.5932 47.7872 59.7814 47.5989 59.032C47.5126 58.6573 47.4341 58.2513 47.3557 57.9391C47.2772 57.6268 47.1595 57.2677 47.0732 56.9555C46.9084 56.3153 46.7044 55.7611 46.5318 55.2693C46.4534 55.0195 46.367 54.7931 46.2964 54.5745L46.061 54.0124C45.8965 53.6683 45.7626 53.3104 45.6609 52.943Z" fill="#263238"/>
<g opacity="0.3">
<path d="M48.6499 63.3099L52.7927 76.9087L49.7248 79.8049L48.6499 63.3099Z" fill="black"/>
</g>
<g opacity="0.3">
<path d="M34.3702 73.9344C33.4314 74.6196 32.3584 75.1009 31.2206 75.347C30.0829 75.5931 28.9059 75.5986 27.7659 75.3631C26.6259 75.1275 25.5484 74.6563 24.6032 73.9798C23.658 73.3033 22.8663 72.4368 22.2793 71.4363C22.5167 72.7022 23.1101 73.8751 23.9906 74.8188C24.8711 75.7626 26.0026 76.4385 27.2538 76.7681C31.0591 77.7439 34.3702 73.9344 34.3702 73.9344Z" fill="black"/>
</g>
<path d="M20.6865 67.4629C20.6508 69.2943 20.4804 71.1207 20.1765 72.9273C20.0057 74.7425 19.7015 76.5428 19.2664 78.3138C19.3015 76.4823 19.472 74.6559 19.7764 72.8493C19.949 71.0344 20.2532 69.2342 20.6865 67.4629Z" fill="#263238"/>
<mask id="path-15-inside-1_55_202" fill="white">
<path d="M22.2164 20.9835C20.1843 22.0764 9.17613 22.9663 7.90505 21.0538C7.30133 20.0721 7.07145 18.9076 7.25717 17.7718C7.44289 16.6359 8.03189 15.6039 8.9172 14.8633C7.82757 13.7182 7.19682 12.216 7.14397 10.64C7.12637 9.8573 7.3008 9.08211 7.65217 8.38158C8.00353 7.68106 8.52123 7.07632 9.16043 6.61971C9.8131 6.1826 10.5844 5.95434 11.3711 5.9655C12.1578 5.97666 12.9223 6.22671 13.5621 6.68215C12.6677 6.04203 12.9815 4.62127 13.6327 3.73914C14.1749 3.00881 14.8799 2.41354 15.6923 2.00013C16.5048 1.58671 17.4026 1.36643 18.315 1.3566C19.2275 1.34676 20.1299 1.54764 20.9511 1.94344C21.7724 2.33924 22.4902 2.91918 23.0481 3.63765C23.4493 2.46304 24.2473 1.46312 25.3063 0.808211C26.3652 0.153304 27.6197 -0.116079 28.8559 0.0459491C30.0921 0.207977 31.2336 0.791392 32.086 1.69682C32.9384 2.60225 33.4489 3.77368 33.5306 5.01158C35.3509 4.27778 37.5086 5.61268 38.2383 7.42377C38.968 9.23486 38.6306 11.327 38.0186 13.1693"/>
</mask>
<path d="M7.90505 21.0538L7.47915 21.3157L7.48376 21.3232L7.48863 21.3305L7.90505 21.0538ZM8.9172 14.8633L9.23803 15.2468L9.64687 14.9048L9.27942 14.5186L8.9172 14.8633ZM7.14397 10.64L6.64407 10.6512L6.64425 10.6568L7.14397 10.64ZM9.16043 6.61971L8.88221 6.20427L8.87594 6.20847L8.8698 6.21285L9.16043 6.61971ZM13.5621 6.68215L13.2722 7.0895L13.8531 6.27555L13.5621 6.68215ZM13.6327 3.73914L13.2313 3.44112L13.2305 3.44217L13.6327 3.73914ZM23.0481 3.63765L22.6532 3.94431L23.2217 4.67645L23.5213 3.79925L23.0481 3.63765ZM33.5306 5.01158L33.0317 5.04451L33.0771 5.73347L33.7175 5.47532L33.5306 5.01158ZM21.9796 20.5431C21.7815 20.6497 21.4359 20.7713 20.9483 20.8938C20.4696 21.0142 19.8839 21.1284 19.2252 21.2304C17.9081 21.4344 16.3211 21.5867 14.7564 21.646C13.1888 21.7055 11.6617 21.6709 10.4588 21.5079C9.85625 21.4262 9.35334 21.3146 8.97385 21.1753C8.57897 21.0304 8.39119 20.8819 8.32147 20.777L7.48863 21.3305C7.73668 21.7038 8.17095 21.9459 8.62931 22.1141C9.10306 22.2879 9.68457 22.4121 10.3245 22.4988C11.6066 22.6726 13.197 22.7059 14.7943 22.6453C16.3945 22.5846 18.02 22.429 19.3783 22.2186C20.0572 22.1134 20.6748 21.9937 21.1921 21.8637C21.7004 21.7359 22.1434 21.5905 22.4533 21.4239L21.9796 20.5431ZM8.33095 20.7918C7.7901 19.9124 7.58432 18.8696 7.75062 17.8524L6.76373 17.6911C6.55859 18.9457 6.81255 20.2318 7.47915 21.3157L8.33095 20.7918ZM7.75062 17.8524C7.91693 16.8353 8.44443 15.9107 9.23803 15.2468L8.59638 14.4798C7.61935 15.2971 6.96886 16.4364 6.76373 17.6911L7.75062 17.8524ZM9.27942 14.5186C8.27403 13.4621 7.69242 12.0764 7.64369 10.6233L6.64425 10.6568C6.70122 12.3555 7.38112 13.9744 8.55499 15.208L9.27942 14.5186ZM7.64385 10.6288C7.62808 9.92776 7.7843 9.23338 8.0991 8.60575L7.20523 8.15742C6.81731 8.93084 6.62466 9.78684 6.6441 10.6512L7.64385 10.6288ZM8.0991 8.60575C8.41391 7.97811 8.87788 7.43601 9.45107 7.02657L8.8698 6.21285C8.16458 6.71662 7.59315 7.38401 7.20523 8.15742L8.0991 8.60575ZM9.43866 7.03515C10.0069 6.65461 10.6786 6.45572 11.364 6.46545L11.3782 5.46555C10.4902 5.45295 9.61934 5.7106 8.88221 6.20427L9.43866 7.03515ZM11.364 6.46545C12.0494 6.47517 12.7152 6.69303 13.2722 7.0895L13.8521 6.2748C13.1293 5.76038 12.2662 5.47815 11.3782 5.46555L11.364 6.46545ZM13.8531 6.27555C13.5973 6.09244 13.4774 5.78174 13.5159 5.34528C13.5547 4.90404 13.7559 4.41417 14.035 4.03611L13.2305 3.44217C12.8584 3.94624 12.577 4.60781 12.5197 5.25751C12.4621 5.91199 12.6325 6.63174 13.2711 7.08875L13.8531 6.27555ZM14.0342 4.03716C14.5302 3.36901 15.1753 2.8242 15.9191 2.44575L15.4656 1.5545C14.5844 2.00287 13.8196 2.6486 13.2313 3.44112L14.0342 4.03716ZM15.9191 2.44575C16.6628 2.0673 17.4848 1.86558 18.3204 1.85657L18.3097 0.856628C17.3203 0.867292 16.3467 1.10613 15.4656 1.5545L15.9191 2.44575ZM18.3204 1.85657C19.156 1.84756 19.9822 2.03151 20.7341 2.39386L21.1682 1.49302C20.2775 1.06376 19.299 0.845964 18.3097 0.856628L18.3204 1.85657ZM20.7341 2.39386C21.4859 2.7562 22.1428 3.28699 22.6532 3.94431L23.443 3.331C22.8376 2.55136 22.0589 1.92228 21.1682 1.49302L20.7341 2.39386ZM23.5213 3.79925C23.8849 2.73458 24.6084 1.82768 25.5693 1.23346L25.0433 0.382961C23.8862 1.09856 23.0136 2.1915 22.575 3.47606L23.5213 3.79925ZM25.5693 1.23346C26.5302 0.639211 27.6687 0.394625 28.7909 0.541709L28.9209 -0.449811C27.5706 -0.626783 26.2003 -0.332603 25.0433 0.382961L25.5693 1.23346ZM28.7909 0.541709C29.9131 0.688791 30.9488 1.21834 31.7219 2.03955L32.45 1.35409C31.5184 0.364446 30.2711 -0.272837 28.9209 -0.449811L28.7909 0.541709ZM31.7219 2.03955C32.495 2.8607 32.9576 3.92269 33.0317 5.04451L34.0295 4.97865C33.9401 3.62466 33.3817 2.34379 32.45 1.35409L31.7219 2.03955ZM33.7175 5.47532C34.4576 5.17699 35.2941 5.28753 36.0539 5.70223C36.8157 6.11801 37.4552 6.818 37.7745 7.61062L38.702 7.23691C38.2917 6.21845 37.4875 5.34545 36.533 4.82446C35.5764 4.30237 34.4239 4.11237 33.3436 4.54784L33.7175 5.47532ZM37.7745 7.61062C38.4366 9.25399 38.1447 11.2036 37.5441 13.0117L38.4931 13.3269C39.1165 11.4504 39.4993 9.21572 38.702 7.23691L37.7745 7.61062Z" fill="#263238" mask="url(#path-15-inside-1_55_202)"/>
<mask id="path-17-inside-2_55_202" fill="white">
<path d="M16.5515 27.9546C15.6447 26.8466 15.1934 25.4381 15.2883 24.0124C15.3911 22.5962 15.795 21.2179 16.4731 19.9686C17.9254 17.183 20.1122 14.8431 22.7992 13.1997C25.4862 11.5563 28.5721 10.6715 31.726 10.64C34.2641 10.5633 36.7534 11.3448 38.7875 12.857C39.7878 13.63 40.5498 14.667 40.9867 15.8497C41.4237 17.0325 41.518 18.3136 41.2591 19.5471"/>
</mask>
<path d="M15.2883 24.0124L14.7896 23.9762L14.7894 23.9792L15.2883 24.0124ZM16.4731 19.9686L16.9126 20.2072L16.9164 20.1998L16.4731 19.9686ZM31.726 10.64L31.731 11.1401L31.7411 11.1398L31.726 10.64ZM38.7875 12.857L39.0933 12.4613L39.0858 12.4557L38.7875 12.857ZM16.9385 27.6379C16.1119 26.6279 15.7007 25.3444 15.7872 24.0456L14.7894 23.9792C14.6861 25.5318 15.1776 27.0653 16.1646 28.2713L16.9385 27.6379ZM15.787 24.0486C15.8847 22.7034 16.2683 21.3941 16.9125 20.2072L16.0336 19.7301C15.3217 21.0418 14.8976 22.4891 14.7896 23.9762L15.787 24.0486ZM16.9164 20.1998C18.3266 17.4948 20.4503 15.2224 23.0601 13.6262L22.5383 12.7732C19.7741 14.4638 17.5241 16.8711 16.0297 19.7375L16.9164 20.1998ZM23.0601 13.6262C25.6699 12.0301 28.6673 11.1705 31.731 11.14L31.721 10.14C28.4768 10.1724 25.3026 11.0826 22.5383 12.7732L23.0601 13.6262ZM31.7411 11.1398C34.1668 11.0664 36.5456 11.8134 38.4892 13.2583L39.0858 12.4557C36.9611 10.8762 34.3613 10.0601 31.7109 10.1402L31.7411 11.1398ZM38.4818 13.2526C39.408 13.9685 40.1133 14.9284 40.5177 16.023L41.4557 15.6765C40.9862 14.4055 40.1675 13.2916 39.0933 12.4614L38.4818 13.2526ZM40.5177 16.023C40.9221 17.1176 41.0094 18.303 40.7697 19.4444L41.7484 19.6498C42.0267 18.3242 41.9253 16.9475 41.4557 15.6765L40.5177 16.023Z" fill="#06334D" mask="url(#path-17-inside-2_55_202)"/>
<mask id="path-19-inside-3_55_202" fill="white">
<path d="M26.2963 16.3699C24.7271 18.9382 25.8334 20.4917 27.8655 22.7087C28.2819 23.2232 28.8144 23.6327 29.4197 23.904C30.025 24.1753 30.686 24.3007 31.3492 24.27C32.6674 24.1139 33.8364 22.7634 33.4441 21.4988C33.3492 21.9129 33.3528 22.3434 33.4549 22.7558C33.5569 23.1683 33.7544 23.5513 34.0317 23.8743C34.309 24.1973 34.6584 24.4513 35.0519 24.616C35.4454 24.7807 35.8722 24.8516 36.2982 24.8231C36.7241 24.7945 37.1375 24.6672 37.5052 24.4513C37.8729 24.2355 38.1848 23.9371 38.416 23.58C38.6471 23.2229 38.7912 22.8169 38.8366 22.3946C38.882 21.9722 38.8275 21.5451 38.6775 21.1475C38.8396 21.7309 39.1053 22.2808 39.4621 22.7712C39.6398 23.0117 39.8792 23.2003 40.1553 23.3171C40.4314 23.4338 40.734 23.4745 41.0314 23.4347C41.816 23.2552 42.8987 23.2005 42.9929 21.8735C43.2126 18.9148 42.2632 16.5495 40.3331 14.9648C38.0982 13.3666 35.3301 12.6871 32.6046 13.0678C30.1177 13.501 27.8415 14.732 26.1237 16.5729"/>
</mask>
<path d="M27.8655 22.7087L28.2542 22.3942L28.2445 22.3822L28.2341 22.3709L27.8655 22.7087ZM31.3492 24.27L31.3723 24.7695L31.3902 24.7687L31.408 24.7666L31.3492 24.27ZM33.4441 21.4988L33.9217 21.3506L33.3717 19.5777L32.9568 21.387L33.4441 21.4988ZM38.6775 21.1475L39.1453 20.971L38.1958 21.2813L38.6775 21.1475ZM39.4621 22.7712L39.0578 23.0654L39.0599 23.0682L39.4621 22.7712ZM41.0314 23.4347L41.0976 23.9303L41.1204 23.9273L41.1429 23.9221L41.0314 23.4347ZM42.9929 21.8735L42.4943 21.8364L42.4942 21.8381L42.9929 21.8735ZM40.3331 14.9648L40.6503 14.5783L40.6375 14.5678L40.6239 14.5581L40.3331 14.9648ZM32.6046 13.0678L32.5354 12.5726L32.5271 12.5738L32.5188 12.5752L32.6046 13.0678ZM25.8696 16.1092C25.0259 17.4901 24.8646 18.6746 25.2569 19.8316C25.6301 20.9325 26.4898 21.9479 27.4969 23.0466L28.2341 22.3709C27.2091 21.2526 26.4996 20.3827 26.2039 19.5105C25.9272 18.6944 25.9974 17.8181 26.7229 16.6306L25.8696 16.1092ZM27.4769 23.0233C27.9428 23.599 28.5384 24.0569 29.2152 24.3603L29.6241 23.4477C29.0903 23.2085 28.621 22.8475 28.2542 22.3942L27.4769 23.0233ZM29.2152 24.3603C29.892 24.6636 30.631 24.8038 31.3723 24.7695L31.3261 23.7706C30.7411 23.7976 30.158 23.687 29.6241 23.4477L29.2152 24.3603ZM31.408 24.7666C32.2111 24.6714 32.9483 24.2188 33.4301 23.6105C33.9133 23.0003 34.1784 22.1782 33.9217 21.3506L32.9666 21.6469C33.1022 22.0839 32.9789 22.5695 32.6461 22.9897C32.3119 23.4118 31.8054 23.7125 31.2904 23.7735L31.408 24.7666ZM32.9568 21.387C32.8443 21.8775 32.8486 22.3874 32.9695 22.8759L33.9402 22.6358C33.857 22.2994 33.854 21.9483 33.9315 21.6105L32.9568 21.387ZM32.9695 22.8759C33.0903 23.3644 33.3242 23.8178 33.6523 24.2L34.4111 23.5486C34.1846 23.2848 34.0234 22.9722 33.9402 22.6358L32.9695 22.8759ZM33.6523 24.2C33.9805 24.5822 34.3937 24.8825 34.8588 25.0772L35.245 24.1548C34.9231 24.0201 34.6376 23.8124 34.4111 23.5486L33.6523 24.2ZM34.8588 25.0772C35.324 25.272 35.8283 25.3557 36.3316 25.3219L36.2647 24.3242C35.9161 24.3476 35.5668 24.2895 35.245 24.1548L34.8588 25.0772ZM36.3316 25.3219C36.835 25.2881 37.3235 25.1377 37.7583 24.8825L37.2521 24.0201C36.9514 24.1966 36.6133 24.3008 36.2647 24.3242L36.3316 25.3219ZM37.7583 24.8825C38.1931 24.6274 38.5621 24.2744 38.8357 23.8517L37.9962 23.3083C37.8075 23.5998 37.5527 23.8437 37.2521 24.0201L37.7583 24.8825ZM38.8357 23.8517C39.1093 23.429 39.2799 22.9483 39.3337 22.448L38.3395 22.3411C38.3024 22.6856 38.185 23.0168 37.9962 23.3083L38.8357 23.8517ZM39.3337 22.448C39.3875 21.9477 39.323 21.4419 39.1453 20.971L38.2097 21.3239C38.3321 21.6484 38.3765 21.9967 38.3395 22.3411L39.3337 22.448ZM38.1958 21.2813C38.3739 21.9225 38.6659 22.5267 39.0578 23.0654L39.8664 22.477C39.5448 22.035 39.3053 21.5394 39.1593 21.0136L38.1958 21.2813ZM39.0599 23.0682C39.2909 23.3811 39.6021 23.626 39.9606 23.7776L40.35 22.8565C40.1563 22.7746 39.9886 22.6424 39.8644 22.4742L39.0599 23.0682ZM39.9606 23.7776C40.319 23.9291 40.7117 23.9819 41.0976 23.9303L40.9652 22.9391C40.7563 22.967 40.5438 22.9385 40.35 22.8565L39.9606 23.7776ZM41.1429 23.9221C41.2334 23.9014 41.3287 23.8824 41.4364 23.8606C41.5414 23.8393 41.6561 23.8157 41.7721 23.7879C42.0024 23.7327 42.2611 23.6558 42.5055 23.5261C42.7548 23.3937 42.9937 23.2041 43.1757 22.9254C43.3573 22.6472 43.4632 22.3093 43.4916 21.9088L42.4942 21.8381C42.4755 22.1012 42.4107 22.2678 42.3383 22.3787C42.2663 22.489 42.1678 22.5731 42.0366 22.6428C41.9005 22.715 41.7355 22.7684 41.5391 22.8154C41.4418 22.8387 41.3425 22.8593 41.2377 22.8805C41.1357 22.9012 41.0255 22.9232 40.9198 22.9473L41.1429 23.9221ZM43.4915 21.9105C43.7213 18.8155 42.725 16.2817 40.6503 14.5783L40.0158 15.3512C41.8014 16.8172 42.7038 19.0142 42.4943 21.8364L43.4915 21.9105ZM40.6239 14.5581C38.2846 12.8852 35.3876 12.1743 32.5354 12.5726L32.6738 13.563C35.2726 13.2 37.9118 13.8479 40.0422 15.3715L40.6239 14.5581ZM32.5188 12.5752C29.9249 13.0271 27.5505 14.3111 25.7581 16.2318L26.4892 16.914C28.1326 15.153 30.3104 13.975 32.6904 13.5604L32.5188 12.5752Z" fill="#263238" mask="url(#path-19-inside-3_55_202)"/>
<mask id="path-21-inside-4_55_202" fill="white">
<path d="M27.897 16.2372C28.7225 17.7227 29.2401 19.3579 29.4192 21.0459C29.5985 22.7466 29.103 24.4498 28.0383 25.7922C27.4984 26.45 26.7818 26.9415 25.9719 27.2097C25.1621 27.4778 24.2923 27.5114 23.464 27.3067C23.7427 28.0216 23.8597 28.7887 23.8069 29.5537C23.754 30.3187 23.5324 31.0627 23.158 31.7329C22.7585 32.3866 22.1447 32.8834 21.4201 33.1393C20.6955 33.3953 19.9043 33.3948 19.18 33.1381C17.9089 32.5838 17.2576 31.163 16.9752 29.8125C16.6302 28.1706 16.6596 26.4726 17.0614 24.8435C17.4632 23.2144 18.2271 21.6957 19.2969 20.3992C20.3666 19.1026 21.715 18.0613 23.2427 17.3518C24.7705 16.6424 26.4387 16.2828 28.1246 16.2996"/>
</mask>
<path d="M29.4192 21.0459L29.9164 20.9935L29.9164 20.9932L29.4192 21.0459ZM28.0383 25.7922L28.4248 26.1095L28.43 26.1029L28.0383 25.7922ZM23.464 27.3067L23.5839 26.8213L22.6478 26.5899L22.9981 27.4883L23.464 27.3067ZM23.158 31.7329L23.5846 31.9936L23.5897 31.9853L23.5944 31.9768L23.158 31.7329ZM19.18 33.1381L18.9801 33.5964L18.9963 33.6034L19.0129 33.6093L19.18 33.1381ZM16.9752 29.8125L17.4646 29.7102L17.4645 29.7097L16.9752 29.8125ZM27.46 16.48C28.2528 17.9069 28.75 19.4775 28.922 21.0987L29.9164 20.9932C29.7302 19.2383 29.1921 17.5385 28.3341 15.9943L27.46 16.48ZM28.9219 21.0984C29.0875 22.6686 28.6301 24.2414 27.6465 25.4815L28.43 26.1029C29.5759 24.6582 30.1095 22.8247 29.9164 20.9935L28.9219 21.0984ZM27.6518 25.475C27.1721 26.0594 26.5351 26.4965 25.8148 26.735L26.1291 27.6843C27.0285 27.3866 27.8247 26.8405 28.4247 26.1094L27.6518 25.475ZM25.8148 26.735C25.0945 26.9735 24.3208 27.0034 23.5839 26.8213L23.344 27.7921C24.2638 28.0194 25.2297 27.9821 26.1291 27.6843L25.8148 26.735ZM22.9981 27.4883C23.25 28.1345 23.3558 28.8279 23.308 29.5192L24.3057 29.5882C24.3636 28.7496 24.2353 27.9086 23.9298 27.125L22.9981 27.4883ZM23.308 29.5192C23.2603 30.2106 23.06 30.8831 22.7215 31.489L23.5944 31.9768C24.0048 31.2423 24.2477 30.4268 24.3057 29.5882L23.308 29.5192ZM22.7313 31.4722C22.392 32.0276 21.8702 32.45 21.2536 32.6679L21.5866 33.6108C22.4193 33.3167 23.1251 32.7457 23.5846 31.9936L22.7313 31.4722ZM21.2536 32.6679C20.6369 32.8857 19.9635 32.8853 19.347 32.6668L19.0129 33.6093C19.8451 33.9044 20.7541 33.9049 21.5866 33.6108L21.2536 32.6679ZM19.3798 32.6797C18.3407 32.2267 17.7385 31.0196 17.4646 29.7102L16.4858 29.9149C16.7768 31.3064 17.477 32.941 18.9801 33.5964L19.3798 32.6797ZM17.4645 29.7097C17.1349 28.1413 17.1631 26.5194 17.5469 24.9632L16.576 24.7238C16.1562 26.4258 16.1254 28.1999 16.4859 29.9153L17.4645 29.7097ZM17.5469 24.9632C17.9307 23.4071 18.6604 21.9562 19.6825 20.7174L18.9112 20.0809C17.7938 21.4352 16.9958 23.0217 16.576 24.7238L17.5469 24.9632ZM19.6825 20.7174C20.7046 19.4786 21.9932 18.4834 23.4533 17.8053L23.0321 16.8983C21.4368 17.6392 20.0286 18.7267 18.9112 20.0809L19.6825 20.7174ZM23.4533 17.8053C24.9135 17.1272 26.5081 16.7835 28.1196 16.7996L28.1296 15.7996C26.3693 15.7821 24.6274 16.1575 23.0321 16.8983L23.4533 17.8053Z" fill="#263238" mask="url(#path-21-inside-4_55_202)"/>
<path d="M23.1659 34.2544C23.1659 34.2544 22.9305 34.3324 22.5382 34.2544C22.2787 34.2043 22.035 34.0931 21.8275 33.9302C21.62 33.7672 21.4548 33.5571 21.3456 33.3176C21.236 33.0363 21.236 32.7245 21.3456 32.4433C21.4316 32.2182 21.5781 32.0211 21.7693 31.8734C22.091 31.6314 22.3499 31.6236 22.3577 31.647C22.3656 31.6704 22.1459 31.7641 21.887 32.0139C21.7237 32.1644 21.6107 32.361 21.563 32.5773C21.5153 32.7936 21.5353 33.0192 21.6202 33.2239C21.718 33.428 21.8581 33.6093 22.0311 33.7559C22.2042 33.9026 22.4064 34.0112 22.6245 34.0748C22.9305 34.1529 23.1659 34.1685 23.1659 34.2544Z" fill="#995037"/>
<path d="M33.8522 33.2396C33.8522 33.2396 33.9228 33.3489 33.8522 33.5128C33.8047 33.7351 33.6929 33.9386 33.5305 34.0983C33.3698 34.2582 33.1649 34.3668 32.942 34.4106C32.7694 34.4106 32.6674 34.4106 32.6595 34.4106C32.6517 34.4106 33.0362 34.2622 33.3422 33.95C33.6482 33.6377 33.7815 33.2318 33.8522 33.2396Z" fill="#263238"/>
<path d="M40.7412 27.4394C40.7532 27.5426 40.7443 27.6472 40.7151 27.7469C40.6859 27.8467 40.637 27.9396 40.5712 28.0203C40.5054 28.101 40.4241 28.1679 40.3321 28.2169C40.24 28.266 40.139 28.2962 40.0351 28.3059C39.8314 28.3352 39.6244 28.2836 39.4585 28.1624C39.2927 28.0412 39.1813 27.8601 39.1485 27.658C39.1365 27.5548 39.1454 27.4502 39.1746 27.3505C39.2038 27.2507 39.2527 27.1577 39.3185 27.077C39.3842 26.9963 39.4655 26.9295 39.5576 26.8805C39.6497 26.8314 39.7506 26.8012 39.8546 26.7915C40.0583 26.7622 40.2653 26.8138 40.4312 26.9349C40.597 27.0561 40.7084 27.2373 40.7412 27.4394Z" fill="#263238"/>
<path d="M41.2666 26.284C41.1803 26.3933 40.5369 25.9952 39.6974 26.0732C38.8579 26.1513 38.2459 26.6353 38.1282 26.5338C38.0105 26.4323 38.1282 26.2996 38.4185 26.0732C38.7687 25.7862 39.1983 25.612 39.6503 25.5736C40.0999 25.5362 40.5499 25.64 40.9371 25.8702C41.2117 26.0498 41.3137 26.2293 41.2666 26.284Z" fill="#263238"/>
<path d="M32.6987 28.2044C32.7107 28.3076 32.7018 28.4122 32.6726 28.5119C32.6434 28.6117 32.5945 28.7046 32.5287 28.7853C32.463 28.8661 32.3817 28.9329 32.2896 28.9819C32.1975 29.031 32.0966 29.0612 31.9926 29.0709C31.7889 29.1002 31.5819 29.0487 31.416 28.9275C31.2502 28.8063 31.1389 28.6251 31.106 28.423C31.094 28.3198 31.1029 28.2152 31.1321 28.1155C31.1613 28.0157 31.2102 27.9228 31.276 27.8421C31.3418 27.7614 31.4231 27.6945 31.5151 27.6455C31.6072 27.5965 31.7082 27.5662 31.8121 27.5565C32.0158 27.5272 32.2228 27.5788 32.3887 27.7C32.5545 27.8212 32.6659 28.0023 32.6987 28.2044Z" fill="#263238"/>
<path d="M32.8086 27.0022C32.7145 27.1115 32.0711 26.7212 31.2394 26.7993C30.4077 26.8773 29.7879 27.3535 29.6702 27.2598C29.5525 27.1662 29.6702 27.0178 29.9605 26.7993C30.3101 26.5063 30.7442 26.3313 31.2002 26.2996C31.6475 26.2585 32.0962 26.3625 32.4791 26.5963C32.7459 26.7758 32.8479 26.9554 32.8086 27.0022Z" fill="#263238"/>
<path d="M36.308 33.1927C36.7486 33.0124 37.2097 32.8865 37.6811 32.818C37.9008 32.818 38.1048 32.7165 38.1283 32.5682C38.1295 32.3388 38.0582 32.1149 37.9243 31.9281L37.1397 30.32C36.4145 28.961 35.8005 27.546 35.3037 26.0889C36.1303 27.3869 36.8493 28.7497 37.4536 30.1638L38.2382 31.7876C38.3991 32.0376 38.4658 32.3363 38.4265 32.6306C38.4018 32.7114 38.3585 32.7853 38.2999 32.8463C38.2413 32.9073 38.1691 32.9538 38.0891 32.9819C37.9704 33.0264 37.8465 33.0552 37.7203 33.0678C37.257 33.17 36.7822 33.212 36.308 33.1927Z" fill="#263238"/>
<path d="M33.8208 33.9967C33.9621 33.9967 34.0484 34.9101 34.9036 35.5034C35.7588 36.0967 36.7474 35.9015 36.7631 36.0342C36.7788 36.1669 36.5591 36.2372 36.1354 36.284C35.5815 36.3402 35.0255 36.1991 34.5662 35.8859C34.1267 35.5924 33.822 35.1377 33.7188 34.6213C33.6717 34.2543 33.7581 33.9967 33.8208 33.9967Z" fill="#263238"/>
<path d="M33.4286 25.4409C33.3658 25.6829 32.4949 25.6439 31.4984 25.8469C30.502 26.0498 29.7016 26.4011 29.5526 26.206C29.4035 26.0108 29.6075 25.8781 29.9135 25.6205C30.3313 25.3094 30.8142 25.096 31.3263 24.996C31.8383 24.896 32.3665 24.912 32.8715 25.0428C33.256 25.1599 33.4521 25.3238 33.4286 25.4409Z" fill="#263238"/>
<path d="M41.008 24.6369C40.8746 24.8477 40.2234 24.6916 39.5486 24.7462C38.8738 24.8009 38.2461 24.9882 38.0892 24.7931C37.9323 24.5979 38.0892 24.4964 38.3403 24.2935C38.6754 24.0391 39.0804 23.892 39.5015 23.8719C39.9204 23.8449 40.3373 23.9486 40.6941 24.1685C40.9687 24.3403 41.0629 24.5354 41.008 24.6369Z" fill="#263238"/>
<path d="M18.7324 21.1396C18.7324 21.1396 18.5677 21.0382 18.3558 20.804C18.0748 20.496 17.854 20.1386 17.7046 19.7501C17.5604 19.3584 17.5015 18.9406 17.532 18.5245C17.5273 18.3524 17.5622 18.1815 17.634 18.0249C17.6234 18.5901 17.7001 19.1535 17.8615 19.6955C18.1008 20.2056 18.3926 20.6896 18.7324 21.1396Z" fill="#FAFAFA"/>
<path d="M20.6629 19.0162C20.5264 18.9257 20.4069 18.8121 20.3098 18.6806C20.0526 18.3837 19.8338 18.0559 19.6586 17.7048C19.4897 17.3516 19.3557 16.983 19.2584 16.6041C19.2032 16.4514 19.1766 16.29 19.18 16.1279C19.2349 16.1279 19.4232 16.8226 19.8077 17.6345C20.1921 18.4464 20.71 18.9772 20.6629 19.0162Z" fill="#FAFAFA"/>
<path d="M23.6206 17.1974C23.6206 17.1974 23.4558 17.0569 23.2283 16.7915C22.9366 16.444 22.6742 16.0733 22.4437 15.683C22.2209 15.2903 22.0243 14.8835 21.8552 14.4651C21.7752 14.2962 21.7172 14.1178 21.6826 13.9343C21.7375 13.9343 22.0749 14.715 22.5849 15.6049C23.0949 16.4948 23.6677 17.1662 23.6206 17.1974Z" fill="#FAFAFA"/>
<path d="M27.3245 15.4332C27.2617 15.4332 26.9793 14.5823 26.3987 13.6377C25.8181 12.6931 25.1119 12.0764 25.159 12.0764C25.3282 12.1848 25.4813 12.3162 25.6141 12.4667C25.9574 12.8068 26.265 13.1808 26.532 13.583C26.7903 13.9925 27.0008 14.4299 27.1597 14.8867C27.2373 15.0613 27.2926 15.2449 27.3245 15.4332Z" fill="#FAFAFA"/>
<path d="M30.455 13.6377C30.3429 13.109 30.1988 12.5877 30.0234 12.0764C29.7341 11.6387 29.4114 11.2238 29.0583 10.8352C29.0583 10.8352 29.2231 10.921 29.4428 11.1162C29.74 11.3677 29.9875 11.6722 30.1725 12.0139C30.3329 12.3663 30.4285 12.7443 30.455 13.1302C30.4886 13.2977 30.4886 13.4702 30.455 13.6377Z" fill="#FAFAFA"/>
<path d="M34.127 12.9273C34.0799 12.9273 33.9151 12.3809 33.5464 11.7642C33.1776 11.1475 32.7618 10.7415 32.8088 10.7025C33.1849 10.9463 33.4883 11.286 33.6876 11.6861C33.9402 12.0547 34.0917 12.4825 34.127 12.9273Z" fill="#FAFAFA"/>
<path d="M37.2968 13.4503C37.2497 13.4503 37.1713 12.9429 36.9281 12.373C36.761 12.0358 36.5441 11.7253 36.2847 11.4518C36.4683 11.5307 36.6331 11.6473 36.7683 11.7939C36.9035 11.9405 37.0061 12.1139 37.0693 12.3028C37.2496 12.6572 37.3284 13.0542 37.2968 13.4503Z" fill="#FAFAFA"/>
<path d="M39.2817 13.3332C39.2817 13.3332 39.4857 13.5049 39.5092 13.8172C39.5328 14.1295 39.3994 14.348 39.3601 14.3324C39.3209 14.3168 39.3601 14.0982 39.3601 13.8328C39.3601 13.5674 39.2425 13.3566 39.2817 13.3332Z" fill="#FAFAFA"/>
<path d="M17.5245 23.708C17.0309 23.5455 16.6022 23.231 16.3003 22.81C15.9984 22.3889 15.8391 21.8832 15.8454 21.366C15.9674 21.8423 16.1661 22.2957 16.4339 22.7087C16.7459 23.0935 17.1134 23.4302 17.5245 23.708Z" fill="#FAFAFA"/>
<path d="M16.6694 26.0733C16.5172 26.092 16.3629 26.0794 16.2158 26.0365C16.0687 25.9935 15.932 25.921 15.8142 25.8234C15.6798 25.75 15.5614 25.6507 15.4658 25.5315C15.3702 25.4122 15.2992 25.2753 15.2571 25.1287C15.2963 25.1287 15.5082 25.4331 15.9005 25.6907C16.2928 25.9484 16.6772 26.0264 16.6694 26.0733Z" fill="#FAFAFA"/>
<path d="M36.6689 20.6244C36.8851 20.5811 37.0976 20.5211 37.3044 20.4448C37.8496 20.1878 38.2839 19.7446 38.5284 19.1958C38.7091 18.7935 38.7879 18.3533 38.7578 17.9137C38.7277 17.4741 38.5897 17.0485 38.3558 16.6743C37.7899 15.7358 36.8728 15.0591 35.8058 14.793C34.7394 14.5251 33.6307 14.4668 32.5418 14.6213C31.6495 14.7249 30.7802 14.9727 29.9682 15.355C29.2259 15.7172 28.5683 16.2305 28.0381 16.8617C28.1571 16.6704 28.2965 16.4924 28.4539 16.3308C28.8799 15.8882 29.3788 15.5212 29.929 15.2458C30.7469 14.8414 31.6276 14.5774 32.5339 14.4651C33.6429 14.3007 34.7735 14.3564 35.8607 14.6291C36.9651 14.9101 37.9128 15.6145 38.497 16.5885C38.7374 16.9838 38.8767 17.4318 38.9027 17.8932C38.9287 18.3545 38.8406 18.8152 38.6461 19.2348C38.3778 19.7986 37.9118 20.2455 37.3358 20.4917C37.1265 20.5856 36.8984 20.631 36.6689 20.6244Z" fill="#455A64"/>
<path d="M30.7766 21.2957C31.0379 21.0442 31.239 20.7373 31.365 20.398C31.4767 20.0262 31.4767 19.63 31.365 19.2582C31.2278 18.7998 30.9188 18.4114 30.502 18.1731C29.7203 17.7582 28.9006 17.4184 28.054 17.1583C27.4027 16.9476 26.9869 16.8383 26.9947 16.8148C27.0026 16.7914 27.1046 16.8148 27.2929 16.8539C27.4812 16.8929 27.7558 16.9554 28.0775 17.049C28.9509 17.2759 29.7939 17.6061 30.5883 18.0326C31.0354 18.2951 31.362 18.7208 31.4984 19.2192C31.599 19.6224 31.5772 20.0462 31.4357 20.437C31.3375 20.697 31.182 20.9317 30.9806 21.124C30.9221 21.1916 30.8533 21.2496 30.7766 21.2957Z" fill="#455A64"/>
<path d="M15.0059 6.50262C14.9987 6.25147 15.0441 6.00157 15.1392 5.76882C15.3851 5.10832 15.8575 4.5554 16.4731 4.20754C16.9376 3.96648 17.4515 3.83478 17.9753 3.8226C18.499 3.81042 19.0186 3.91808 19.4939 4.13728C20.0745 4.41829 20.5863 4.82255 20.9929 5.32158C21.3996 5.82062 21.6914 6.4023 21.8477 7.02565H21.7065C21.9006 6.80085 22.125 6.60383 22.3734 6.44017C22.9568 6.0512 23.6465 5.85073 24.3486 5.8661C25.0507 5.88147 25.7309 6.11192 26.2965 6.52604C26.7374 6.89154 27.066 7.37302 27.245 7.9155C27.424 8.45798 27.446 9.03962 27.3086 9.59397C27.1142 10.3394 26.6395 10.9821 25.9826 11.3894C25.7445 11.5458 25.478 11.6545 25.198 11.7095C25.4542 11.6114 25.6989 11.4857 25.9277 11.3348C26.5516 10.922 26.999 10.2932 27.1831 9.57055C27.3053 9.03864 27.2768 8.48345 27.1009 7.96666C26.925 7.44987 26.6085 6.99174 26.1866 6.64315C25.6434 6.25138 24.9922 6.03527 24.3213 6.0241C23.6504 6.01293 22.9923 6.20724 22.4362 6.58069C22.1987 6.73105 21.9846 6.91514 21.8006 7.12714L21.6986 7.23643V7.09592C21.5445 6.49431 21.2614 5.933 20.8686 5.45059C20.4758 4.96817 19.9828 4.57608 19.4232 4.30122C18.9718 4.07954 18.4751 3.96423 17.9717 3.96423C17.4683 3.96423 16.9716 4.07954 16.5202 4.30122C15.9205 4.61895 15.4514 5.13537 15.1942 5.76102C15.104 6.00051 15.0408 6.24924 15.0059 6.50262Z" fill="#455A64"/>
<path d="M31.2158 4.53539C31.302 4.5681 31.3816 4.61567 31.4512 4.67591C31.6496 4.83086 31.8311 5.00617 31.9926 5.19894C32.5302 5.84141 32.8317 6.64698 32.8474 7.48284C32.8631 8.31869 32.592 9.13491 32.0789 9.79691C31.9261 9.9943 31.7525 10.1749 31.561 10.3356C31.493 10.3997 31.4131 10.4501 31.3257 10.4839C31.5621 10.2381 31.7822 9.97733 31.9847 9.70324C32.4457 9.04669 32.6897 8.26363 32.683 7.46279C32.6567 6.66113 32.3827 5.88702 31.8984 5.24577C31.6851 4.99582 31.4572 4.75861 31.2158 4.53539Z" fill="#455A64"/>
<path d="M11.1613 8.75864C10.8974 9.41891 10.8453 10.1443 11.0122 10.8351C11.1868 11.5809 11.649 12.2285 12.2989 12.6384C12.693 12.8861 13.1376 13.0433 13.6004 13.0987C14.0632 13.1541 14.5326 13.1062 14.9745 12.9585L15.3119 12.8414L15.0608 13.099L14.9509 13.2083C14.6582 13.5742 14.5136 14.0358 14.5456 14.5023C14.5775 14.9689 14.7837 15.4067 15.1236 15.7298C15.4052 16.0003 15.7405 16.2095 16.1079 16.3439C16.4754 16.4783 16.867 16.535 17.2577 16.5104C17.7871 16.4728 18.3054 16.3406 18.7877 16.1201C19.1329 15.9718 19.3134 15.8625 19.3213 15.8781C19.1638 15.995 18.9957 16.0969 18.8191 16.1825C18.3287 16.4263 17.7961 16.5746 17.2499 16.6197C16.8415 16.6565 16.4299 16.6059 16.0429 16.4712C15.6558 16.3366 15.3022 16.121 15.0059 15.8391C14.6323 15.4909 14.4046 15.0152 14.3683 14.5073C14.3319 13.9993 14.4896 13.4964 14.8097 13.099L14.9353 12.9741L15.0137 13.1146C14.549 13.2691 14.0553 13.3177 13.5691 13.2569C13.0829 13.1961 12.6167 13.0274 12.2048 12.7633C11.8682 12.546 11.5792 12.2631 11.3554 11.9318C11.1315 11.6004 10.9774 11.2274 10.9023 10.8351C10.7721 10.3228 10.7721 9.78623 10.9023 9.27386C10.9625 9.09032 11.0498 8.91669 11.1613 8.75864Z" fill="#455A64"/>
<path d="M35.4057 73.3255C35.4057 73.3255 35.2802 73.5207 34.9977 73.7861C34.5839 74.1628 34.1254 74.4878 33.6325 74.7541C31.9945 75.6699 30.0918 76.0035 28.2378 75.6998C26.3838 75.3962 24.689 74.4734 23.4325 73.0835C23.0479 72.6712 22.7135 72.2153 22.436 71.7252C22.2477 71.3817 22.1771 71.1787 22.2007 71.1631C22.2242 71.1475 22.6557 71.9438 23.6287 72.8805C24.8883 74.1682 26.5299 75.02 28.3121 75.3109C30.0944 75.6018 31.9234 75.3163 33.5305 74.4965C34.731 73.8876 35.3508 73.2865 35.4057 73.3255Z" fill="#263238"/>
<path d="M38.7439 45.589H38.7458C40.1935 45.5584 41.6315 45.8298 42.9675 46.3849C44.3038 46.9402 45.509 47.7677 46.5046 48.8136C47.5002 49.8595 48.2652 51.101 48.7498 52.4582C49.2343 53.8153 49.4284 55.2584 49.3191 56.6945H49.3181V56.7043L48.8318 70.1232L48.8308 70.1349L48.8318 70.1467L49.4275 80.4513L49.4294 80.4631L50.9812 95.133C41.4079 100.663 30.4206 100.733 20.3396 96.3263C20.3571 96.2598 20.3792 96.1784 20.4041 96.0832C20.4797 95.7935 20.5873 95.3766 20.7166 94.8683C20.9751 93.852 21.3196 92.4689 21.6609 91.0031C22.0021 89.5378 22.3411 87.9874 22.5896 86.6369C22.8365 85.2949 22.9988 84.1253 22.9763 83.4347C22.9536 82.7391 22.7453 81.8817 22.4558 81.0011C22.165 80.1165 21.786 79.1904 21.4119 78.3508C21.0375 77.5107 20.6662 76.7538 20.3884 76.2072C20.2495 75.9338 20.1335 75.7126 20.0525 75.5597C20.012 75.4833 19.9805 75.4234 19.9587 75.383C19.9479 75.3628 19.939 75.3475 19.9333 75.3371C19.9306 75.3321 19.9289 75.328 19.9275 75.3254C19.9268 75.3242 19.9259 75.3231 19.9255 75.3224L19.9246 75.3215L19.5701 74.673L19.4587 75.4035L16.5593 94.3019C10.8581 90.5839 6.74641 86.1111 4.09546 80.5773C4.59735 74.8456 5.30899 69.0536 6.38745 65.3322C7.8953 60.2045 12.1409 55.7832 16.0437 52.631C17.9906 51.0586 19.8431 49.8094 21.2087 48.9533C21.8914 48.5253 22.4521 48.1951 22.8416 47.9728C23.0359 47.8619 23.1878 47.7782 23.2908 47.7218C23.3423 47.6937 23.3817 47.6715 23.408 47.6574L36.906 45.8605L36.9236 45.8586L36.9412 45.8537C37.5279 45.6876 38.1339 45.5981 38.7439 45.589Z" fill="#EDF0F2" stroke="#263238" stroke-width="0.5"/>
<mask id="path-50-inside-5_55_202" fill="white">
<path d="M5.70801 67.6658C5.70801 67.6658 17.9323 66.4636 21.2277 60.8196C24.7898 54.7228 23.354 47.416 23.354 47.416C23.354 47.416 15.5785 49.9609 12.1889 53.6611C8.79939 57.3613 6.0297 63.224 5.70801 67.7126"/>
</mask>
<path d="M5.70801 67.6658C5.70801 67.6658 17.9323 66.4636 21.2277 60.8196C24.7898 54.7228 23.354 47.416 23.354 47.416C23.354 47.416 15.5785 49.9609 12.1889 53.6611C8.79939 57.3613 6.0297 63.224 5.70801 67.7126" fill="#EDF0F2"/>
<path d="M21.2277 60.8196L20.796 60.5673L20.7959 60.5675L21.2277 60.8196ZM23.354 47.416L23.8446 47.3196L23.7356 46.765L23.1985 46.9408L23.354 47.416ZM5.70801 67.6658C5.75694 68.1634 5.7571 68.1634 5.75729 68.1634C5.75742 68.1634 5.75767 68.1633 5.75792 68.1633C5.75843 68.1633 5.75913 68.1632 5.76002 68.1631C5.76178 68.1629 5.76428 68.1627 5.76751 68.1623C5.77398 68.1617 5.78335 68.1607 5.79555 68.1594C5.81996 68.1569 5.85569 68.153 5.9021 68.1478C5.99492 68.1373 6.13048 68.1213 6.3036 68.099C6.64979 68.0544 7.1465 67.9845 7.75227 67.8829C8.96283 67.6798 10.6137 67.3493 12.3714 66.8394C14.1269 66.3301 16.0033 65.6378 17.6579 64.706C19.3083 63.7765 20.7737 62.5887 21.6595 61.0717L20.7959 60.5675C20.034 61.8725 18.7355 62.9514 17.1672 63.8347C15.6028 64.7157 13.8053 65.3822 12.0928 65.879C10.3825 66.3752 8.77129 66.698 7.58682 66.8967C6.99507 66.9959 6.51102 67.064 6.17581 67.1072C6.00824 67.1288 5.87795 67.1442 5.79009 67.1541C5.74616 67.159 5.71285 67.1626 5.6908 67.1649C5.67977 67.1661 5.67156 67.1669 5.66625 67.1675C5.66359 67.1678 5.66166 67.1679 5.66046 67.1681C5.65986 67.1681 5.65944 67.1682 5.65921 67.1682C5.65909 67.1682 5.65906 67.1682 5.659 67.1682C5.65901 67.1682 5.65907 67.1682 5.70801 67.6658ZM21.6594 61.0718C23.4974 57.926 24.0385 54.4839 24.1264 51.8481C24.1704 50.5273 24.1009 49.4006 24.0202 48.6026C23.9798 48.2033 23.9365 47.8857 23.903 47.6664C23.8863 47.5568 23.872 47.4716 23.8617 47.4131C23.8566 47.3839 23.8525 47.3613 23.8496 47.3456C23.8481 47.3378 23.847 47.3317 23.8461 47.3273C23.8457 47.3251 23.8454 47.3234 23.8451 47.3221C23.845 47.3215 23.8449 47.3209 23.8448 47.3205C23.8448 47.3203 23.8447 47.32 23.8447 47.3199C23.8447 47.3197 23.8446 47.3196 23.354 47.416C22.8634 47.5124 22.8634 47.5123 22.8633 47.5122C22.8633 47.5122 22.8633 47.5121 22.8633 47.5121C22.8633 47.5121 22.8634 47.5123 22.8634 47.5125C22.8635 47.513 22.8637 47.5139 22.8639 47.5153C22.8645 47.518 22.8653 47.5224 22.8665 47.5286C22.8688 47.541 22.8723 47.5601 22.8768 47.5859C22.8858 47.6374 22.8989 47.7152 22.9145 47.8173C22.9456 48.0214 22.9867 48.3222 23.0252 48.7033C23.1024 49.4657 23.1692 50.5468 23.1269 51.8148C23.0422 54.3567 22.5202 57.6163 20.796 60.5673L21.6594 61.0718ZM23.354 47.416C23.1985 46.9408 23.1984 46.9408 23.1982 46.9408C23.1982 46.9409 23.198 46.9409 23.1978 46.941C23.1975 46.9411 23.1971 46.9412 23.1965 46.9414C23.1954 46.9418 23.1938 46.9423 23.1917 46.943C23.1876 46.9444 23.1816 46.9463 23.1738 46.9489C23.1582 46.9541 23.1354 46.9618 23.1056 46.9718C23.0462 46.9919 22.9593 47.0216 22.8479 47.0607C22.6252 47.1387 22.3042 47.254 21.9089 47.4039C21.1187 47.7034 20.0293 48.1418 18.8321 48.6974C16.4553 49.8004 13.5861 51.3957 11.8202 53.3234L12.5576 53.9988C14.1813 52.2263 16.8946 50.699 19.253 49.6045C20.4234 49.0613 21.4897 48.6322 22.2633 48.339C22.65 48.1924 22.9629 48.08 23.1786 48.0044C23.2864 47.9666 23.3699 47.9381 23.4261 47.9191C23.4541 47.9096 23.4754 47.9025 23.4894 47.8978C23.4964 47.8955 23.5016 47.8938 23.505 47.8927C23.5067 47.8921 23.5079 47.8917 23.5087 47.8914C23.5091 47.8913 23.5093 47.8912 23.5095 47.8912C23.5095 47.8912 23.5095 47.8912 23.5096 47.8911C23.5096 47.8912 23.5095 47.8912 23.354 47.416ZM11.8202 53.3234C8.36859 57.0914 5.54041 63.0567 5.20929 67.6769L6.20673 67.7484C6.51899 63.3913 9.2302 57.6313 12.5576 53.9988L11.8202 53.3234Z" fill="#263238" mask="url(#path-50-inside-5_55_202)"/>
</svg>
