<svg width="70" height="100" viewBox="0 0 70 100" fill="none" xmlns="http://www.w3.org/2000/svg">
<path d="M56.2844 32.0217L55.5782 39.1646V39.1022C57.3967 40.5205 59.066 42.1185 60.5605 43.8719C61.4857 44.9588 62.3401 46.1035 63.1184 47.2989C63.5499 47.9312 63.903 48.6338 64.2953 49.3207C64.7257 50.0191 65.1059 50.7469 65.433 51.4987L66.4687 53.8407C66.7433 54.6759 67.0179 55.5347 67.3082 56.409L67.5201 57.0725L67.6691 57.7517C67.7633 58.2123 67.8653 58.6806 67.9673 59.149C68.0693 59.6174 68.187 60.0858 68.2498 60.5698C68.3125 61.0538 68.3596 61.5456 68.4224 62.0374C68.9269 66.538 68.5278 71.0936 67.2482 75.4395C65.9686 79.7854 63.8341 83.8352 60.9685 87.3536L60.3879 88.0952L59.7288 88.7822L58.4107 90.1717C57.9565 90.6272 57.4771 91.0573 56.9748 91.4598L55.4998 92.8025C54.417 93.5441 53.3656 94.3637 52.2279 95.0351L50.4704 96.0109L49.5838 96.5027C49.2856 96.651 48.9639 96.7759 48.6579 96.9164L46.7748 97.6971C46.138 97.9534 45.4886 98.1775 44.829 98.3684C44.1699 98.5636 43.5187 98.8056 42.8361 98.9695L40.7882 99.3989C40.443 99.4692 40.1056 99.5472 39.7604 99.6097L38.709 99.7268L36.5905 99.961C35.8844 99.961 35.1704 99.961 34.4485 100H33.3736C33.0127 100 32.6596 99.9531 32.2987 99.9297L30.1332 99.7502C29.4191 99.6721 28.7052 99.5082 27.9833 99.3911C26.54 99.1248 25.1145 98.7702 23.715 98.3294C23.0088 98.1108 22.3341 97.8142 21.6358 97.5488C20.9272 97.3138 20.2352 97.0322 19.5644 96.7057L17.5636 95.7065C16.9124 95.3317 16.2847 94.9258 15.6492 94.5199L14.6998 93.8876C14.3859 93.6768 14.0956 93.4348 13.7975 93.2084L12.0242 91.8345C11.4672 91.3349 10.9336 90.8196 10.3922 90.3122L9.60762 89.5316C9.34085 89.2662 9.11331 88.9773 8.87008 88.7041L7.42639 87.0335C6.96346 86.4637 6.57116 85.8392 6.13962 85.2537C5.30216 84.0704 4.54717 82.8315 3.87993 81.5456C3.52288 80.9235 3.20578 80.2795 2.93054 79.6174C2.65593 78.9539 2.35777 78.306 2.091 77.6502C1.82423 76.9945 1.65947 76.2997 1.44762 75.6284L1.12593 74.6213C1.03962 74.2857 0.97685 73.9344 0.898388 73.5909C0.757157 72.9117 0.608081 72.2248 0.46685 71.5456C0.32562 70.8665 0.30208 70.1717 0.207926 69.4925C0.0503853 68.1349 -0.0177588 66.7684 0.00392719 65.402C-0.0053545 64.7265 0.0287156 64.0512 0.105928 63.3801C0.160851 62.7087 0.223618 62.0452 0.278541 61.3817L0.631619 59.4223C0.730184 58.7742 0.869066 58.1328 1.04746 57.5019C1.36027 56.2448 1.75338 55.0089 2.22439 53.8016L2.9227 52.0218C3.19731 51.4519 3.48762 50.8898 3.77008 50.3278C5.94966 46.0509 9.02032 42.2852 12.7775 39.2817C14.5008 37.9158 16.3383 36.6988 18.2698 35.6439C20.1103 34.7005 22.0293 33.917 24.0053 33.302C27.5392 32.1949 31.2308 31.6676 34.935 31.7407C37.9736 31.7999 40.9903 32.2673 43.9031 33.1302C46.1039 33.7899 48.2371 34.6551 50.2742 35.7142H50.2036C54.1267 33.3332 55.8528 32.2715 56.253 32.0217L50.3056 35.8157C48.2704 34.7807 46.1427 33.9366 43.9502 33.2942C37.4883 31.4313 30.6169 31.5128 24.2015 33.5284C22.2444 34.1468 20.344 34.9303 18.5208 35.8703C16.5888 36.9184 14.7512 38.1302 13.0285 39.4925C9.31928 42.4685 6.28669 46.1934 4.131 50.4215C3.85639 50.9835 3.56608 51.53 3.29931 52.0998L2.61669 53.8641C2.14744 55.0572 1.75948 56.2803 1.45546 57.5253C1.27595 58.1476 1.13962 58.7814 1.04746 59.4223L0.694389 61.3582L0.529618 63.3411C0.454833 64.0019 0.423383 64.6668 0.435465 65.3317C0.413576 66.6826 0.481727 68.0335 0.639467 69.3754C0.725774 70.0546 0.765003 70.7416 0.898388 71.4129L1.32993 73.4348C1.40054 73.7704 1.46331 74.1139 1.54962 74.4496L1.87131 75.441L2.50685 77.4395C2.76577 78.0952 3.06393 78.7353 3.33854 79.3832C3.60141 80.0429 3.90808 80.6845 4.25654 81.3036C4.91597 82.574 5.66315 83.7973 6.4927 84.9648C6.91639 85.5503 7.27731 86.167 7.75593 86.7213L9.19177 88.3762C9.435 88.6495 9.65469 88.9383 9.91362 89.1959L10.6982 89.9766C11.2318 90.484 11.7575 90.9992 12.2675 91.491C12.7775 91.9828 13.4365 92.3887 14.025 92.8493C14.3232 93.0679 14.6056 93.3099 14.9116 93.5207L15.861 94.1139C16.4965 94.4965 17.1085 94.8946 17.7519 95.2771L19.737 96.2685C20.3894 96.6198 21.0659 96.925 21.7613 97.1819C22.4518 97.4317 23.1265 97.7283 23.817 97.9625C25.2022 98.3892 26.6118 98.7333 28.0382 98.993C28.7444 99.11 29.4505 99.2662 30.1645 99.3521L32.2987 99.5316C32.6518 99.5316 33.0048 99.6019 33.3658 99.6019H34.425C35.1311 99.6019 35.8373 99.6019 36.5435 99.5628L38.6305 99.3364L39.6741 99.2193L40.6941 99.0086L42.7184 98.587C43.3853 98.4309 44.0287 98.1889 44.6878 97.9937C45.3394 97.808 45.981 97.5892 46.6101 97.338L48.4696 96.5574C48.7756 96.4246 49.0895 96.3075 49.3876 96.1592L50.2664 95.6752L52.0004 94.7072C53.1302 94.0281 54.1738 93.2318 55.2408 92.5058L56.7081 91.249C57.2051 90.8517 57.6792 90.4269 58.1282 89.9766L59.4307 88.6104L60.0819 87.9313L60.6625 87.1975C63.5067 83.7177 65.6286 79.7111 66.9054 75.4097C68.1821 71.1083 68.5884 66.5976 68.1007 62.1389C68.0458 61.6549 67.9987 61.1631 67.9438 60.6869C67.8888 60.2107 67.7555 59.7345 67.6613 59.2739C67.5671 58.8133 67.473 58.345 67.371 57.8922L67.2298 57.213L67.0179 56.5573C66.7433 55.683 66.4687 54.8321 66.2333 53.9968L65.2211 51.6549C64.8978 50.9066 64.5229 50.1815 64.0992 49.4847C63.699 48.7977 63.3616 48.0951 62.9458 47.4706C60.9259 44.3397 58.4116 41.5534 55.4998 39.2192C55.9862 34.551 56.2295 32.4979 56.2844 32.0217Z" fill="#263238"/>
<path d="M54.4013 62.1624L58.8344 71.5301L59.6818 49.516C59.6682 48.1141 59.2694 46.7427 58.5284 45.5503C58.2149 45.0174 57.844 44.52 57.4221 44.0671C56.8822 43.5144 56.2699 43.0365 55.6018 42.6463C55.4605 42.6001 55.3375 42.5107 55.2503 42.3909C55.1631 42.271 55.1161 42.1269 55.1161 41.9789C55.1161 41.8309 55.1631 41.6867 55.2503 41.5669C55.3375 41.447 55.4605 41.3576 55.6018 41.3114C56.2216 41.1865 58.0184 41.9594 59.5249 43.6534C61.0313 45.3474 60.8666 41.8267 60.8352 40.5308C60.8038 39.2349 60.8352 35.2381 61.2667 34.918C61.8395 34.4574 62.4593 34.9961 62.4672 36.2841C62.475 37.5722 62.7575 41.4598 63.4479 41.4285C64.1384 41.3973 63.8481 34.8087 63.8481 34.8087C63.8481 34.8087 63.5578 33.4035 64.3502 33.3411C65.7782 33.2162 65.5507 40.2264 65.5115 40.8899C65.5115 41.3583 66.2333 41.3505 66.2333 40.8509C66.2333 40.3513 65.8096 34.2779 67.2533 34.1452C68.3675 34.0437 67.1199 39.9141 67.9124 41.1709C68.7049 42.4278 68.3989 36.612 69.4816 36.5573C69.8818 36.5573 70.1799 36.5573 69.8739 39.9063C69.7013 41.7018 68.7519 44.3403 68.6892 47.8142V48.7197C68.9952 53.0133 69.8818 69.2428 66.8061 79.4224C66.3728 80.8127 65.5669 82.0592 64.475 83.028C63.383 83.9968 62.0464 84.6512 60.6087 84.921C59.171 85.1907 57.6866 85.0655 56.315 84.5588C54.9435 84.0521 53.7367 83.1832 52.8242 82.0453C49.317 77.6523 46.3167 72.8813 43.8796 67.822L54.4013 62.1624Z" fill="#B77153"/>
<path d="M66.4216 46.1748C66.4216 46.1748 66.202 46.2216 65.8724 46.3699C65.4227 46.5701 65.0605 46.9249 64.8524 47.3692L64.7426 47.619L64.6406 47.3535C64.4949 46.9867 64.285 46.6484 64.0207 46.3543C63.5108 45.7792 62.8379 45.3711 62.0906 45.1834C61.5099 45.035 61.1333 45.0741 61.1255 45.0272C61.4522 44.9423 61.7953 44.9423 62.122 45.0272C62.9317 45.1786 63.6668 45.5965 64.209 46.2138C64.492 46.5321 64.7128 46.9001 64.8603 47.2989H64.6406C64.8807 46.8142 65.3038 46.4438 65.8175 46.2685C66.1941 46.1201 66.4295 46.1514 66.4216 46.1748Z" fill="#995037"/>
<path d="M22.5004 34.5275L21.8906 34.5797L22.4581 41.1519L23.0678 41.0998L22.5004 34.5275Z" fill="#06334D"/>
<path d="M16.7475 94.7228L19.7055 75.441C19.7055 75.441 22.64 80.804 22.7263 83.4426C22.8126 86.0812 20.0429 96.4715 20.0429 96.4715C30.29 101.015 41.5021 100.96 51.247 95.2693L49.6778 80.4371L49.0815 70.1327L49.568 56.7134C49.6799 55.2423 49.4813 53.7641 48.9849 52.3739C48.4885 50.9836 47.7053 49.7121 46.6856 48.6409C45.6659 47.5697 44.4322 46.7227 43.0639 46.1541C41.6955 45.5855 40.2228 45.3081 38.7403 45.3395C38.1085 45.3488 37.4806 45.4407 36.8729 45.6127L23.3304 47.416C23.3304 47.416 9.20734 54.8555 6.14734 65.2615C5.05673 69.0241 4.34273 74.8711 3.84058 80.6245C6.56319 86.3388 10.8237 90.9289 16.7475 94.7228Z" fill="#06334D"/>
<path d="M51.6632 56.4012L58.8424 71.1787L49.3956 80.1171L48.7444 65.5971L49.5525 56.5729L51.6632 56.4012Z" fill="#06334D"/>
<path d="M5.70801 67.6658C5.70801 67.6658 17.9323 66.4636 21.2277 60.8196C24.7898 54.7228 23.354 47.416 23.354 47.416C23.354 47.416 15.5785 49.9609 12.1889 53.6611C8.79939 57.3613 6.0297 63.224 5.70801 67.7126" fill="#B77153"/>
<path d="M38.089 45.3864C37.7752 45.441 40.9215 60.9289 52.6358 58.3997C52.6358 58.3997 47.5672 43.6221 38.089 45.3864Z" fill="#B77153"/>
<path d="M54.9896 63.1381L54.4639 63.0835C53.9614 63.0247 53.4554 63.0013 52.9496 63.0132C51.0957 63.0854 49.2676 63.4708 47.5436 64.153C45.3231 64.9336 42.8359 66.3075 40.0034 67.5175C38.495 68.1661 36.9148 68.6352 35.2957 68.9149C33.5548 69.1419 31.7931 69.1655 30.0467 68.9851C26.4767 68.6651 23.0636 68.0562 19.98 68.5167C18.5272 68.7438 17.1038 69.1286 15.7353 69.6643C14.4407 70.1483 13.2559 70.6479 12.1574 71.0616C10.4589 71.8136 8.65401 72.3007 6.80636 72.5058C6.1253 72.5698 5.43859 72.5383 4.76636 72.4121L5.29205 72.459C5.79361 72.4933 6.29695 72.4933 6.79851 72.459C8.64127 72.2316 10.4396 71.7317 12.1339 70.9758C13.2324 70.5464 14.4171 70.039 15.7117 69.555C17.0855 69.0057 18.5174 68.6128 19.98 68.384C23.1185 67.9078 26.5237 68.5167 30.0859 68.8368C31.8189 69.0197 33.5676 68.9987 35.2957 68.7744C36.8944 68.5018 38.454 68.0378 39.9407 67.3926C42.8045 66.1982 45.2682 64.8399 47.5043 64.0593C49.2421 63.384 51.0846 63.0142 52.9496 62.9664C53.634 62.9448 54.3186 63.0024 54.9896 63.1381Z" fill="#FAFAFA"/>
<path d="M18.6227 81.7018H18.4658L18.0107 81.7408C17.6262 81.7408 17.0535 81.7954 16.3552 81.8189C14.5198 81.9163 12.6793 81.8247 10.8629 81.5456C9.86877 81.383 8.88799 81.1482 7.92839 80.8431C7.1394 80.5936 6.39133 80.2307 5.70793 79.7658C5.2479 79.4547 4.8288 79.0875 4.46039 78.6729C4.32078 78.5264 4.19227 78.3699 4.07593 78.2045C4.58895 78.75 5.15684 79.2418 5.7707 79.6721C6.45543 80.1132 7.19711 80.4598 7.97547 80.7025C8.93017 81.0004 9.90577 81.2275 10.8942 81.3817C12.693 81.6542 14.5129 81.7639 16.3316 81.7096H17.9872H18.6227V81.7018Z" fill="#FAFAFA"/>
<path d="M54.0562 75.1132L53.7345 75.1913C53.4271 75.266 53.1256 75.3625 52.8322 75.4801C51.7726 75.9642 50.7545 76.5334 49.7878 77.1819C48.289 78.0714 46.6366 78.675 44.9154 78.9618C42.8121 79.2962 40.6792 79.4087 38.5522 79.2975C36.2925 79.2194 34.1505 79.0789 32.1968 79.1335C30.4671 79.1592 28.7468 79.3925 27.0732 79.8283C25.9496 80.132 24.8707 80.5808 23.8642 81.1632C23.5085 81.3766 23.2469 81.5483 23.0795 81.6784L22.8049 81.858C23.1317 81.571 23.4807 81.31 23.8485 81.0773C24.8477 80.4673 25.9279 79.9996 27.0575 79.6878C28.7358 79.2305 30.4649 78.984 32.2046 78.954C34.1662 78.8915 36.3239 79.0242 38.5757 79.1023C40.6891 79.2147 42.8086 79.1075 44.8997 78.7822C46.6056 78.5056 48.2463 77.9209 49.7408 77.057C50.7155 76.4082 51.7476 75.8491 52.8243 75.3865C53.2198 75.2377 53.6346 75.1457 54.0562 75.1132Z" fill="#FAFAFA"/>
<path d="M50.3132 88.2436H50.0151C49.7312 88.2112 49.4456 88.1956 49.1598 88.1967C48.1034 88.2369 47.0624 88.4615 46.0841 88.8603C44.8287 89.3287 43.4635 90.1483 41.8786 90.9524C41.0511 91.3805 40.184 91.7282 39.2894 91.9906C38.8079 92.1045 38.3208 92.1931 37.83 92.256C37.3241 92.3045 36.8155 92.3175 36.3078 92.2951C34.3831 92.1517 32.4832 91.7742 30.6508 91.171C29.1548 90.7031 27.6327 90.3225 26.0921 90.0312C25.0566 89.8497 24.0026 89.7946 22.9537 89.8673C22.5771 89.8673 22.2946 89.961 22.0984 89.9766H21.8003C21.8003 89.9766 22.2004 89.8751 22.9458 89.7658C23.9925 89.6725 25.0468 89.7092 26.0843 89.8751C27.6298 90.1573 29.1572 90.53 30.6586 90.9914C32.4835 91.5796 34.3718 91.9517 36.2843 92.0999C36.7842 92.1145 37.2845 92.1015 37.7829 92.0609C39.1878 91.8973 40.547 91.4624 41.7844 90.7806C43.1542 90.0155 44.5662 89.3274 46.0135 88.7198C47.0114 88.3187 48.0758 88.1069 49.152 88.0952C49.544 88.0917 49.9348 88.1416 50.3132 88.2436Z" fill="#FAFAFA"/>
<path d="M41.1414 53.911C40.8816 53.8664 40.6198 53.8352 40.3568 53.8173C39.626 53.8075 38.9039 53.9764 38.254 54.3091C37.2909 54.8061 36.4205 55.4635 35.6805 56.2529C34.7825 57.2478 33.7624 58.1264 32.644 58.868C31.4581 59.5257 30.1175 59.8571 28.7602 59.8282C27.6604 59.8087 26.567 59.6566 25.504 59.3755C24.6017 59.1413 23.8877 58.9071 23.3934 58.7353L22.8285 58.5402C22.7601 58.5222 22.6942 58.496 22.6323 58.4621C22.7023 58.4673 22.7711 58.4831 22.8363 58.509L23.4091 58.6807C23.9112 58.829 24.6331 59.0476 25.5354 59.2584C26.5871 59.5242 27.6672 59.6631 28.7523 59.6721C30.0824 59.6975 31.3955 59.3715 32.5577 58.7275C33.6615 57.9912 34.6729 57.1264 35.5706 56.1514C36.3248 55.3511 37.2179 54.6926 38.2069 54.2076C38.8754 53.8757 39.6183 53.7198 40.3646 53.7548C40.63 53.7675 40.8919 53.8202 41.1414 53.911Z" fill="#FAFAFA"/>
<path d="M45.6609 52.943C45.8571 53.2715 46.0302 53.6132 46.1787 53.9656L46.4455 54.5199C46.524 54.7306 46.6181 54.957 46.7123 55.199C46.9006 55.6908 47.1203 56.2451 47.3007 56.8852L47.5989 57.8766C47.6852 58.2279 47.7793 58.5948 47.8735 58.9695C48.0697 59.7502 48.203 60.5308 48.3757 61.3973C48.6581 63.1225 48.8778 65.0273 49.0269 67.0335C49.3094 71.0538 49.3878 74.6916 49.5604 77.3146C49.6389 78.6261 49.7095 79.6565 49.7801 80.4372C49.8309 80.8149 49.8519 81.1959 49.8429 81.5769C49.7519 81.2074 49.689 80.8316 49.6546 80.4528C49.5447 79.719 49.4349 78.6573 49.325 77.3302C49.0975 74.6994 48.9798 71.0851 48.6974 67.0648C48.5404 65.0585 48.3286 63.1616 48.0697 61.4519C47.9049 60.5932 47.7872 59.7814 47.5989 59.032C47.5126 58.6573 47.4341 58.2513 47.3557 57.9391C47.2772 57.6268 47.1595 57.2677 47.0732 56.9555C46.9084 56.3153 46.7044 55.7611 46.5318 55.2693C46.4534 55.0195 46.367 54.7931 46.2964 54.5745L46.061 54.0124C45.8965 53.6683 45.7626 53.3104 45.6609 52.943Z" fill="#263238"/>
<g opacity="0.3">
<path d="M48.6499 63.3099L52.7927 76.9087L49.7248 79.8049L48.6499 63.3099Z" fill="black"/>
</g>
<g opacity="0.3">
<path d="M34.3702 73.9344C33.4314 74.6196 32.3584 75.1009 31.2206 75.347C30.0829 75.5931 28.9059 75.5986 27.7659 75.3631C26.6259 75.1275 25.5484 74.6563 24.6032 73.9798C23.658 73.3033 22.8663 72.4368 22.2793 71.4363C22.5167 72.7022 23.1101 73.8751 23.9906 74.8188C24.8711 75.7626 26.0026 76.4385 27.2538 76.7681C31.0591 77.7439 34.3702 73.9344 34.3702 73.9344Z" fill="black"/>
</g>
<path d="M20.6865 67.4629C20.6508 69.2943 20.4804 71.1207 20.1765 72.9273C20.0057 74.7425 19.7015 76.5428 19.2664 78.3138C19.3015 76.4823 19.472 74.6559 19.7764 72.8493C19.949 71.0344 20.2532 69.2342 20.6865 67.4629Z" fill="#263238"/>
<path d="M22.2164 20.9835C20.1843 22.0764 9.17613 22.9663 7.90505 21.0538C7.30133 20.0721 7.07145 18.9076 7.25717 17.7718C7.44289 16.6359 8.03189 15.6039 8.9172 14.8633C7.82757 13.7182 7.19682 12.216 7.14397 10.64C7.12637 9.8573 7.3008 9.08211 7.65217 8.38158C8.00353 7.68106 8.52123 7.07632 9.16043 6.61971C9.8131 6.1826 10.5844 5.95434 11.3711 5.9655C12.1578 5.97666 12.9223 6.22671 13.5621 6.68215C12.6677 6.04203 12.9815 4.62127 13.6327 3.73914C14.1749 3.00881 14.8799 2.41354 15.6923 2.00013C16.5048 1.58671 17.4026 1.36643 18.315 1.3566C19.2275 1.34676 20.1299 1.54764 20.9511 1.94344C21.7724 2.33924 22.4902 2.91918 23.0481 3.63765C23.4493 2.46304 24.2473 1.46312 25.3063 0.808211C26.3652 0.153304 27.6197 -0.116079 28.8559 0.0459491C30.0921 0.207977 31.2336 0.791392 32.086 1.69682C32.9384 2.60225 33.4489 3.77368 33.5306 5.01158C35.3509 4.27778 37.5086 5.61268 38.2383 7.42377C38.968 9.23486 38.6306 11.327 38.0186 13.1693" fill="#263238"/>
<path d="M16.5515 27.9546C15.6447 26.8466 15.1934 25.4381 15.2883 24.0124C15.3911 22.5962 15.795 21.2179 16.4731 19.9686C17.9254 17.183 20.1122 14.8431 22.7992 13.1997C25.4862 11.5563 28.5721 10.6715 31.726 10.64C34.2641 10.5633 36.7534 11.3448 38.7875 12.857C39.7878 13.63 40.5498 14.667 40.9867 15.8497C41.4237 17.0325 41.518 18.3136 41.2591 19.5471" fill="#06334D"/>
<path d="M37.3044 46.9086C37.1946 44.5042 37.1397 42.3262 37.1397 42.3262C37.1397 42.3262 42.4593 41.1865 42.224 35.7064C41.9886 30.2263 40.3487 17.6892 40.3487 17.6892L30.0389 13.786L21.9966 22.3184L25.088 47.7829C25.6372 51.3816 27.8498 54.2934 31.4747 53.8094C33.1361 53.589 34.6548 52.7591 35.7332 51.4826C36.8116 50.206 37.3719 48.5748 37.3044 46.9086Z" fill="#B77153"/>
<path d="M26.2963 16.3699C24.7271 18.9382 25.8334 20.4917 27.8655 22.7087C28.2819 23.2232 28.8144 23.6327 29.4197 23.904C30.025 24.1753 30.686 24.3007 31.3492 24.27C32.6674 24.1139 33.8364 22.7634 33.4441 21.4988C33.3492 21.9129 33.3528 22.3434 33.4549 22.7558C33.5569 23.1683 33.7544 23.5513 34.0317 23.8743C34.309 24.1973 34.6584 24.4513 35.0519 24.616C35.4454 24.7807 35.8722 24.8516 36.2982 24.8231C36.7241 24.7945 37.1375 24.6672 37.5052 24.4513C37.8729 24.2355 38.1848 23.9371 38.416 23.58C38.6471 23.2229 38.7912 22.8169 38.8366 22.3946C38.882 21.9722 38.8275 21.5451 38.6775 21.1475C38.8396 21.7309 39.1053 22.2808 39.4621 22.7712C39.6398 23.0117 39.8792 23.2003 40.1553 23.3171C40.4314 23.4338 40.734 23.4745 41.0314 23.4347C41.816 23.2552 42.8987 23.2005 42.9929 21.8735C43.2126 18.9148 42.2632 16.5495 40.3331 14.9648C38.0982 13.3666 35.3301 12.6871 32.6046 13.0678C30.1177 13.501 27.8415 14.732 26.1237 16.5729" fill="#263238"/>
<path d="M27.897 16.2372C28.7225 17.7227 29.2401 19.3579 29.4192 21.0459C29.5985 22.7466 29.103 24.4498 28.0383 25.7922C27.4984 26.45 26.7818 26.9415 25.9719 27.2097C25.1621 27.4778 24.2923 27.5114 23.464 27.3067C23.7427 28.0216 23.8597 28.7887 23.8069 29.5537C23.754 30.3187 23.5324 31.0627 23.158 31.7329C22.7585 32.3866 22.1447 32.8834 21.4201 33.1393C20.6955 33.3953 19.9043 33.3948 19.18 33.1381C17.9089 32.5838 17.2576 31.163 16.9752 29.8125C16.6302 28.1706 16.6596 26.4726 17.0614 24.8435C17.4632 23.2144 18.2271 21.6957 19.2969 20.3992C20.3666 19.1026 21.715 18.0613 23.2427 17.3518C24.7705 16.6424 26.4387 16.2828 28.1246 16.2996" fill="#263238"/>
<path d="M23.0636 30.1248C22.6584 29.9753 22.2149 29.9631 21.802 30.0902C21.3892 30.2172 21.03 30.4764 20.7804 30.8274C20.3081 31.3512 20.0276 32.0183 19.9842 32.7207C19.9408 33.423 20.1371 34.1193 20.5413 34.6968C20.9454 35.2742 21.5338 35.6989 22.2109 35.902C22.8881 36.1051 23.6143 36.0747 24.2719 35.8157" fill="#B77153"/>
<path d="M23.1659 34.2544C23.1659 34.2544 22.9305 34.3324 22.5382 34.2544C22.2787 34.2043 22.035 34.0931 21.8275 33.9302C21.62 33.7672 21.4548 33.5571 21.3456 33.3176C21.236 33.0363 21.236 32.7245 21.3456 32.4433C21.4316 32.2182 21.5781 32.0211 21.7693 31.8734C22.091 31.6314 22.3499 31.6236 22.3577 31.647C22.3656 31.6704 22.1459 31.7641 21.887 32.0139C21.7237 32.1644 21.6107 32.361 21.563 32.5773C21.5153 32.7936 21.5353 33.0192 21.6202 33.2239C21.718 33.428 21.8581 33.6093 22.0311 33.7559C22.2042 33.9026 22.4064 34.0112 22.6245 34.0748C22.9305 34.1529 23.1659 34.1685 23.1659 34.2544Z" fill="#995037"/>
<path d="M33.8522 33.2396C33.8522 33.2396 33.9228 33.3489 33.8522 33.5128C33.8047 33.7351 33.6929 33.9386 33.5305 34.0983C33.3698 34.2582 33.1649 34.3668 32.942 34.4106C32.7694 34.4106 32.6674 34.4106 32.6595 34.4106C32.6517 34.4106 33.0362 34.2622 33.3422 33.95C33.6482 33.6377 33.7815 33.2318 33.8522 33.2396Z" fill="#263238"/>
<path d="M40.7412 27.4394C40.7532 27.5426 40.7443 27.6472 40.7151 27.7469C40.6859 27.8467 40.637 27.9396 40.5712 28.0203C40.5054 28.101 40.4241 28.1679 40.3321 28.2169C40.24 28.266 40.139 28.2962 40.0351 28.3059C39.8314 28.3352 39.6244 28.2836 39.4585 28.1624C39.2927 28.0412 39.1813 27.8601 39.1485 27.658C39.1365 27.5548 39.1454 27.4502 39.1746 27.3505C39.2038 27.2507 39.2527 27.1577 39.3185 27.077C39.3842 26.9963 39.4655 26.9295 39.5576 26.8805C39.6497 26.8314 39.7506 26.8012 39.8546 26.7915C40.0583 26.7622 40.2653 26.8138 40.4312 26.9349C40.597 27.0561 40.7084 27.2373 40.7412 27.4394Z" fill="#263238"/>
<path d="M41.2666 26.284C41.1803 26.3933 40.5369 25.9952 39.6974 26.0732C38.8579 26.1513 38.2459 26.6353 38.1282 26.5338C38.0105 26.4323 38.1282 26.2996 38.4185 26.0732C38.7687 25.7862 39.1983 25.612 39.6503 25.5736C40.0999 25.5362 40.5499 25.64 40.9371 25.8702C41.2117 26.0498 41.3137 26.2293 41.2666 26.284Z" fill="#263238"/>
<path d="M32.6987 28.2044C32.7107 28.3076 32.7018 28.4122 32.6726 28.5119C32.6434 28.6117 32.5945 28.7046 32.5287 28.7853C32.463 28.8661 32.3817 28.9329 32.2896 28.9819C32.1975 29.031 32.0966 29.0612 31.9926 29.0709C31.7889 29.1002 31.5819 29.0487 31.416 28.9275C31.2502 28.8063 31.1389 28.6251 31.106 28.423C31.094 28.3198 31.1029 28.2152 31.1321 28.1155C31.1613 28.0157 31.2102 27.9228 31.276 27.8421C31.3418 27.7614 31.4231 27.6945 31.5151 27.6455C31.6072 27.5965 31.7082 27.5662 31.8121 27.5565C32.0158 27.5272 32.2228 27.5788 32.3887 27.7C32.5545 27.8212 32.6659 28.0023 32.6987 28.2044Z" fill="#263238"/>
<path d="M32.8086 27.0022C32.7145 27.1115 32.0711 26.7212 31.2394 26.7993C30.4077 26.8773 29.7879 27.3535 29.6702 27.2598C29.5525 27.1662 29.6702 27.0178 29.9605 26.7993C30.3101 26.5063 30.7442 26.3313 31.2002 26.2996C31.6475 26.2585 32.0962 26.3625 32.4791 26.5963C32.7459 26.7758 32.8479 26.9554 32.8086 27.0022Z" fill="#263238"/>
<path d="M36.308 33.1927C36.7486 33.0124 37.2097 32.8865 37.6811 32.818C37.9008 32.818 38.1048 32.7165 38.1283 32.5682C38.1295 32.3388 38.0582 32.1149 37.9243 31.9281L37.1397 30.32C36.4145 28.961 35.8005 27.546 35.3037 26.0889C36.1303 27.3869 36.8493 28.7497 37.4536 30.1638L38.2382 31.7876C38.3991 32.0376 38.4658 32.3363 38.4265 32.6306C38.4018 32.7114 38.3585 32.7853 38.2999 32.8463C38.2413 32.9073 38.1691 32.9538 38.0891 32.9819C37.9704 33.0264 37.8465 33.0552 37.7203 33.0678C37.257 33.17 36.7822 33.212 36.308 33.1927Z" fill="#263238"/>
<path d="M36.1904 36.167C36.2494 36.0314 36.2687 35.882 36.2458 35.736C36.2229 35.59 36.1588 35.4535 36.061 35.3423C35.9632 35.2311 35.8357 35.1498 35.6934 35.1079C35.551 35.0659 35.3995 35.065 35.2567 35.1053C35.2552 34.9562 35.2033 34.812 35.1093 34.6959C35.0154 34.5797 34.8849 34.4985 34.7388 34.4652C34.5915 34.4326 34.4385 34.4354 34.2925 34.4734C34.1465 34.5114 34.0117 34.5835 33.8993 34.6837C33.6858 34.8764 33.5412 35.133 33.4874 35.4147C33.4336 35.6964 33.4735 35.9879 33.6011 36.245C33.7408 36.4984 33.9541 36.704 34.213 36.8349C34.472 36.9658 34.7646 37.016 35.0527 36.9788C35.3408 36.937 35.6115 36.8163 35.8346 36.6302C36.0577 36.4441 36.2243 36.1999 36.3159 35.925" fill="#995037"/>
<path d="M33.8208 33.9967C33.9621 33.9967 34.0484 34.9101 34.9036 35.5034C35.7588 36.0967 36.7474 35.9015 36.7631 36.0342C36.7788 36.1669 36.5591 36.2372 36.1354 36.284C35.5815 36.3402 35.0255 36.1991 34.5662 35.8859C34.1267 35.5924 33.822 35.1377 33.7188 34.6213C33.6717 34.2543 33.7581 33.9967 33.8208 33.9967Z" fill="#263238"/>
<path d="M33.4286 25.4409C33.3658 25.6829 32.4949 25.6439 31.4984 25.8469C30.502 26.0498 29.7016 26.4011 29.5526 26.206C29.4035 26.0108 29.6075 25.8781 29.9135 25.6205C30.3313 25.3094 30.8142 25.096 31.3263 24.996C31.8383 24.896 32.3665 24.912 32.8715 25.0428C33.256 25.1599 33.4521 25.3238 33.4286 25.4409Z" fill="#263238"/>
<path d="M41.008 24.6369C40.8746 24.8477 40.2234 24.6916 39.5486 24.7462C38.8738 24.8009 38.2461 24.9882 38.0892 24.7931C37.9323 24.5979 38.0892 24.4964 38.3403 24.2935C38.6754 24.0391 39.0804 23.892 39.5015 23.8719C39.9204 23.8449 40.3373 23.9486 40.6941 24.1685C40.9687 24.3403 41.0629 24.5354 41.008 24.6369Z" fill="#263238"/>
<path d="M37.1396 42.3262C34.5834 42.4746 32.0393 41.8778 29.8191 40.6088C29.8191 40.6088 31.8356 44.4496 37.1631 43.6689L37.1396 42.3262Z" fill="#995037"/>
<path d="M18.7324 21.1396C18.7324 21.1396 18.5677 21.0382 18.3558 20.804C18.0748 20.496 17.854 20.1386 17.7046 19.7501C17.5604 19.3584 17.5015 18.9406 17.532 18.5245C17.5273 18.3524 17.5622 18.1815 17.634 18.0249C17.6234 18.5901 17.7001 19.1535 17.8615 19.6955C18.1008 20.2056 18.3926 20.6896 18.7324 21.1396Z" fill="#FAFAFA"/>
<path d="M20.6629 19.0162C20.5264 18.9257 20.4069 18.8121 20.3098 18.6806C20.0526 18.3837 19.8338 18.0559 19.6586 17.7048C19.4897 17.3516 19.3557 16.983 19.2584 16.6041C19.2032 16.4514 19.1766 16.29 19.18 16.1279C19.2349 16.1279 19.4232 16.8226 19.8077 17.6345C20.1921 18.4464 20.71 18.9772 20.6629 19.0162Z" fill="#FAFAFA"/>
<path d="M23.6206 17.1974C23.6206 17.1974 23.4558 17.0569 23.2283 16.7915C22.9366 16.444 22.6742 16.0733 22.4437 15.683C22.2209 15.2903 22.0243 14.8835 21.8552 14.4651C21.7752 14.2962 21.7172 14.1178 21.6826 13.9343C21.7375 13.9343 22.0749 14.715 22.5849 15.6049C23.0949 16.4948 23.6677 17.1662 23.6206 17.1974Z" fill="#FAFAFA"/>
<path d="M27.3245 15.4332C27.2617 15.4332 26.9793 14.5823 26.3987 13.6377C25.8181 12.6931 25.1119 12.0764 25.159 12.0764C25.3282 12.1848 25.4813 12.3162 25.6141 12.4667C25.9574 12.8068 26.265 13.1808 26.532 13.583C26.7903 13.9925 27.0008 14.4299 27.1597 14.8867C27.2373 15.0613 27.2926 15.2449 27.3245 15.4332Z" fill="#FAFAFA"/>
<path d="M30.455 13.6377C30.3429 13.109 30.1988 12.5877 30.0234 12.0764C29.7341 11.6387 29.4114 11.2238 29.0583 10.8352C29.0583 10.8352 29.2231 10.921 29.4428 11.1162C29.74 11.3677 29.9875 11.6722 30.1725 12.0139C30.3329 12.3663 30.4285 12.7443 30.455 13.1302C30.4886 13.2977 30.4886 13.4702 30.455 13.6377Z" fill="#FAFAFA"/>
<path d="M34.127 12.9273C34.0799 12.9273 33.9151 12.3809 33.5464 11.7642C33.1776 11.1475 32.7618 10.7415 32.8088 10.7025C33.1849 10.9463 33.4883 11.286 33.6876 11.6861C33.9402 12.0547 34.0917 12.4825 34.127 12.9273Z" fill="#FAFAFA"/>
<path d="M37.2968 13.4503C37.2497 13.4503 37.1713 12.9429 36.9281 12.373C36.761 12.0358 36.5441 11.7253 36.2847 11.4518C36.4683 11.5307 36.6331 11.6473 36.7683 11.7939C36.9035 11.9405 37.0061 12.1139 37.0693 12.3028C37.2496 12.6572 37.3284 13.0542 37.2968 13.4503Z" fill="#FAFAFA"/>
<path d="M39.2817 13.3332C39.2817 13.3332 39.4857 13.5049 39.5092 13.8172C39.5328 14.1295 39.3994 14.348 39.3601 14.3324C39.3209 14.3168 39.3601 14.0982 39.3601 13.8328C39.3601 13.5674 39.2425 13.3566 39.2817 13.3332Z" fill="#FAFAFA"/>
<path d="M17.5245 23.708C17.0309 23.5455 16.6022 23.231 16.3003 22.81C15.9984 22.3889 15.8391 21.8832 15.8454 21.366C15.9674 21.8423 16.1661 22.2957 16.4339 22.7087C16.7459 23.0935 17.1134 23.4302 17.5245 23.708Z" fill="#FAFAFA"/>
<path d="M16.6694 26.0733C16.5172 26.092 16.3629 26.0794 16.2158 26.0365C16.0687 25.9935 15.932 25.921 15.8142 25.8234C15.6798 25.75 15.5614 25.6507 15.4658 25.5315C15.3702 25.4122 15.2992 25.2753 15.2571 25.1287C15.2963 25.1287 15.5082 25.4331 15.9005 25.6907C16.2928 25.9484 16.6772 26.0264 16.6694 26.0733Z" fill="#FAFAFA"/>
<path d="M36.6689 20.6244C36.8851 20.5811 37.0976 20.5211 37.3044 20.4448C37.8496 20.1878 38.2839 19.7446 38.5284 19.1958C38.7091 18.7935 38.7879 18.3533 38.7578 17.9137C38.7277 17.4741 38.5897 17.0485 38.3558 16.6743C37.7899 15.7358 36.8728 15.0591 35.8058 14.793C34.7394 14.5251 33.6307 14.4668 32.5418 14.6213C31.6495 14.7249 30.7802 14.9727 29.9682 15.355C29.2259 15.7172 28.5683 16.2305 28.0381 16.8617C28.1571 16.6704 28.2965 16.4924 28.4539 16.3308C28.8799 15.8882 29.3788 15.5212 29.929 15.2458C30.7469 14.8414 31.6276 14.5774 32.5339 14.4651C33.6429 14.3007 34.7735 14.3564 35.8607 14.6291C36.9651 14.9101 37.9128 15.6145 38.497 16.5885C38.7374 16.9838 38.8767 17.4318 38.9027 17.8932C38.9287 18.3545 38.8406 18.8152 38.6461 19.2348C38.3778 19.7986 37.9118 20.2455 37.3358 20.4917C37.1265 20.5856 36.8984 20.631 36.6689 20.6244Z" fill="#455A64"/>
<path d="M30.7766 21.2957C31.0379 21.0442 31.239 20.7373 31.365 20.398C31.4767 20.0262 31.4767 19.63 31.365 19.2582C31.2278 18.7998 30.9188 18.4114 30.502 18.1731C29.7203 17.7582 28.9006 17.4184 28.054 17.1583C27.4027 16.9476 26.9869 16.8383 26.9947 16.8148C27.0026 16.7914 27.1046 16.8148 27.2929 16.8539C27.4812 16.8929 27.7558 16.9554 28.0775 17.049C28.9509 17.2759 29.7939 17.6061 30.5883 18.0326C31.0354 18.2951 31.362 18.7208 31.4984 19.2192C31.599 19.6224 31.5772 20.0462 31.4357 20.437C31.3375 20.697 31.182 20.9317 30.9806 21.124C30.9221 21.1916 30.8533 21.2496 30.7766 21.2957Z" fill="#455A64"/>
<path d="M15.0059 6.50262C14.9987 6.25147 15.0441 6.00157 15.1392 5.76882C15.3851 5.10832 15.8575 4.5554 16.4731 4.20754C16.9376 3.96648 17.4515 3.83478 17.9753 3.8226C18.499 3.81042 19.0186 3.91808 19.4939 4.13728C20.0745 4.41829 20.5863 4.82255 20.9929 5.32158C21.3996 5.82062 21.6914 6.4023 21.8477 7.02565H21.7065C21.9006 6.80085 22.125 6.60383 22.3734 6.44017C22.9568 6.0512 23.6465 5.85073 24.3486 5.8661C25.0507 5.88147 25.7309 6.11192 26.2965 6.52604C26.7374 6.89154 27.066 7.37302 27.245 7.9155C27.424 8.45798 27.446 9.03962 27.3086 9.59397C27.1142 10.3394 26.6395 10.9821 25.9826 11.3894C25.7445 11.5458 25.478 11.6545 25.198 11.7095C25.4542 11.6114 25.6989 11.4857 25.9277 11.3348C26.5516 10.922 26.999 10.2932 27.1831 9.57055C27.3053 9.03864 27.2768 8.48345 27.1009 7.96666C26.925 7.44987 26.6085 6.99174 26.1866 6.64315C25.6434 6.25138 24.9922 6.03527 24.3213 6.0241C23.6504 6.01293 22.9923 6.20724 22.4362 6.58069C22.1987 6.73105 21.9846 6.91514 21.8006 7.12714L21.6986 7.23643V7.09592C21.5445 6.49431 21.2614 5.933 20.8686 5.45059C20.4758 4.96817 19.9828 4.57608 19.4232 4.30122C18.9718 4.07954 18.4751 3.96423 17.9717 3.96423C17.4683 3.96423 16.9716 4.07954 16.5202 4.30122C15.9205 4.61895 15.4514 5.13537 15.1942 5.76102C15.104 6.00051 15.0408 6.24924 15.0059 6.50262Z" fill="#455A64"/>
<path d="M31.2158 4.53539C31.302 4.5681 31.3816 4.61567 31.4512 4.67591C31.6496 4.83086 31.8311 5.00617 31.9926 5.19894C32.5302 5.84141 32.8317 6.64698 32.8474 7.48284C32.8631 8.31869 32.592 9.13491 32.0789 9.79691C31.9261 9.9943 31.7525 10.1749 31.561 10.3356C31.493 10.3997 31.4131 10.4501 31.3257 10.4839C31.5621 10.2381 31.7822 9.97733 31.9847 9.70324C32.4457 9.04669 32.6897 8.26363 32.683 7.46279C32.6567 6.66113 32.3827 5.88702 31.8984 5.24577C31.6851 4.99582 31.4572 4.75861 31.2158 4.53539Z" fill="#455A64"/>
<path d="M11.1613 8.75864C10.8974 9.41891 10.8453 10.1443 11.0122 10.8351C11.1868 11.5809 11.649 12.2285 12.2989 12.6384C12.693 12.8861 13.1376 13.0433 13.6004 13.0987C14.0632 13.1541 14.5326 13.1062 14.9745 12.9585L15.3119 12.8414L15.0608 13.099L14.9509 13.2083C14.6582 13.5742 14.5136 14.0358 14.5456 14.5023C14.5775 14.9689 14.7837 15.4067 15.1236 15.7298C15.4052 16.0003 15.7405 16.2095 16.1079 16.3439C16.4754 16.4783 16.867 16.535 17.2577 16.5104C17.7871 16.4728 18.3054 16.3406 18.7877 16.1201C19.1329 15.9718 19.3134 15.8625 19.3213 15.8781C19.1638 15.995 18.9957 16.0969 18.8191 16.1825C18.3287 16.4263 17.7961 16.5746 17.2499 16.6197C16.8415 16.6565 16.4299 16.6059 16.0429 16.4712C15.6558 16.3366 15.3022 16.121 15.0059 15.8391C14.6323 15.4909 14.4046 15.0152 14.3683 14.5073C14.3319 13.9993 14.4896 13.4964 14.8097 13.099L14.9353 12.9741L15.0137 13.1146C14.549 13.2691 14.0553 13.3177 13.5691 13.2569C13.0829 13.1961 12.6167 13.0274 12.2048 12.7633C11.8682 12.546 11.5792 12.2631 11.3554 11.9318C11.1315 11.6004 10.9774 11.2274 10.9023 10.8351C10.7721 10.3228 10.7721 9.78623 10.9023 9.27386C10.9625 9.09032 11.0498 8.91669 11.1613 8.75864Z" fill="#455A64"/>
<path d="M35.4057 73.3255C35.4057 73.3255 35.2802 73.5207 34.9977 73.7861C34.5839 74.1628 34.1254 74.4878 33.6325 74.7541C31.9945 75.6699 30.0918 76.0035 28.2378 75.6998C26.3838 75.3962 24.689 74.4734 23.4325 73.0835C23.0479 72.6712 22.7135 72.2153 22.436 71.7252C22.2477 71.3817 22.1771 71.1787 22.2007 71.1631C22.2242 71.1475 22.6557 71.9438 23.6287 72.8805C24.8883 74.1682 26.5299 75.02 28.3121 75.3109C30.0944 75.6018 31.9234 75.3163 33.5305 74.4965C34.731 73.8876 35.3508 73.2865 35.4057 73.3255Z" fill="#263238"/>
</svg>
